<svg width="1200" height="1150" viewBox="0 0 1920 960" fill="none" xmlns="http://www.w3.org/2000/svg">
<style>
#envelope {
    animation: envo 5s 1s infinite linear;
}

@keyframes envo {
    0% {
        transform: translate(0px);
    }
    50% {
        transform: translate(1200px);
    }
    100% {
        transform: translate(0px);
    }
}
<!-- #envelope2 {
    animation: envo 5s 6s infinite linear;
}

@keyframes envo {
    0% {
        transform: translate(0px);
    }
    50% {
        transform: translate(1200px);
    }
    100% {
        transform: translate(0px);
    }
}
#envelope3 {
    animation: envo 5s 7s infinite linear;
}

@keyframes envo {
    0% {
        transform: translate(0px);
    }
    50% {
        transform: translate(1200px);
    }
    100% {
        transform: translate(0px);
    }
}
#envelope4 {
    animation: envo 8s 10s infinite linear;
}

@keyframes envo {
    0% {
        transform: translate(0px);
    }
    50% {
        transform: translate(1200px);
    }
    100% {
        transform: translate(0px);
    }
} -->

#bio {
    animation: leter 20s infinite linear;
    transform-origin:top;
    
}

@keyframes leter {
    0% {
        transform: scale(0,0);
    }
    50% {
        transform: scale(1,1);
    }
    100% {
        transform: scale(0,0);
    }
}
 #main-d {
    animation: col 5s 1s infinite linear;
    transform-origin:top;
    transform-box:fill-box;
}

@keyframes col {
    0% {
        transform: rotate(0deg);
    }
    50% {
        transform: rotate(20deg);
    }
    100% {
        transform: rotate(0deg);
    }
}
#tete, #f1, #f2, #f3, #f4, #f5, #f6, #f7, #f8, #f9, #f10, #f11, #f12   {
    animation: cole 5s 1s infinite linear;
    transform-origin:bottom;
    transform-box:fill-box;
}

@keyframes cole {
    0% {
        transform: rotate(0deg);
    }
    50% {
        transform: rotate(10deg);
    }
    100% {
        transform: rotate(0deg);
    }
}
</style>

<g id="Plugin / file cover - 1" clip-path="url(#clip0_0_1)">
<g id="bio">
<g id="B">
<path d="M1120.88 935V832.625H1154.35C1165.46 832.625 1173.8 834.922 1179.38 839.516C1185.01 844.109 1187.82 850.906 1187.82 859.906C1187.82 864.688 1186.46 868.93 1183.74 872.633C1181.02 876.289 1177.32 879.125 1172.63 881.141C1178.16 882.688 1182.52 885.641 1185.71 890C1188.95 894.312 1190.56 899.469 1190.56 905.469C1190.56 914.656 1187.59 921.875 1181.63 927.125C1175.68 932.375 1167.27 935 1156.39 935H1120.88ZM1134.38 887.117V923.961H1156.67C1162.95 923.961 1167.9 922.344 1171.51 919.109C1175.16 915.828 1176.99 911.328 1176.99 905.609C1176.99 893.281 1170.29 887.117 1156.88 887.117H1134.38ZM1134.38 876.289H1154.77C1160.68 876.289 1165.39 874.812 1168.91 871.859C1172.47 868.906 1174.25 864.898 1174.25 859.836C1174.25 854.211 1172.61 850.133 1169.33 847.602C1166.05 845.023 1161.05 843.734 1154.35 843.734H1134.38V876.289Z" fill="#ED9A1D"/>
<path d="M1120.88 935H1112.88V943H1120.88V935ZM1120.88 832.625V824.625H1112.88V832.625H1120.88ZM1179.38 839.516L1174.3 845.691L1174.31 845.702L1174.32 845.712L1179.38 839.516ZM1183.74 872.633L1190.16 877.406L1190.18 877.387L1190.19 877.367L1183.74 872.633ZM1172.63 881.141L1169.47 873.791L1148.66 882.742L1170.48 888.845L1172.63 881.141ZM1185.71 890L1179.25 894.722L1179.28 894.761L1179.31 894.8L1185.71 890ZM1134.38 887.117V879.117H1126.38V887.117H1134.38ZM1134.38 923.961H1126.38V931.961H1134.38V923.961ZM1171.51 919.109L1176.85 925.067L1176.85 925.063L1171.51 919.109ZM1134.38 876.289H1126.38V884.289H1134.38V876.289ZM1168.91 871.859L1163.8 865.7L1163.78 865.717L1163.76 865.734L1168.91 871.859ZM1169.33 847.602L1164.39 853.892L1164.41 853.914L1164.44 853.936L1169.33 847.602ZM1134.38 843.734V835.734H1126.38V843.734H1134.38ZM1128.88 935V832.625H1112.88V935H1128.88ZM1120.88 840.625H1154.35V824.625H1120.88V840.625ZM1154.35 840.625C1164.55 840.625 1170.74 842.765 1174.3 845.691L1184.47 833.34C1176.87 827.079 1166.37 824.625 1154.35 824.625V840.625ZM1174.32 845.712C1177.65 848.428 1179.82 852.679 1179.82 859.906H1195.82C1195.82 849.134 1192.37 839.79 1184.44 833.319L1174.32 845.712ZM1179.82 859.906C1179.82 863.059 1178.96 865.627 1177.29 867.898L1190.19 877.367C1193.96 872.233 1195.82 866.316 1195.82 859.906H1179.82ZM1177.32 867.859C1175.54 870.254 1173.02 872.264 1169.47 873.791L1175.79 888.49C1181.62 885.986 1186.51 882.324 1190.16 877.406L1177.32 867.859ZM1170.48 888.845C1174.4 889.941 1177.19 891.907 1179.25 894.722L1192.17 885.278C1187.85 879.374 1181.93 875.434 1174.79 873.436L1170.48 888.845ZM1179.31 894.8C1181.39 897.572 1182.56 900.994 1182.56 905.469H1198.56C1198.56 897.944 1196.5 891.053 1192.11 885.2L1179.31 894.8ZM1182.56 905.469C1182.56 912.76 1180.29 917.639 1176.34 921.125L1186.92 933.125C1194.88 926.111 1198.56 916.553 1198.56 905.469H1182.56ZM1176.34 921.125C1172.31 924.676 1166.04 927 1156.39 927V943C1168.49 943 1179.05 940.074 1186.92 933.125L1176.34 921.125ZM1156.39 927H1120.88V943H1156.39V927ZM1126.38 887.117V923.961H1142.38V887.117H1126.38ZM1134.38 931.961H1156.67V915.961H1134.38V931.961ZM1156.67 931.961C1164.32 931.961 1171.38 929.968 1176.85 925.067L1166.17 913.151C1164.42 914.72 1161.58 915.961 1156.67 915.961V931.961ZM1176.85 925.063C1182.48 920.011 1184.99 913.19 1184.99 905.609H1168.99C1168.99 909.466 1167.85 911.645 1166.16 913.155L1176.85 925.063ZM1184.99 905.609C1184.99 898.032 1182.9 890.929 1177.38 885.852C1171.99 880.891 1164.66 879.117 1156.88 879.117V895.117C1162.51 895.117 1165.24 896.425 1166.55 897.629C1167.73 898.716 1168.99 900.859 1168.99 905.609H1184.99ZM1156.88 879.117H1134.38V895.117H1156.88V879.117ZM1134.38 884.289H1154.77V868.289H1134.38V884.289ZM1154.77 884.289C1162.01 884.289 1168.72 882.461 1174.05 877.985L1163.76 865.734C1162.06 867.164 1159.35 868.289 1154.77 868.289V884.289ZM1174.01 878.018C1179.59 873.39 1182.25 867.026 1182.25 859.836H1166.25C1166.25 862.771 1165.34 864.422 1163.8 865.7L1174.01 878.018ZM1182.25 859.836C1182.25 852.681 1180.11 845.812 1174.21 841.267L1164.44 853.936C1165.11 854.454 1166.25 855.741 1166.25 859.836H1182.25ZM1174.27 841.311C1168.95 837.131 1161.84 835.734 1154.35 835.734V851.734C1160.27 851.734 1163.14 852.916 1164.39 853.892L1174.27 841.311ZM1154.35 835.734H1134.38V851.734H1154.35V835.734ZM1126.38 843.734V876.289H1142.38V843.734H1126.38Z" fill="#85C941"/>
</g>
<g id="I">
<path d="M1222.46 936.259H1208.96V833.884H1222.46V936.259Z" fill="#ED9A1D"/>
<path d="M1222.46 936.259V944.259H1230.46V936.259H1222.46ZM1208.96 936.259H1200.96V944.259H1208.96V936.259ZM1208.96 833.884V825.884H1200.96V833.884H1208.96ZM1222.46 833.884H1230.46V825.884H1222.46V833.884ZM1222.46 928.259H1208.96V944.259H1222.46V928.259ZM1216.96 936.259V833.884H1200.96V936.259H1216.96ZM1208.96 841.884H1222.46V825.884H1208.96V841.884ZM1214.46 833.884V936.259H1230.46V833.884H1214.46Z" fill="#85C941"/>
</g>
<g id="O">
<path d="M1326.15 888.376C1326.15 898.407 1324.46 907.173 1321.08 914.673C1317.71 922.126 1312.93 927.821 1306.74 931.759C1300.55 935.696 1293.33 937.665 1285.08 937.665C1277.02 937.665 1269.87 935.696 1263.64 931.759C1257.4 927.775 1252.55 922.126 1249.08 914.814C1245.66 907.454 1243.9 898.946 1243.81 889.29V881.907C1243.81 872.064 1245.52 863.368 1248.94 855.821C1252.37 848.275 1257.19 842.509 1263.43 838.525C1269.71 834.493 1276.88 832.478 1284.94 832.478C1293.15 832.478 1300.37 834.47 1306.6 838.454C1312.88 842.392 1317.71 848.134 1321.08 855.681C1324.46 863.181 1326.15 871.923 1326.15 881.907V888.376ZM1312.72 881.767C1312.72 869.626 1310.28 860.321 1305.4 853.853C1300.53 847.337 1293.71 844.079 1284.94 844.079C1276.41 844.079 1269.69 847.337 1264.76 853.853C1259.89 860.321 1257.38 869.321 1257.24 880.853V888.376C1257.24 900.142 1259.7 909.4 1264.62 916.15C1269.59 922.853 1276.41 926.204 1285.08 926.204C1293.8 926.204 1300.55 923.04 1305.33 916.712C1310.12 910.337 1312.58 901.22 1312.72 889.361V881.767Z" fill="#ED9A1D"/>
<path d="M1321.08 914.673L1328.37 917.973L1328.38 917.965L1328.38 917.956L1321.08 914.673ZM1263.64 931.759L1259.33 938.5L1259.35 938.511L1259.37 938.523L1263.64 931.759ZM1249.08 914.814L1241.83 918.187L1241.84 918.215L1241.86 918.242L1249.08 914.814ZM1243.81 889.29H1235.81V889.329L1235.81 889.368L1243.81 889.29ZM1263.43 838.525L1267.74 845.266L1267.74 845.261L1267.75 845.257L1263.43 838.525ZM1306.6 838.454L1302.29 845.195L1302.32 845.214L1302.35 845.233L1306.6 838.454ZM1321.08 855.681L1313.78 858.947L1313.79 858.955L1313.79 858.964L1321.08 855.681ZM1305.4 853.853L1299 858.645L1299.01 858.656L1299.02 858.668L1305.4 853.853ZM1264.76 853.853L1258.38 849.031L1258.38 849.038L1264.76 853.853ZM1257.24 880.853L1249.24 880.755L1249.24 880.804V880.853H1257.24ZM1264.62 916.15L1258.16 920.863L1258.18 920.888L1258.2 920.914L1264.62 916.15ZM1305.33 916.712L1311.72 921.535L1311.73 921.523L1311.73 921.512L1305.33 916.712ZM1312.72 889.361L1320.72 889.455L1320.72 889.408V889.361H1312.72ZM1318.15 888.376C1318.15 897.519 1316.61 905.123 1313.79 911.39L1328.38 917.956C1332.31 909.223 1334.15 899.296 1334.15 888.376H1318.15ZM1313.8 911.373C1310.99 917.579 1307.17 922.001 1302.45 925.01L1311.04 938.508C1318.68 933.642 1324.43 926.673 1328.37 917.973L1313.8 911.373ZM1302.45 925.01C1297.7 928.031 1292.01 929.665 1285.08 929.665V945.665C1294.66 945.665 1303.41 943.362 1311.04 938.508L1302.45 925.01ZM1285.08 929.665C1278.39 929.665 1272.75 928.05 1267.91 924.995L1259.37 938.523C1267 943.343 1275.66 945.665 1285.08 945.665V929.665ZM1267.95 925.018C1263.1 921.917 1259.2 917.473 1256.31 911.385L1241.86 918.242C1245.91 926.779 1251.71 933.632 1259.33 938.5L1267.95 925.018ZM1256.34 911.441C1253.48 905.291 1251.9 897.943 1251.81 889.213L1235.81 889.368C1235.91 899.95 1237.85 909.617 1241.83 918.187L1256.34 911.441ZM1251.81 889.29V881.907H1235.81V889.29H1251.81ZM1251.81 881.907C1251.81 872.992 1253.36 865.458 1256.23 859.125L1241.66 852.518C1237.69 861.279 1235.81 871.135 1235.81 881.907H1251.81ZM1256.23 859.125C1259.09 852.813 1262.96 848.319 1267.74 845.266L1259.12 831.784C1251.43 836.699 1245.64 843.736 1241.66 852.518L1256.23 859.125ZM1267.75 845.257C1272.64 842.12 1278.29 840.478 1284.94 840.478V824.478C1275.48 824.478 1266.78 826.867 1259.11 831.792L1267.75 845.257ZM1284.94 840.478C1291.79 840.478 1297.48 842.121 1302.29 845.195L1310.91 831.713C1303.25 826.819 1294.5 824.478 1284.94 824.478V840.478ZM1302.35 845.233C1307.14 848.232 1310.98 852.674 1313.78 858.947L1328.39 852.415C1324.44 843.594 1318.63 836.551 1310.85 831.676L1302.35 845.233ZM1313.79 858.964C1316.61 865.235 1318.15 872.818 1318.15 881.907H1334.15C1334.15 871.028 1332.31 861.126 1328.38 852.398L1313.79 858.964ZM1318.15 881.907V888.376H1334.15V881.907H1318.15ZM1320.72 881.767C1320.72 868.713 1318.12 857.433 1311.79 849.038L1299.02 858.668C1302.44 863.21 1304.72 870.539 1304.72 881.767H1320.72ZM1311.81 849.06C1305.29 840.351 1296 836.079 1284.94 836.079V852.079C1291.41 852.079 1295.77 854.323 1299 858.645L1311.81 849.06ZM1284.94 836.079C1274.04 836.079 1264.89 840.411 1258.38 849.031L1271.15 858.675C1274.48 854.263 1278.79 852.079 1284.94 852.079V836.079ZM1258.38 849.038C1252.12 857.336 1249.39 868.218 1249.24 880.755L1265.24 880.95C1265.37 870.424 1267.66 863.307 1271.15 858.668L1258.38 849.038ZM1249.24 880.853V888.376H1265.24V880.853H1249.24ZM1249.24 888.376C1249.24 901.164 1251.91 912.286 1258.16 920.863L1271.09 911.436C1267.5 906.513 1265.24 899.119 1265.24 888.376H1249.24ZM1258.2 920.914C1264.74 929.745 1274 934.204 1285.08 934.204V918.204C1278.83 918.204 1274.44 915.961 1271.05 911.386L1258.2 920.914ZM1285.08 934.204C1296.02 934.204 1305.26 930.082 1311.72 921.535L1298.95 911.889C1295.85 915.998 1291.58 918.204 1285.08 918.204V934.204ZM1311.73 921.512C1317.92 913.26 1320.57 902.225 1320.72 889.455L1304.72 889.266C1304.59 900.215 1302.31 907.414 1298.93 911.912L1311.73 921.512ZM1320.72 889.361V881.767H1304.72V889.361H1320.72Z" fill="#85C941"/>
</g>
<g id="F">
<path d="M1401.04 892.936H1358.07V938.147H1344.57V835.772H1408V846.882H1358.07V881.897H1401.04V892.936Z" fill="#ED9A1D"/>
<path d="M1401.04 892.936V900.936H1409.04V892.936H1401.04ZM1358.07 892.936V884.936H1350.07V892.936H1358.07ZM1358.07 938.147V946.147H1366.07V938.147H1358.07ZM1344.57 938.147H1336.57V946.147H1344.57V938.147ZM1344.57 835.772V827.772H1336.57V835.772H1344.57ZM1408 835.772H1416V827.772H1408V835.772ZM1408 846.882V854.882H1416V846.882H1408ZM1358.07 846.882V838.882H1350.07V846.882H1358.07ZM1358.07 881.897H1350.07V889.897H1358.07V881.897ZM1401.04 881.897H1409.04V873.897H1401.04V881.897ZM1401.04 884.936H1358.07V900.936H1401.04V884.936ZM1350.07 892.936V938.147H1366.07V892.936H1350.07ZM1358.07 930.147H1344.57V946.147H1358.07V930.147ZM1352.57 938.147V835.772H1336.57V938.147H1352.57ZM1344.57 843.772H1408V827.772H1344.57V843.772ZM1400 835.772V846.882H1416V835.772H1400ZM1408 838.882H1358.07V854.882H1408V838.882ZM1350.07 846.882V881.897H1366.07V846.882H1350.07ZM1358.07 889.897H1401.04V873.897H1358.07V889.897ZM1393.04 881.897V892.936H1409.04V881.897H1393.04Z" fill="#85C941"/>
</g>
<g id="R">
<path d="M1467.38 896.733H1443.33V938.147H1429.76V835.772H1463.65C1475.19 835.772 1484.04 838.397 1490.23 843.647C1496.47 848.897 1499.58 856.538 1499.58 866.569C1499.58 872.944 1497.85 878.499 1494.38 883.233C1490.96 887.968 1486.18 891.507 1480.04 893.851L1504.08 937.304V938.147H1489.6L1467.38 896.733ZM1443.33 885.694H1464.08C1470.78 885.694 1476.1 883.96 1480.04 880.491C1484.02 877.022 1486.01 872.382 1486.01 866.569C1486.01 860.241 1484.12 855.39 1480.32 852.015C1476.57 848.64 1471.13 846.929 1464.01 846.882H1443.33V885.694Z" fill="#ED9A1D"/>
<path d="M1467.38 896.733L1474.43 892.951L1472.17 888.733H1467.38V896.733ZM1443.33 896.733V888.733H1435.33V896.733H1443.33ZM1443.33 938.147V946.147H1451.33V938.147H1443.33ZM1429.76 938.147H1421.76V946.147H1429.76V938.147ZM1429.76 835.772V827.772H1421.76V835.772H1429.76ZM1490.23 843.647L1485.06 849.747L1485.07 849.757L1485.08 849.767L1490.23 843.647ZM1494.38 883.233L1487.93 878.505L1487.91 878.526L1487.9 878.547L1494.38 883.233ZM1480.04 893.851L1477.18 886.376L1468.58 889.662L1473.04 897.724L1480.04 893.851ZM1504.08 937.304H1512.08V935.238L1511.08 933.43L1504.08 937.304ZM1504.08 938.147V946.147H1512.08V938.147H1504.08ZM1489.6 938.147L1482.55 941.929L1484.81 946.147H1489.6V938.147ZM1443.33 885.694H1435.33V893.694H1443.33V885.694ZM1480.04 880.491L1474.78 874.457L1474.77 874.473L1474.75 874.488L1480.04 880.491ZM1480.32 852.015L1474.97 857.961L1474.98 857.977L1475 857.994L1480.32 852.015ZM1464.01 846.882L1464.06 838.882L1464.03 838.882H1464.01V846.882ZM1443.33 846.882V838.882H1435.33V846.882H1443.33ZM1467.38 888.733H1443.33V904.733H1467.38V888.733ZM1435.33 896.733V938.147H1451.33V896.733H1435.33ZM1443.33 930.147H1429.76V946.147H1443.33V930.147ZM1437.76 938.147V835.772H1421.76V938.147H1437.76ZM1429.76 843.772H1463.65V827.772H1429.76V843.772ZM1463.65 843.772C1474.08 843.772 1480.82 846.152 1485.06 849.747L1495.41 837.547C1487.27 830.643 1476.29 827.772 1463.65 827.772V843.772ZM1485.08 849.767C1489.1 853.151 1491.58 858.303 1491.58 866.569H1507.58C1507.58 854.773 1503.84 844.644 1495.39 837.528L1485.08 849.767ZM1491.58 866.569C1491.58 871.399 1490.3 875.262 1487.93 878.505L1500.83 887.961C1505.4 881.736 1507.58 874.49 1507.58 866.569H1491.58ZM1487.9 878.547C1485.5 881.864 1482.06 884.517 1477.18 886.376L1482.89 901.325C1490.3 898.497 1496.42 894.071 1500.86 887.92L1487.9 878.547ZM1473.04 897.724L1497.08 941.177L1511.08 933.43L1487.04 889.977L1473.04 897.724ZM1496.08 937.304V938.147H1512.08V937.304H1496.08ZM1504.08 930.147H1489.6V946.147H1504.08V930.147ZM1496.65 934.365L1474.43 892.951L1460.33 900.515L1482.55 941.929L1496.65 934.365ZM1443.33 893.694H1464.08V877.694H1443.33V893.694ZM1464.08 893.694C1472.17 893.694 1479.56 891.575 1485.33 886.494L1474.75 874.488C1472.64 876.345 1469.39 877.694 1464.08 877.694V893.694ZM1485.29 886.525C1491.21 881.374 1494.01 874.435 1494.01 866.569H1478.01C1478.01 870.329 1476.84 872.671 1474.78 874.457L1485.29 886.525ZM1494.01 866.569C1494.01 858.561 1491.54 851.289 1485.63 846.035L1475 857.994C1476.69 859.49 1478.01 861.921 1478.01 866.569H1494.01ZM1485.67 846.068C1479.96 840.931 1472.34 838.936 1464.06 838.882L1463.95 854.882C1469.92 854.921 1473.17 856.348 1474.97 857.961L1485.67 846.068ZM1464.01 838.882H1443.33V854.882H1464.01V838.882ZM1435.33 846.882V885.694H1451.33V846.882H1435.33Z" fill="#85C941"/>
</g>
<g id="U">
<path d="M1595.41 838.29V907.9C1595.37 917.556 1592.32 925.454 1586.27 931.595C1580.27 937.736 1572.12 941.181 1561.81 941.931L1558.22 942.072C1547.02 942.072 1538.09 939.048 1531.43 933.001C1524.77 926.954 1521.4 918.634 1521.31 908.04V838.29H1534.66V907.618C1534.66 915.025 1536.7 920.79 1540.78 924.915C1544.86 928.993 1550.67 931.033 1558.22 931.033C1565.86 931.033 1571.7 928.993 1575.73 924.915C1579.81 920.837 1581.84 915.095 1581.84 907.689V838.29H1595.41Z" fill="#ED9A1D"/>
<path d="M1595.41 838.29H1603.41V830.29H1595.41V838.29ZM1595.41 907.9L1603.41 907.939L1603.41 907.919V907.9H1595.41ZM1586.27 931.595L1580.57 925.982L1580.56 925.993L1580.55 926.004L1586.27 931.595ZM1561.81 941.931L1562.12 949.925L1562.25 949.92L1562.39 949.91L1561.81 941.931ZM1558.22 942.072V950.072H1558.38L1558.53 950.065L1558.22 942.072ZM1521.31 908.04H1513.31V908.076L1513.31 908.111L1521.31 908.04ZM1521.31 838.29V830.29H1513.31V838.29H1521.31ZM1534.66 838.29H1542.66V830.29H1534.66V838.29ZM1540.78 924.915L1535.09 930.54L1535.11 930.556L1535.12 930.572L1540.78 924.915ZM1575.73 924.915L1570.07 919.258L1570.05 919.275L1570.04 919.291L1575.73 924.915ZM1581.84 838.29V830.29H1573.84V838.29H1581.84ZM1587.41 838.29V907.9H1603.41V838.29H1587.41ZM1587.41 907.861C1587.38 915.704 1584.97 921.512 1580.57 925.982L1591.97 937.208C1599.67 929.396 1603.36 919.408 1603.41 907.939L1587.41 907.861ZM1580.55 926.004C1576.18 930.475 1570.01 933.313 1561.22 933.952L1562.39 949.91C1574.23 949.049 1584.36 944.997 1592 937.186L1580.55 926.004ZM1561.49 933.937L1557.91 934.078L1558.53 950.065L1562.12 949.925L1561.49 933.937ZM1558.22 934.072C1548.5 934.072 1541.66 931.482 1536.81 927.08L1526.05 938.923C1534.52 946.614 1545.54 950.072 1558.22 950.072V934.072ZM1536.81 927.08C1532.1 922.801 1529.38 916.766 1529.3 907.97L1513.31 908.111C1513.42 920.502 1517.45 931.108 1526.05 938.923L1536.81 927.08ZM1529.31 908.04V838.29H1513.31V908.04H1529.31ZM1521.31 846.29H1534.66V830.29H1521.31V846.29ZM1526.66 838.29V907.618H1542.66V838.29H1526.66ZM1526.66 907.618C1526.66 916.52 1529.15 924.533 1535.09 930.54L1546.47 919.291C1544.25 917.048 1542.66 913.529 1542.66 907.618H1526.66ZM1535.12 930.572C1541.12 936.572 1549.23 939.033 1558.22 939.033V923.033C1552.11 923.033 1548.6 921.415 1546.44 919.258L1535.12 930.572ZM1558.22 939.033C1567.26 939.033 1575.43 936.592 1581.42 930.539L1570.04 919.291C1567.96 921.395 1564.46 923.033 1558.22 923.033V939.033ZM1581.38 930.572C1587.36 924.6 1589.84 916.586 1589.84 907.689H1573.84C1573.84 913.604 1572.25 917.075 1570.07 919.258L1581.38 930.572ZM1589.84 907.689V838.29H1573.84V907.689H1589.84ZM1581.84 846.29H1595.41V830.29H1581.84V846.29Z" fill="#85C941"/>
</g>
<g id="T">
<path d="M1691.26 850.029H1658.35V941.295H1644.92V850.029H1612.08V838.92H1691.26V850.029Z" fill="#ED9A1D"/>
<path d="M1691.26 850.029V858.029H1699.26V850.029H1691.26ZM1658.35 850.029V842.029H1650.35V850.029H1658.35ZM1658.35 941.295V949.295H1666.35V941.295H1658.35ZM1644.92 941.295H1636.92V949.295H1644.92V941.295ZM1644.92 850.029H1652.92V842.029H1644.92V850.029ZM1612.08 850.029H1604.08V858.029H1612.08V850.029ZM1612.08 838.92V830.92H1604.08V838.92H1612.08ZM1691.26 838.92H1699.26V830.92H1691.26V838.92ZM1691.26 842.029H1658.35V858.029H1691.26V842.029ZM1650.35 850.029V941.295H1666.35V850.029H1650.35ZM1658.35 933.295H1644.92V949.295H1658.35V933.295ZM1652.92 941.295V850.029H1636.92V941.295H1652.92ZM1644.92 842.029H1612.08V858.029H1644.92V842.029ZM1620.08 850.029V838.92H1604.08V850.029H1620.08ZM1612.08 846.92H1691.26V830.92H1612.08V846.92ZM1683.26 838.92V850.029H1699.26V838.92H1683.26Z" fill="#85C941"/>
</g>
<g id="A">
<path d="M1754.98 915.206H1712.09L1702.45 941.924H1688.53L1727.63 839.549H1739.44L1778.6 941.924H1764.75L1754.98 915.206ZM1716.17 904.096H1750.97L1733.53 856.213L1716.17 904.096Z" fill="#ED9A1D"/>
<path d="M1754.98 915.206L1762.49 912.457L1760.57 907.206H1754.98V915.206ZM1712.09 915.206V907.206H1706.47L1704.56 912.492L1712.09 915.206ZM1702.45 941.924V949.924H1708.07L1709.98 944.638L1702.45 941.924ZM1688.53 941.924L1681.06 939.07L1676.91 949.924H1688.53V941.924ZM1727.63 839.549V831.549H1722.12L1720.15 836.695L1727.63 839.549ZM1739.44 839.549L1746.91 836.691L1744.94 831.549H1739.44V839.549ZM1778.6 941.924V949.924H1790.23L1786.08 939.066L1778.6 941.924ZM1764.75 941.924L1757.24 944.673L1759.16 949.924H1764.75V941.924ZM1716.17 904.096L1708.65 901.368L1704.75 912.096H1716.17V904.096ZM1750.97 904.096V912.096H1762.4L1758.49 901.359L1750.97 904.096ZM1733.53 856.213L1741.05 853.476L1733.52 832.793L1726.01 853.486L1733.53 856.213ZM1754.98 907.206H1712.09V923.206H1754.98V907.206ZM1704.56 912.492L1694.93 939.211L1709.98 944.638L1719.61 917.919L1704.56 912.492ZM1702.45 933.924H1688.53V949.924H1702.45V933.924ZM1696.01 944.778L1735.1 842.403L1720.15 836.695L1681.06 939.07L1696.01 944.778ZM1727.63 847.549H1739.44V831.549H1727.63V847.549ZM1731.97 842.408L1771.13 944.783L1786.08 939.066L1746.91 836.691L1731.97 842.408ZM1778.6 933.924H1764.75V949.924H1778.6V933.924ZM1772.26 939.176L1762.49 912.457L1747.47 917.954L1757.24 944.673L1772.26 939.176ZM1716.17 912.096H1750.97V896.096H1716.17V912.096ZM1758.49 901.359L1741.05 853.476L1726.02 858.951L1743.45 906.834L1758.49 901.359ZM1726.01 853.486L1708.65 901.368L1723.69 906.824L1741.05 858.941L1726.01 853.486Z" fill="#85C941"/>
</g>
</g>
<path id="pied-d" d="M269 689C280.174 654.075 286.558 634.96 299 605L412.5 632C412.5 632 328.5 777.5 269 793.5C209.5 809.5 153.5 848 153.5 848L174 909.5C174 909.5 169.161 926.128 142 923C114.839 919.872 113.454 916.902 110 909.5C106.546 902.098 90.6399 808.313 110 793.5C129.36 778.687 136.512 793.5 153.5 793.5C192.101 742.634 216.557 718.464 269 689Z" fill="black" stroke="black" stroke-width="6"/>
<path id="pied-g" d="M486.023 687.337C457.656 664.1 442.23 651.133 418.946 628.543L485.801 532.931C485.801 532.931 590.204 664.56 583.197 725.774C576.19 786.988 591.394 853.223 591.394 853.223L649.5 863.5C649.5 863.5 664.312 874.007 656.906 891.504C649.5 909 632.582 916.295 632.582 916.295C628.781 918.062 531.368 897.079 524.714 873.628C518.061 850.176 534.466 848.974 540.714 833.177C507.612 778.572 494.131 746.941 486.023 687.337Z" fill="black" stroke="black" stroke-width="6"/>
<g id="envelope">
<path id="Vector 3" d="M694.747 298L261 360.769L301.829 646L743 593.846L694.747 298Z" fill="#B7A822"/>
<path id="Vector 7" d="M264 361.5L480 477.5L668.5 309.5" stroke="#765A5A" stroke-width="6"/>
</g>
<g id="envelope5">
<path id="Vector 3_2" d="M694.747 300L261 362.769L301.829 648L743 595.846L694.747 300Z" fill="#B7A822"/>
<path id="Vector 7_2" d="M264 363.5L480 479.5L668.5 311.5" stroke="#765A5A" stroke-width="6"/>
</g>
<g id="envelope4">
<path id="Vector 3_3" d="M707.747 298L274 360.769L314.829 646L756 593.846L707.747 298Z" fill="#B7A822"/>
<path id="Vector 7_3" d="M277 361.5L493 477.5L681.5 309.5" stroke="#765A5A" stroke-width="6"/>
</g>
<g id="envelope3">
<path id="Vector 3_4" d="M697.747 298L264 360.769L304.829 646L746 593.846L697.747 298Z" fill="#B7A822"/>
<path id="Vector 7_4" d="M267 361.5L483 477.5L671.5 309.5" stroke="#765A5A" stroke-width="6"/>
</g>
<g id="envelope2">
<path id="Vector 3_5" d="M694.747 298L261 360.769L301.829 646L743 593.846L694.747 298Z" fill="#B7A822"/>
<path id="Vector 7_5" d="M264 361.5L480 477.5L668.5 309.5" stroke="#765A5A" stroke-width="6"/>
</g>
<g id="corps">
<g id="corps_2">
<path id="Vector 2" d="M411.186 212.262C411.186 212.262 319.37 330.747 312.862 369.805C306.355 408.863 283.912 509.891 283.912 509.891L305.511 518.723L362.804 392.928C362.804 392.928 449.315 267.536 463.232 238.079C477.149 208.621 454.972 182.963 411.186 212.262Z" fill="#399569"/>
<path id="Vector 5" d="M523.793 320.24C492.18 299.181 477.637 279.288 462.59 216.119L369.395 349.982L523.793 320.24Z" fill="#399569" stroke="#399569" stroke-width="6"/>
</g>
</g>
<path id="main-g" d="M678.454 275.039C664.753 283.388 645.5 303 645.5 303C674.649 303.756 683.979 314.262 691.467 333.5C700.571 332.614 708.389 328.629 707.972 317.692C701.834 302.863 700.002 295.673 681.014 296.024L690.06 282.5C692.045 283.31 692.156 266.69 678.454 275.039Z" fill="#5A2E2E" stroke="#5A2E2E" stroke-width="6"/>
<path id="main-d" d="M310.572 509.169C300.733 504.692 292.49 516.889 284.137 509.169C255.466 526.547 257.701 576 284.137 588.5C310.572 601 283.735 540.162 297.611 547.661L302.29 566.617C308.202 567.99 310.344 567.018 312.5 562.814C316.225 550.45 319.109 524.117 310.572 509.169Z" fill="#5A2E2E"/>
<g id="tete">
<g id="tete_2">
<ellipse id="Ellipse 1" cx="444" cy="106.5" rx="69" ry="71.5" fill="#5A2E2E"/>
<path id="Vector 1" d="M461 172C445.458 174.719 436.068 175.338 416 172C422.957 185.855 422.563 194.231 416 210H461C457.227 197.574 454.599 190.934 461 172Z" fill="#5A2E2E" stroke="#5A2E2E" stroke-width="6"/>
</g>
<path id="Vector 10" d="M346 102.564C351.168 108.24 379.956 155 389.478 134C399 113 400.5 80.0228 500.5 72C517.165 67.5335 519.922 25.8933 498 22C476.078 18.1067 415.13 16.8306 389.478 35.6103C363.826 54.3901 340.832 96.8884 346 102.564Z" fill="black" stroke="black" stroke-width="6"/>
</g>
<path id="terre" d="M1922 909H0V956H1922V909Z" fill="black" stroke="black" stroke-width="6"/>
<g id="Group2">
<g id="Group 1">
<path id="Vector 12" d="M1414.76 911.254C1436.88 862.869 1439.33 825.756 1432.41 748.239C1460.98 805.585 1470.54 840.929 1472.88 911.254H1414.76Z" fill="black" stroke="black" stroke-width="6"/>
<path id="Vector 14" d="M1373.24 934C1395.36 885.616 1397.81 848.503 1390.89 770.985C1419.46 828.332 1429.03 863.675 1431.36 934H1373.24Z" fill="black" stroke="black" stroke-width="6"/>
<path id="Vector 15" d="M1325.8 920.1C1347.92 871.715 1350.37 834.602 1343.45 757.085C1372.02 814.431 1381.58 849.775 1383.92 920.1H1325.8Z" fill="black" stroke="black" stroke-width="6"/>
<path id="Vector 13" d="M1472.88 911.254C1495 846.741 1497.45 797.257 1490.53 693.901C1519.1 770.362 1528.66 817.487 1531 911.254H1472.88Z" fill="black" stroke="black" stroke-width="6"/>
<path id="Vector 16" d="M1262.65 933.368C1247.45 834.188 1264.26 778.788 1297.04 680C1295.52 819.86 1300.66 888.155 1355.17 933.368H1262.65Z" fill="black" stroke="black" stroke-width="6"/>
<path id="Vector 17" d="M1364.94 888.507C1387.06 840.123 1389.51 803.01 1382.59 725.493C1411.16 782.839 1420.73 818.183 1423.06 888.507H1364.94Z" fill="black" stroke="black" stroke-width="6"/>
</g>
</g>
<g id="Group7">
<g id="Group 1_2">
<path id="Vector 12_2" d="M947.667 904.015C957.436 889.157 958.517 877.76 955.461 853.955C968.079 871.566 972.302 882.419 973.333 904.015H947.667Z" fill="black" stroke="black" stroke-width="6"/>
<path id="Vector 14_2" d="M929.333 911C939.103 896.142 940.184 884.745 937.127 860.94C949.745 878.551 953.969 889.404 955 911H929.333Z" fill="black" stroke="black" stroke-width="6"/>
<path id="Vector 15_2" d="M908.381 906.731C918.15 891.873 919.231 880.476 916.175 856.672C928.793 874.282 933.016 885.136 934.048 906.731H908.381Z" fill="black" stroke="black" stroke-width="6"/>
<path id="Vector 13_2" d="M973.333 904.015C983.103 884.204 984.184 869.008 981.127 837.269C993.745 860.749 997.969 875.221 999 904.015H973.333Z" fill="black" stroke="black" stroke-width="6"/>
<path id="Vector 16_2" d="M880.494 910.806C873.784 880.349 881.205 863.337 895.684 833C895.012 875.949 897.281 896.922 921.351 910.806H880.494Z" fill="black" stroke="black" stroke-width="6"/>
<path id="Vector 17_2" d="M925.667 897.03C935.436 882.172 936.517 870.775 933.461 846.97C946.079 864.58 950.302 875.434 951.333 897.03H925.667Z" fill="black" stroke="black" stroke-width="6"/>
</g>
</g>
<g id="Group10">
<g id="Group 1_3">
<path id="Vector 12_3" d="M498.667 914.015C508.436 899.157 509.517 887.76 506.461 863.955C519.079 881.566 523.302 892.419 524.333 914.015H498.667Z" fill="black" stroke="black" stroke-width="6"/>
<path id="Vector 14_3" d="M480.333 921C490.103 906.142 491.184 894.745 488.127 870.94C500.745 888.551 504.969 899.404 506 921H480.333Z" fill="black" stroke="black" stroke-width="6"/>
<path id="Vector 15_3" d="M459.381 916.731C469.15 901.873 470.231 890.476 467.175 866.672C479.793 884.282 484.016 895.136 485.048 916.731H459.381Z" fill="black" stroke="black" stroke-width="6"/>
<path id="Vector 13_3" d="M524.333 914.015C534.103 894.204 535.184 879.008 532.127 847.269C544.745 870.749 548.969 885.221 550 914.015H524.333Z" fill="black" stroke="black" stroke-width="6"/>
<path id="Vector 16_3" d="M431.494 920.806C424.784 890.349 432.205 873.337 446.684 843C446.012 885.949 448.281 906.922 472.351 920.806H431.494Z" fill="black" stroke="black" stroke-width="6"/>
<path id="Vector 17_3" d="M476.667 907.03C486.436 892.172 487.517 880.775 484.461 856.97C497.079 874.58 501.302 885.434 502.333 907.03H476.667Z" fill="black" stroke="black" stroke-width="6"/>
</g>
</g>
<g id="Group9">
<g id="Group 1_4">
<path id="Vector 12_4" d="M746.667 911.015C756.436 896.157 757.517 884.76 754.461 860.955C767.079 878.566 771.302 889.419 772.333 911.015H746.667Z" fill="black" stroke="black" stroke-width="6"/>
<path id="Vector 14_4" d="M728.333 918C738.103 903.142 739.184 891.745 736.127 867.94C748.745 885.551 752.969 896.404 754 918H728.333Z" fill="black" stroke="black" stroke-width="6"/>
<path id="Vector 15_4" d="M707.381 913.731C717.15 898.873 718.231 887.476 715.175 863.672C727.793 881.282 732.016 892.136 733.048 913.731H707.381Z" fill="black" stroke="black" stroke-width="6"/>
<path id="Vector 13_4" d="M772.333 911.015C782.103 891.204 783.184 876.008 780.127 844.269C792.745 867.749 796.969 882.221 798 911.015H772.333Z" fill="black" stroke="black" stroke-width="6"/>
<path id="Vector 16_4" d="M679.494 917.806C672.784 887.349 680.205 870.337 694.684 840C694.012 882.949 696.281 903.922 720.351 917.806H679.494Z" fill="black" stroke="black" stroke-width="6"/>
<path id="Vector 17_4" d="M724.667 904.03C734.436 889.172 735.517 877.775 732.461 853.97C745.079 871.58 749.302 882.434 750.333 904.03H724.667Z" fill="black" stroke="black" stroke-width="6"/>
</g>
</g>
<g id="Group8">
<g id="Group 1_5">
<path id="Vector 12_5" d="M856.667 903.015C866.436 888.157 867.517 876.76 864.461 852.955C877.079 870.566 881.302 881.419 882.333 903.015H856.667Z" fill="black" stroke="black" stroke-width="6"/>
<path id="Vector 14_5" d="M838.333 910C848.103 895.142 849.184 883.745 846.127 859.94C858.745 877.551 862.969 888.404 864 910H838.333Z" fill="black" stroke="black" stroke-width="6"/>
<path id="Vector 15_5" d="M817.381 905.731C827.15 890.873 828.231 879.476 825.175 855.672C837.793 873.282 842.016 884.136 843.048 905.731H817.381Z" fill="black" stroke="black" stroke-width="6"/>
<path id="Vector 13_5" d="M882.333 903.015C892.103 883.204 893.184 868.008 890.127 836.269C902.745 859.749 906.969 874.221 908 903.015H882.333Z" fill="black" stroke="black" stroke-width="6"/>
<path id="Vector 16_5" d="M789.494 909.806C782.784 879.349 790.205 862.337 804.684 832C804.012 874.949 806.281 895.922 830.351 909.806H789.494Z" fill="black" stroke="black" stroke-width="6"/>
<path id="Vector 17_5" d="M834.667 896.03C844.436 881.172 845.517 869.775 842.461 845.97C855.079 863.58 859.302 874.434 860.333 896.03H834.667Z" fill="black" stroke="black" stroke-width="6"/>
</g>
</g>
<g id="Group6">
<g id="Group 1_6">
<path id="Vector 12_6" d="M1053.42 917.194C1064 889.954 1065.17 869.06 1061.86 825.418C1075.52 857.704 1080.1 877.602 1081.21 917.194H1053.42Z" fill="black" stroke="black" stroke-width="6"/>
<path id="Vector 14_6" d="M1033.58 930C1044.15 902.76 1045.32 881.866 1042.01 838.224C1055.67 870.509 1060.25 890.408 1061.36 930H1033.58Z" fill="black" stroke="black" stroke-width="6"/>
<path id="Vector 15_6" d="M1010.89 922.174C1021.47 894.934 1022.64 874.04 1019.33 830.398C1032.99 862.684 1037.56 882.582 1038.68 922.174H1010.89Z" fill="black" stroke="black" stroke-width="6"/>
<path id="Vector 13_6" d="M1081.21 917.194C1091.79 880.874 1092.96 853.015 1089.65 794.826C1103.31 837.873 1107.88 864.404 1109 917.194H1081.21Z" fill="black" stroke="black" stroke-width="6"/>
<path id="Vector 16_6" d="M980.7 929.644C973.436 873.807 981.47 842.617 997.146 787C996.418 865.74 998.874 904.19 1024.93 929.644H980.7Z" fill="black" stroke="black" stroke-width="6"/>
<path id="Vector 17_6" d="M1029.61 904.388C1040.18 877.148 1041.35 856.254 1038.04 812.612C1051.71 844.898 1056.28 864.796 1057.39 904.388H1029.61Z" fill="black" stroke="black" stroke-width="6"/>
</g>
</g>
<g id="Group5">
<g id="Group 1_7">
<path id="Vector 12_7" d="M1788.88 918.881C1813.26 871.83 1815.96 835.74 1808.33 760.358C1839.82 816.124 1850.37 850.494 1852.94 918.881H1788.88Z" fill="black" stroke="black" stroke-width="6"/>
<path id="Vector 14_7" d="M1743.12 941C1767.5 893.949 1770.2 857.859 1762.57 782.478C1794.07 838.244 1804.61 872.613 1807.18 941H1743.12Z" fill="black" stroke="black" stroke-width="6"/>
<path id="Vector 15_7" d="M1690.83 927.483C1715.21 880.432 1717.91 844.342 1710.28 768.96C1741.77 824.726 1752.31 859.096 1754.89 927.483H1690.83Z" fill="black" stroke="black" stroke-width="6"/>
<path id="Vector 13_7" d="M1852.94 918.881C1877.32 856.146 1880.02 808.026 1872.39 707.517C1903.89 781.872 1914.43 827.698 1917 918.881H1852.94Z" fill="black" stroke="black" stroke-width="6"/>
<path id="Vector 16_7" d="M1621.22 940.386C1604.48 843.939 1623 790.066 1659.14 694C1657.46 830.006 1663.12 896.419 1723.2 940.386H1621.22Z" fill="black" stroke="black" stroke-width="6"/>
<path id="Vector 17_7" d="M1733.97 896.761C1758.35 849.71 1761.05 813.62 1753.42 738.239C1784.92 794.005 1795.46 828.374 1798.03 896.761H1733.97Z" fill="black" stroke="black" stroke-width="6"/>
</g>
</g>
<g id="Group 1_8">
<path id="f12" d="M1176.67 909.91C1207.75 858.669 1211.19 819.364 1201.47 737.269C1241.61 798.002 1255.05 835.433 1258.33 909.91H1176.67Z" fill="black" stroke="black" stroke-width="6"/>
<path id="f11" d="M1118.33 934C1149.42 882.758 1152.86 843.454 1143.13 761.358C1183.28 822.091 1196.72 859.522 1200 934H1118.33Z" fill="black" stroke="black" stroke-width="6"/>
<path id="f10" d="M1051.67 919.279C1082.75 868.037 1086.19 828.732 1076.47 746.637C1116.61 807.37 1130.05 844.801 1133.33 919.279H1051.67Z" fill="black" stroke="black" stroke-width="6"/>
<path id="f9" d="M1258.33 909.91C1289.42 841.588 1292.86 789.182 1283.13 679.721C1323.28 760.699 1336.72 810.607 1340 909.91H1258.33Z" fill="black" stroke="black" stroke-width="6"/>
<path id="f8" d="M962.934 933.331C941.586 828.294 965.197 769.622 1011.27 665C1009.13 813.119 1016.35 885.448 1092.93 933.331H962.934Z" fill="black" stroke="black" stroke-width="6"/>
<path id="f7" d="M1106.67 885.821C1137.75 834.579 1141.19 795.275 1131.47 713.179C1171.61 773.912 1185.05 811.343 1188.33 885.821H1106.67Z" fill="black" stroke="black" stroke-width="6"/>
</g>
<g id="Group 11">
<g id="Group 1_9">
<path id="Vector 12_8" d="M374 936.955C392.651 904.953 394.715 880.406 388.88 829.134C412.969 867.064 421.031 890.441 423 936.955H374Z" fill="black" stroke="black" stroke-width="6"/>
<path id="Vector 14_8" d="M339 952C357.651 919.998 359.715 895.451 353.88 844.179C377.969 882.109 386.031 905.486 388 952H339Z" fill="black" stroke="black" stroke-width="6"/>
<path id="Vector 15_8" d="M299 942.806C317.651 910.804 319.715 886.257 313.88 834.985C337.969 872.915 346.031 896.292 348 942.806H299Z" fill="black" stroke="black" stroke-width="6"/>
<path id="Vector 13_8" d="M423 936.955C441.651 894.286 443.715 861.556 437.88 793.194C461.969 843.767 470.031 874.936 472 936.955H423Z" fill="black" stroke="black" stroke-width="6"/>
<path id="Vector 16_8" d="M245.761 951.582C232.952 885.983 247.118 849.34 274.761 784C273.478 876.506 277.809 921.678 323.761 951.582H245.761Z" fill="black" stroke="black" stroke-width="6"/>
<path id="Vector 17_8" d="M332 921.91C350.651 889.908 352.715 865.361 346.88 814.09C370.969 852.019 379.031 875.396 381 921.91H332Z" fill="black" stroke="black" stroke-width="6"/>
</g>
</g>
<g id="Group 1_10">
<path id="f6" d="M1600.85 906.269C1624.67 855.789 1627.3 817.069 1619.85 736.194C1650.61 796.024 1660.91 832.898 1663.42 906.269H1600.85Z" fill="black" stroke="black" stroke-width="6"/>
<path id="f5" d="M1556.15 930C1579.97 879.52 1582.61 840.8 1575.15 759.925C1605.92 819.755 1616.21 856.63 1618.73 930H1556.15Z" fill="black" stroke="black" stroke-width="6"/>
<path id="f4" d="M1505.07 915.497C1528.89 865.018 1531.52 826.298 1524.07 745.423C1554.83 805.253 1565.13 842.127 1567.65 915.497H1505.07Z" fill="black" stroke="black" stroke-width="6"/>
<path id="f3" d="M1663.42 906.269C1687.24 838.962 1689.88 787.335 1682.43 679.502C1713.19 759.276 1723.49 808.441 1726 906.269H1663.42Z" fill="black" stroke="black" stroke-width="6"/>
<path id="f2" d="M1437.08 929.341C1420.72 825.866 1438.81 768.067 1474.11 665C1472.48 810.917 1478.01 882.17 1536.69 929.341H1437.08Z" fill="black" stroke="black" stroke-width="6"/>
<path id="f1" d="M1547.21 882.537C1571.03 832.058 1573.67 793.337 1566.21 712.463C1596.98 772.293 1607.27 809.167 1609.79 882.537H1547.21Z" fill="black" stroke="black" stroke-width="6"/>
</g>
<g id="oiseau">
<path id="Vector 18" d="M1585 900.389C1598.84 892.858 1602.91 890.424 1608.56 901.028C1616.8 891.109 1616.62 893.764 1629.76 906.418" stroke="black" stroke-width="6"/>
<path id="Vector 19" d="M1641 900.389C1654.84 892.858 1658.91 890.424 1664.56 901.028C1672.8 891.109 1672.62 893.764 1685.76 906.418" stroke="black" stroke-width="6"/>
<path id="Vector 20" d="M1585 931.389C1598.84 923.858 1602.91 921.424 1608.56 932.028C1616.8 922.109 1616.62 924.764 1629.76 937.418" stroke="black" stroke-width="6"/>
<path id="Vector 21" d="M1585 870.389C1598.84 862.858 1602.91 860.424 1608.56 871.028C1616.8 861.109 1616.62 863.764 1629.76 876.418" stroke="black" stroke-width="6"/>
<path id="Vector 22" d="M1531 900.389C1544.84 892.858 1548.91 890.424 1554.56 901.028C1562.8 891.109 1562.62 893.764 1575.76 906.418" stroke="black" stroke-width="6"/>
<path id="Vector 23" d="M1639 922.389C1652.84 914.858 1656.91 912.424 1662.56 923.028C1670.8 913.109 1670.62 915.764 1683.76 928.418" stroke="black" stroke-width="6"/>
<path id="Vector 24" d="M1529 923.389C1542.84 915.858 1546.91 913.424 1552.56 924.028C1560.8 914.109 1560.62 916.764 1573.76 929.418" stroke="black" stroke-width="6"/>
</g>
</g>
<defs>
<clipPath id="clip0_0_1">
<rect width="1920" height="960" fill="white"/>
</clipPath>
</defs>
</svg>
