<svg width="128" height="128" viewBox="0 0 128 128" fill="none" xmlns="http://www.w3.org/2000/svg">
<style>

  #blon, #blon2, #blon3, #blon4, #cercle {
      animation: fix 2s infinite linear;
      transform-origin:center;
      transform-box: fill-box;
  }

  @keyframes fix {
      from {
          transform: rotate(0deg);
      }
      to {
          transform: rotate(10deg);
      }
  }
  #cle {
      animation: fixe 2s infinite linear;
      transform-origin:bottom;
      transform-box: fill-box;
  }

  @keyframes fixe {
      0% {
          transform: rotate(0deg);
      }
      50% {
          transform: rotate(5deg);
      }
      100% {
          transform: rotate( 0deg);
      }
      
  }

</style>

<g id="Plugin icon - 1" clip-path="url(#clip0_0_1)">
<g id="cle">
<path id="Vector 2" d="M23 25C23 25 42.0952 26 36.5 42.5" stroke="black" stroke-width="3"/>
<path id="Vector 3" d="M27 51C27 51 8 50.5 14 33.5" stroke="black" stroke-width="3"/>
<path id="Vector 4" d="M22.6 24.7867L27.9444 30.3999" stroke="black" stroke-width="3"/>
<path id="Vector 7" d="M19.2636 38.8364L26.9754 37.5135" stroke="black" stroke-width="3"/>
<path id="Vector 6" d="M27.9209 30L26.6499 37.7941" stroke="black" stroke-width="3"/>
<path id="Vector 5" d="M13.9001 33.8775L19.72 39" stroke="black" stroke-width="3"/>
<path id="Vector 2_2" d="M66.5 100C66.5 100 48.2906 100.5 52.016 82.5" stroke="black" stroke-width="3"/>
<path id="Vector 3_2" d="M61.6753 72.9889C61.6753 72.9889 78.0037 73.5981 75.5 90" stroke="black" stroke-width="3"/>
<path id="Vector 4_2" d="M66.7351 100.254L60.5 94" stroke="black" stroke-width="3"/>
<path id="Vector 7_2" d="M69.8904 85.4928L61.7074 86.8264" stroke="black" stroke-width="3"/>
<path id="Vector 6_2" d="M60.7126 94.3489L62.0525 86.5452" stroke="black" stroke-width="3"/>
<path id="Vector 5_2" d="M75.5885 90.4502L69.4059 85.3295" stroke="black" stroke-width="3"/>
<path id="Vector 8" d="M36.4567 42C36.4567 42 59.5253 70.0155 62 73" stroke="black" stroke-width="3"/>
<path id="Vector 9" d="M26.5 51C26.5 51 49.52 79.9192 52 83" stroke="black" stroke-width="3"/>
</g>
<g id="blon">
<circle id="cercle" cx="82" cy="103" r="3.5" stroke="black" stroke-width="3"/>
<path id="blon_2" d="M68.5093 106.5L68.5093 101.61L64.0814 95.2783L67.8756 88.0138L73.8741 90.8604L77.4647 89.2405L78.6475 83.1542L86.931 84.9699L88.0537 90.9417L90.747 93.4284L95.9697 91.0722L99.4388 98.7618L96.083 103.515L96.2059 109.012L100.766 113.896L95.4725 120.449L90.9531 117.397L87 120" stroke="black" stroke-width="3"/>
<path id="Vector 10" d="M68.7447 106L65 110.343L67.3404 117.4H73.4255L76.7021 119.571L78.5745 125H84.6596L87 119.571" stroke="black" stroke-width="3"/>
</g>
<g id="blon4">
<g id="cercle_2">
<mask id="path-18-inside-1_0_1" fill="white">
<ellipse cx="80.2861" cy="36.6294" rx="2.20145" ry="1.99216" transform="rotate(-56.735 80.2861 36.6294)"/>
</mask>
<path d="M79.8481 37.2971C79.5292 37.0879 79.3881 36.7835 79.3537 36.5635C79.3204 36.35 79.374 36.1824 79.4434 36.0766L84.4603 39.3677C85.8774 37.2073 85.6744 33.9434 83.1391 32.2803L79.8481 37.2971ZM79.4434 36.0766C79.5128 35.9708 79.6451 35.8549 79.8543 35.8004C80.0698 35.7443 80.4052 35.7525 80.7241 35.9617L77.433 40.9786C79.9682 42.6417 83.0431 41.528 84.4603 39.3677L79.4434 36.0766ZM80.7241 35.9617C81.043 36.1709 81.1841 36.4753 81.2185 36.6953C81.2518 36.9089 81.1982 37.0765 81.1288 37.1822L76.1119 33.8912C74.6948 36.0515 74.8978 39.3155 77.433 40.9786L80.7241 35.9617ZM81.1288 37.1822C81.0594 37.288 80.927 37.4039 80.7179 37.4584C80.5024 37.5145 80.167 37.5063 79.8481 37.2971L83.1391 32.2803C80.6039 30.6172 77.5291 31.7308 76.1119 33.8912L81.1288 37.1822Z" fill="black" mask="url(#path-18-inside-1_0_1)"/>
</g>
<path id="blon_3" d="M78.194 42.3609L76.5649 41.2921L73.3862 41.5385L71.8824 38.5541L74.2794 36.9679L74.6069 35.292L72.8649 33.5264L75.4703 30.8737L77.7309 31.7655L79.2098 31.3175L79.6862 28.8798L83.0857 29.2832L83.8587 31.5573L85.7198 32.7135L88.4481 32.1019L89.3527 35.4829L87.2447 36.4798L87.1571 38.5039" stroke="black" stroke-width="3"/>
<path id="Vector 10_2" d="M78.0843 42.1649L78.6268 44.4926L81.543 45.1733L83.0126 42.9331L84.5273 42.2014L86.788 42.6985L88.2576 40.4583L87.0143 38.4103" stroke="black" stroke-width="3"/>
</g>
<g id="blon3">
<g id="blon_4">
<g id="cercle_3">
<mask id="path-22-inside-2_0_1" fill="white">
<ellipse cx="82.8529" cy="55.012" rx="2.97195" ry="2.4902" transform="rotate(13.8646 82.8529 55.012)"/>
</mask>
<path d="M82.8257 55.0053C82.8615 54.8603 82.9303 54.7398 83.0031 54.655C83.0723 54.5745 83.1314 54.5408 83.1516 54.5309C83.185 54.5146 83.1217 54.5533 82.9751 54.5171L81.5373 60.3422C84.2357 61.0083 87.8104 59.8481 88.6509 56.4431L82.8257 55.0053ZM82.9751 54.5171C82.8284 54.4809 82.7904 54.4172 82.8123 54.4472C82.8256 54.4654 82.8623 54.5226 82.8861 54.6261C82.9111 54.7351 82.9159 54.8738 82.8801 55.0187L77.0549 53.581C76.2145 56.9861 78.8389 59.6762 81.5373 60.3422L82.9751 54.5171ZM82.8801 55.0187C82.8443 55.1637 82.7755 55.2842 82.7027 55.369C82.6335 55.4496 82.5744 55.4832 82.5542 55.4931C82.5208 55.5094 82.5841 55.4708 82.7307 55.507L84.1685 49.6818C81.4701 49.0158 77.8954 50.1759 77.0549 53.581L82.8801 55.0187ZM82.7307 55.507C82.8774 55.5432 82.9154 55.6068 82.8935 55.5768C82.8802 55.5586 82.8435 55.5014 82.8197 55.3979C82.7947 55.289 82.7899 55.1503 82.8257 55.0053L88.6509 56.4431C89.4913 53.038 86.8669 50.3478 84.1685 49.6818L82.7307 55.507Z" fill="black" mask="url(#path-22-inside-2_0_1)"/>
</g>
<path id="blon_5" d="M74.6501 54.7828L75.2337 52.4183L73.4341 48.7261L76.4906 45.754L79.6125 47.9848L81.8778 47.7129L83.2868 44.9385L87.8502 46.9963L87.7854 50.0437L89.0429 51.6297L92.338 51.2343L93.4222 55.4466L90.9184 57.2668L90.3333 59.9424L92.3821 62.9533L88.5451 65.3678L86.3013 63.2488L83.7094 63.9442" stroke="black" stroke-width="3"/>
<path id="Vector 10_3" d="M74.8456 54.5746L72.1663 56.1411L72.6747 59.8868L76.1862 60.7535L77.8179 62.2702L78.2505 65.1617L81.7621 66.0285L83.7606 63.7369" stroke="black" stroke-width="3"/>
</g>
</g>
<g id="blon2">
<circle id="cercle_4" cx="103.145" cy="72.2166" r="3.5" transform="rotate(34.2298 103.145 72.2166)" stroke="black" stroke-width="3"/>
<path id="blon_6" d="M90.0226 67.5217L92.7734 63.4785L92.6741 55.753L99.8974 51.8811L103.256 57.6088L107.136 58.2893L111.537 53.9225L117.364 60.0834L114.933 65.6522L115.761 69.2233L121.405 70.2131L119.948 78.5221L114.499 80.5642L111.509 85.1784L112.532 91.7814L104.469 94.2213L102.449 89.1565L97.7165 89.0846" stroke="black" stroke-width="3"/>
<path id="Vector 10_4" d="M90.4985 67.2407L84.9595 68.7249L82.9248 75.8762L87.9559 79.2991L89.4435 82.9376L87.9379 88.4791L92.9689 91.902L97.9576 88.7303" stroke="black" stroke-width="3"/>
</g>
</g>
<defs>
<clipPath id="clip0_0_1">
<rect width="128" height="128" fill="white"/>
</clipPath>
</defs>
</svg>
