<svg width="1154" height="846" viewBox="0 0 1154 846" fill="none" xmlns="http://www.w3.org/2000/svg">
<style>
      #enveloppe {
    animation: leter 10s 10s infinite linear;
    transform-origin:center;
    
}

@keyframes leter {
    0% {
        transform: translate(0px);
    }
    50% {
        transform: translate(1000px);
    }
    100% {
        transform: translate(0px);
    }
}

      #fleche {
    animation: lete  3s ;
    transform-origin:center;
    
}

@keyframes lete {
    0% {
        transform: translate(0px);
    }
    50% {
        transform: translate(1000px);
    }
    100% {
        transform: translate(0px);
    }
}

      #tete, #corps, #epaule-d, #bras-d, #cou, #bras-g, #jupe, #pied-g, #pied-d, #shots-g, #shots-d {
    animation: let 10s 20s infinite linear;
    transform-origin:center;
    
}

@keyframes let {
    0% {
        transform: translate(0px);
    }
    50% {
        transform: translate(-50px);
    }
    100% {
        transform: translate(0px);
    }
}
</style>
<g id="draw 1" clip-path="url(#clip0_0_1)">
<path id="losange" opacity="0.1" d="M1146.38 386.99L1016.44 687.62L971.98 790.47C957.54 823.86 923.41 845.65 885.52 845.65H267.92C230.03 845.65 195.92 823.86 181.46 790.47L175.26 776.12L7.06 386.99C-10.83 345.59 6.27 297.99 47.06 275.69L87.86 253.41L111.2 240.66L228.22 176.74L262.3 158.12L306.24 134.12L356.31 106.77L392.05 87.26L479.05 39.72L499.01 28.84L529.39 12.24L530.24 11.79C544.514 4.04073 560.498 -0.0183716 576.74 -0.0183716C592.982 -0.0183716 608.966 4.04073 623.24 11.79L777.72 96.2L827.3 123.29L878.18 151.08L913.47 170.35L995.14 214.94L1060.54 250.67L1106.34 275.67C1147.17 297.96 1164.27 345.59 1146.38 386.99Z" fill="#6C63FF"/>
<path id="f5" opacity="0.1" d="M320.62 137.45C316.87 136.55 311.87 135.45 306.24 134.13L356.31 106.78C384.12 113.86 410.87 119.06 426.8 118.11C426.8 118.11 431.58 126.83 418.06 126.83C404.54 126.83 417.65 138.97 409.3 139.73C400.95 140.49 394.19 145.41 387.43 139.73C380.67 134.05 376.3 131.01 367.95 132.14C359.6 133.27 348.06 139.34 344.08 132.14C340.1 124.94 342.89 142.75 320.62 137.45Z" fill="#6C63FF"/>
<path id="f4" opacity="0.1" d="M725.52 103.15C737.9 103.88 756.86 100.9 777.76 96.15L827.34 123.24C809.79 125.35 811.93 110.44 808.24 117.13C804.24 124.33 792.72 118.26 784.37 117.13C776.02 116 771.65 119.02 764.89 124.72C758.13 130.42 751.37 125.47 743.02 124.72C734.67 123.97 747.78 111.82 734.26 111.82C720.74 111.82 725.52 103.15 725.52 103.15Z" fill="#6C63FF"/>
<path id="allplante" opacity="0.1" d="M1073.87 368.36C1087.39 368.36 1082.62 359.63 1082.62 359.63C1045.72 361.84 950.53 330.94 919.09 320.32L915.72 229.63C932.81 240.91 958.57 245.63 970.83 248.63C993.1 253.93 990.32 236.11 994.29 243.32C998.26 250.53 1009.8 244.45 1018.16 243.32C1026.52 242.19 1030.88 245.21 1037.64 250.9C1044.4 256.59 1051.16 251.65 1059.51 250.9C1059.88 250.875 1060.24 250.812 1060.6 250.71L995.2 214.98C962.7 206.24 930.57 195.74 914.27 190.23L913.53 170.39L878.24 151.12L879.03 193.32C840.85 205.93 759.11 231.32 725.53 229.32C725.53 229.32 720.75 238.04 734.27 238.04C747.79 238.04 734.68 250.18 743.03 250.94C751.38 251.7 758.14 256.63 764.9 250.94C771.66 245.25 776.03 242.22 784.38 243.36C792.73 244.5 804.27 250.56 808.25 243.36C812.23 236.16 809.44 253.97 831.71 248.67C842.39 246.12 863.28 242.18 879.8 233.76L881.43 321.07C848.13 332.27 756.09 361.86 719.92 359.7C719.92 359.7 715.15 368.43 728.67 368.43C742.19 368.43 729.07 380.57 737.42 381.32C745.77 382.07 752.53 387.01 759.29 381.32C766.05 375.63 770.43 372.6 778.78 373.74C787.13 374.88 798.66 380.94 802.64 373.74C806.62 366.54 803.83 384.35 826.11 379.05C838.6 376.05 865.11 371.18 882.11 359.45L883.86 452.45C848.25 464.33 760.58 492.13 725.48 490.04C725.48 490.04 720.7 498.76 734.22 498.76C747.74 498.76 734.72 510.84 743.02 511.64C751.32 512.44 758.13 517.32 764.89 511.64C771.65 505.96 776.02 502.91 784.37 504.05C792.72 505.19 804.26 511.25 808.24 504.05C812.22 496.85 809.43 514.66 831.7 509.36C843.45 506.56 867.6 502.06 884.64 491.76L888.51 696.98C848.28 710.09 809.58 728.64 767.51 734.31C697.25 743.78 625.51 716.31 555.56 717.01L550.04 568.52C566.04 575.99 585.2 579.63 595.26 582.03C617.54 587.33 614.76 569.52 618.73 576.72C622.7 583.92 634.24 577.85 642.59 576.72C650.94 575.59 655.32 578.61 662.08 584.31C668.84 590.01 675.6 585.06 683.95 584.31C692.3 583.56 679.19 571.41 692.71 571.41C706.23 571.41 701.45 562.69 701.45 562.69C668.03 564.69 586.91 539.56 548.45 526.9L544.93 432.16C562.02 443.82 588.38 448.68 600.83 451.65C623.1 456.95 620.32 439.14 624.29 446.34C628.26 453.54 639.81 447.47 648.16 446.34C656.51 445.21 660.88 448.23 667.64 453.93C674.4 459.63 681.16 454.67 689.52 453.93C697.88 453.19 684.75 441.03 698.27 441.03C711.79 441.03 707.01 432.31 707.01 432.31C670.09 434.51 574.93 403.61 543.49 392.99L540.11 302.3C557.21 313.58 582.97 318.3 595.22 321.3C617.5 326.6 614.72 308.78 618.69 315.99C622.66 323.2 634.2 317.12 642.55 315.99C650.9 314.86 655.28 317.88 662.04 323.57C668.8 329.26 675.56 324.32 683.91 323.57C692.26 322.82 679.15 310.68 692.67 310.68C706.19 310.68 701.41 301.96 701.41 301.96C664.82 304.12 570.89 273.72 538.72 262.84L535.36 172.61C552.02 186.49 581.81 191.93 595.28 195.14C617.56 200.44 614.78 182.63 618.75 189.83C622.72 197.03 634.26 190.96 642.61 189.83C650.96 188.7 655.34 191.72 662.1 197.42C668.86 203.12 675.62 198.17 683.97 197.42C692.32 196.67 679.21 184.52 692.73 184.52C706.25 184.52 701.47 175.8 701.47 175.8C662.82 178.11 560.36 144.14 533.97 135.13L531.87 78.38C548.12 86.3 568.11 90.08 578.47 92.55C600.74 97.85 597.96 80.03 601.93 87.24C605.9 94.45 617.45 88.37 625.8 87.24C634.15 86.11 638.52 89.13 645.28 94.82C652.04 100.51 658.8 95.57 667.15 94.82C675.5 94.07 662.39 81.92 675.91 81.92C689.43 81.92 684.65 73.2 684.65 73.2C650.82 75.2 568.14 49.47 530.32 36.96L529.4 12.23L499.01 28.84L499.09 33.08C494.23 34.73 487.36 37.08 479.09 39.72L392.09 87.26C400.44 88.4 411.94 94.44 415.91 87.26C419.88 80.08 417.1 97.87 439.38 92.57C452.98 89.32 483.25 83.8 499.81 69.57L501.15 140.57C462.01 153.46 382.87 177.84 349.96 175.84C349.96 175.84 345.19 184.56 358.71 184.56C372.23 184.56 359.11 196.7 367.46 197.46C375.81 198.22 382.58 203.14 389.34 197.46C396.1 191.78 400.47 188.74 408.82 189.87C417.17 191 428.71 197.07 432.69 189.87C436.67 182.67 433.88 200.48 456.15 195.18C466.32 192.76 485.78 189.06 501.88 181.44L503.47 265.97C465.29 278.58 383.55 303.97 349.96 301.97C349.96 301.97 345.19 310.69 358.71 310.69C372.23 310.69 359.11 322.83 367.46 323.58C375.81 324.33 382.58 329.27 389.34 323.58C396.1 317.89 400.47 314.86 408.82 316C417.17 317.14 428.71 323.2 432.69 316C436.67 308.8 433.88 326.61 456.15 321.31C466.82 318.77 487.72 314.82 504.23 306.4L505.87 393.71C472.56 404.84 380.52 434.46 344.36 432.31C344.36 432.31 339.58 441.03 353.1 441.03C366.62 441.03 353.51 453.17 361.86 453.93C370.21 454.69 376.97 459.61 383.73 453.93C390.49 448.25 394.86 445.21 403.21 446.34C411.56 447.47 423.1 453.54 427.08 446.34C431.06 439.14 428.27 456.95 450.55 451.65C463.03 448.65 489.55 443.78 506.6 432.05L508.35 525.1C472.72 536.99 385.07 564.78 349.96 562.69C349.96 562.69 345.19 571.41 358.71 571.41C372.23 571.41 359.11 583.55 367.46 584.31C375.81 585.07 382.58 589.99 389.34 584.31C396.1 578.63 400.47 575.59 408.82 576.72C417.17 577.85 428.71 583.92 432.69 576.72C436.67 569.52 433.88 587.33 456.15 582.03C467.9 579.23 492.05 574.73 509.09 564.43L512.09 721.72L510.82 722C482.47 728.47 456.22 741.84 427.72 747.39C381.22 756.48 331.34 744.61 284.02 742.73L275.39 510.84C291.39 518.31 310.55 521.95 320.62 524.35C342.89 529.65 340.11 511.84 344.08 519.04C348.05 526.24 359.59 520.17 367.95 519.04C376.31 517.91 380.67 520.93 387.43 526.63C394.19 532.33 400.95 527.38 409.3 526.63C417.65 525.88 404.54 513.73 418.06 513.73C431.58 513.73 426.8 505.01 426.8 505.01C393.38 507.01 312.26 481.88 273.85 469.22L270.33 374.48C287.41 386.14 313.78 391 326.22 393.97C348.5 399.27 345.72 381.46 349.68 388.66C353.64 395.86 365.2 389.79 373.55 388.66C381.9 387.53 386.28 390.55 393.04 396.25C399.8 401.95 406.56 396.99 414.91 396.25C423.26 395.51 410.14 383.35 423.66 383.35C437.18 383.35 432.41 374.63 432.41 374.63C395.48 376.83 300.32 345.93 268.88 335.31L265.5 244.62C282.6 255.91 308.36 260.62 320.62 263.62C342.89 268.92 340.11 251.1 344.08 258.31C348.05 265.52 359.59 259.44 367.95 258.31C376.31 257.18 380.72 260.14 387.43 265.84C394.14 271.54 400.95 266.58 409.3 265.84C417.65 265.1 404.54 252.94 418.06 252.94C431.58 252.94 426.8 244.22 426.8 244.22C390.17 246.41 296.23 216.01 264.05 205.15L262.3 158.15L228.22 176.74L228.81 208.24C200.92 217.46 149.81 233.48 111.17 240.66L87.83 253.41C94.75 255.67 85.45 265.16 92.83 265.84C101.18 266.58 107.94 271.52 114.7 265.84C121.46 260.16 125.83 257.11 134.18 258.25C142.53 259.39 154.07 265.45 158.05 258.25C162.03 251.05 159.24 268.86 181.51 263.56C192.19 261.02 213.08 257.07 229.6 248.65L231.23 335.96C197.93 347.16 105.89 376.76 69.72 374.6C69.72 374.6 64.95 383.32 78.47 383.32C91.99 383.32 78.87 395.46 87.22 396.22C95.57 396.98 102.33 401.9 109.09 396.22C115.85 390.54 120.23 387.5 128.58 388.63C136.93 389.76 148.46 395.83 152.44 388.63C156.42 381.43 153.63 399.24 175.91 393.94C188.4 390.94 214.91 386.07 231.96 374.34L233.72 467.39C198.11 479.28 110.44 507.07 75.34 504.98C75.34 504.98 70.56 513.7 84.08 513.7C97.6 513.7 84.48 525.84 92.84 526.6C101.2 527.36 107.95 532.28 114.71 526.6C121.47 520.92 125.84 517.88 134.19 519.01C142.54 520.14 154.08 526.21 158.06 519.01C162.04 511.81 159.25 529.62 181.52 524.32C193.27 521.52 217.42 517.02 234.46 506.72L238.95 745.12C226.931 747.128 215.258 750.832 204.28 756.12C193.703 761.36 183.936 768.096 175.28 776.12L181.48 790.47C195.92 823.86 230.05 845.65 267.94 845.65H885.52C923.41 845.65 957.52 823.86 971.98 790.47L1016.44 687.62C988.846 681.982 960.459 681.379 932.65 685.84V685.84L925.65 495.84C941.65 503.31 960.81 506.94 970.88 509.35C993.15 514.65 990.37 496.83 994.34 504.04C998.31 511.25 1009.85 505.17 1018.21 504.04C1026.57 502.91 1030.93 505.93 1037.69 511.63C1044.45 517.33 1051.21 512.37 1059.56 511.63C1067.91 510.89 1054.8 498.73 1068.32 498.73C1081.84 498.73 1077.06 490.01 1077.06 490.01C1043.64 492.01 962.52 466.88 924.11 454.22L920.59 359.48C937.67 371.13 964.04 376 976.48 378.97C998.76 384.27 995.98 366.45 999.94 373.66C1003.9 380.87 1015.46 374.79 1023.81 373.66C1032.16 372.53 1036.54 375.55 1043.3 381.24C1050.06 386.93 1056.82 381.99 1065.17 381.24C1073.52 380.49 1060.35 368.36 1073.87 368.36Z" fill="#6C63FF"/>
<path id="f1" d="M897.09 183.97C903.85 228.53 885.09 268.34 885.09 268.34C885.09 268.34 855.32 235.9 848.56 191.34C841.8 146.78 860.61 106.97 860.61 106.97C860.61 106.97 890.33 139.41 897.09 183.97Z" fill="#518744"/>
<path id="f3" d="M1022.79 254.99C1047.32 254.72 1067.35 267.87 1067.35 267.87C1067.35 267.87 1047.61 281.46 1023.08 281.73C998.55 282 978.52 268.84 978.52 268.84C978.52 268.84 998.26 255.25 1022.79 254.99Z" fill="#518744"/>
<path id="f2" d="M953.81 187.25C930.98 212.34 926.15 245.13 926.15 245.13C926.15 245.13 958.33 237.23 981.15 212.13C1003.97 187.03 1008.81 154.25 1008.81 154.25C1008.81 154.25 976.64 162.15 953.81 187.25Z" fill="#518744"/>
<path id="pied-d" d="M174.83 675.97C175.17 684.33 169.83 691.74 164.83 698.4C162.557 701.521 160.502 704.796 158.68 708.2C153.18 718 141.36 722.66 134.96 731.9C133.41 734.14 132.21 736.6 130.86 738.97C126.224 747.12 120.4 754.535 113.58 760.97L102.01 771.81C98.72 774.89 95.36 778.06 93.41 782.13C91.18 786.82 91.06 792.13 91.19 797.38C91.19 797.96 91.19 798.53 91.19 799.1C91.19 799.5 91.19 799.89 91.19 800.29C91.39 806.64 91.68 813.02 93.19 819.17C93.69 821.17 94.31 823.27 93.53 825.17C92.7 827.17 90.53 828.28 88.42 828.98C86.16 829.73 83.68 830.24 81.42 829.45C79.16 828.66 77.6 826.71 76.21 824.79C69.46 815.49 66.72 804.01 62.7 793.24C61.86 791 62.76 788.44 64.24 786.57C65.8462 784.803 67.6139 783.189 69.52 781.75C77.52 774.75 81.21 764.25 84.27 754.11C87.33 743.97 90.27 733.36 97.22 725.4C101.74 720.23 107.67 716.53 112.71 711.87C125.26 700.25 131.53 683.29 134.81 666.49C138.673 665.77 142.63 665.72 146.51 666.34L167.14 669.08C169.37 669.38 171.81 669.79 173.26 671.5C174.257 672.779 174.808 674.349 174.83 675.97V675.97Z" fill="#EFB7B9"/>
<path id="pied-g" d="M262.89 693.01C262.455 696.128 261.353 699.116 259.66 701.77C257.157 705.592 254.326 709.189 251.2 712.52C243.32 721.52 241.99 734.44 236.97 745.33C235.34 748.87 233.32 752.21 231.67 755.73C227.34 764.99 225.75 775.18 224.81 785.42C224.69 786.74 224.58 788.06 224.48 789.37C224.34 791 224.23 792.63 224.11 794.25C223.8 798.54 223.53 803.05 225.34 806.95C226.27 808.95 227.79 810.61 227.85 812.82C224.75 815.82 219.43 815.48 215.85 813.04C212.27 810.6 210.04 806.64 208.23 802.69C204.906 795.449 202.504 787.819 201.08 779.98C200.53 776.98 200.28 773.51 202.41 771.35C203.48 770.27 204.97 769.73 206.17 768.79C208.8 766.73 209.56 763.13 210.17 759.79C212.17 748.457 214.193 737.123 216.24 725.79C216.69 723.018 217.28 720.271 218.01 717.56C219.72 711.57 222.32 704.84 227.24 700.84C227.874 700.253 228.348 699.515 228.619 698.695C228.89 697.875 228.949 696.999 228.79 696.15C228.444 694.46 227.793 692.847 226.87 691.39C223.2 684.83 218.82 678.25 212.22 674.65C219.07 668.917 226.88 664.441 235.29 661.43C236.773 660.741 238.413 660.461 240.04 660.62C240.91 660.815 241.741 661.153 242.5 661.62C247.03 664.16 250.5 668.16 253.82 672.16C258.77 678.18 263.72 685.26 262.89 693.01Z" fill="#EFB7B9"/>
<path id="shots-d" d="M102.36 826.93C100.31 824.991 97.942 823.418 95.36 822.28C94.7774 821.94 94.1302 821.726 93.46 821.65C91.85 821.57 90.64 823.02 89.26 823.86C88.1316 824.466 86.8707 824.783 85.59 824.783C84.3093 824.783 83.0484 824.466 81.92 823.86C79.6784 822.61 77.795 820.806 76.45 818.62C73.51 814.28 72.93 809.95 71.71 805.19L84.53 802.77C86.8653 802.231 89.1184 801.384 91.23 800.25C91.23 799.85 91.23 799.46 91.23 799.06C91.23 798.49 91.23 797.92 91.23 797.34C88.86 798.05 83.83 800.34 82.64 800.65C78.7789 801.529 74.8636 802.15 70.92 802.51C70.31 801.3 69.43 800.25 68.72 799.06C67.2847 796.669 66.3746 794 66.05 791.23C66.0185 790.136 65.8056 789.054 65.42 788.03C65.2125 787.501 64.8338 787.057 64.3444 786.769C63.855 786.481 63.283 786.365 62.72 786.44C62.3043 786.556 61.9142 786.75 61.57 787.01C57.983 789.489 55.2016 792.966 53.57 797.01C51.16 803.01 51.51 809.75 50.57 816.16C49.85 820.96 48.37 825.72 48.63 830.57C48.6114 830.712 48.6234 830.856 48.6653 830.993C48.7072 831.129 48.7779 831.256 48.8726 831.363C48.9674 831.47 49.0841 831.555 49.2147 831.614C49.3454 831.672 49.487 831.701 49.63 831.7C52.3 832.29 55.37 832.8 57.54 831.14C59.71 829.48 60.02 826.34 60.44 823.61C61.004 819.966 62.1096 816.427 63.72 813.11C67.0335 817.167 68.7701 822.284 68.61 827.52C68.61 830.41 68.25 833.69 70.23 835.8C71.2016 836.736 72.3854 837.422 73.68 837.8C76.3113 838.721 79.0446 839.318 81.82 839.58C86.82 840.06 91.91 839.43 96.92 838.8C98.5 838.6 100.09 838.4 101.66 838.05C102.46 837.927 103.219 837.611 103.87 837.13C104.594 836.47 105.055 835.572 105.17 834.6C105.322 833.192 105.148 831.767 104.661 830.437C104.173 829.107 103.386 827.907 102.36 826.93V826.93Z" fill="#ED9A1D"/>
<path id="shots-g" d="M234.64 810.84C233.418 809.733 232.035 808.816 230.54 808.12C229.328 807.37 227.959 806.908 226.54 806.77C224.91 806.77 223.42 807.57 221.91 808.19C220.4 808.81 218.63 809.19 217.21 808.39C216.094 807.569 215.276 806.407 214.88 805.08C213.08 800.78 211.72 796.3 210.15 791.92C210.519 791.339 211.061 790.888 211.7 790.63C212.194 790.49 212.707 790.43 213.22 790.45C215.22 790.45 221.3 790.45 224.53 789.33C224.63 788.02 224.74 786.7 224.86 785.38C222.36 784.86 218.07 785.76 216.94 786.07C215.09 786.54 213.2 787.23 211.33 786.83C210.03 786.56 208.8 785.77 207.53 785.6C206.93 784.49 206.28 783.42 205.66 782.33C204.08 779.53 203.59 776.27 202.05 773.56C201.819 773.089 201.468 772.687 201.033 772.394C200.598 772.101 200.093 771.927 199.57 771.89C198.449 772.052 197.436 772.648 196.75 773.55C194.2 776.14 191.58 778.82 190.12 782.15C189.496 783.655 189.014 785.215 188.68 786.81C186.579 795.762 185.571 804.936 185.68 814.13C188.003 814.87 190.459 815.102 192.88 814.81C194.12 808.623 195.637 802.5 197.43 796.44C197.471 796.213 197.596 796.009 197.78 795.87C198.17 795.66 198.58 796.09 198.78 796.47C200.964 799.719 202.731 803.23 204.04 806.92C204.85 809.55 205.22 812.4 206.75 814.69C208.387 816.942 210.761 818.548 213.46 819.23C216.14 819.899 218.888 820.255 221.65 820.29L225.75 820.49C227.969 820.75 230.218 820.574 232.37 819.97C234.47 819.24 236.37 817.45 236.53 815.23C236.544 814.406 236.382 813.589 236.056 812.832C235.731 812.075 235.248 811.396 234.64 810.84V810.84Z" fill="#ED9A1D"/>
<g id="jupe">
<path id="Vector" d="M253.87 668.92C252.19 670.64 249.72 671.29 247.38 671.86L240.27 673.59C239.877 673.633 239.498 673.755 239.154 673.949C238.81 674.144 238.509 674.406 238.27 674.72C237.86 675.46 238.15 676.39 237.95 677.21C237.872 677.535 237.718 677.836 237.5 678.09C236.496 678.985 235.184 679.455 233.84 679.4C232.668 679.353 231.498 679.526 230.39 679.91C229.925 680.112 229.524 680.437 229.23 680.85C228.87 681.37 228.72 682.01 228.34 682.51C227.693 683.208 226.823 683.66 225.88 683.79C224.892 684.014 223.89 684.168 222.88 684.25C218.921 684.578 214.947 683.828 211.38 682.08C210.539 681.5 209.512 681.254 208.5 681.39C207.907 681.6 207.403 682.006 207.07 682.54C206.704 683.109 206.307 683.656 205.88 684.18C204.04 686.18 200.88 685.64 198.23 685.08C196.6 684.73 194.96 684.43 193.32 684.16C183.52 682.56 173.53 682.24 163.55 681.95C150.65 681.56 137.75 681.21 125.26 678.16C122.54 677.5 119.26 675.94 119.39 673.16C119.48 671.57 120.74 670.16 120.73 668.6C120.73 665.88 117.4 664.42 114.73 663.97C115.73 649.11 124.62 636.1 129.27 621.97C130.43 618.46 131.27 614.86 132.58 611.39C138.24 595.75 150.67 583.75 161.01 570.73C162.592 568.903 163.893 566.851 164.87 564.64C165.758 561.986 166.22 559.208 166.24 556.41L166.81 546.62C182.14 545.9 197.03 546.19 212.03 549.43C212.435 549.418 212.838 549.486 213.216 549.631C213.595 549.775 213.941 549.993 214.234 550.272C214.528 550.551 214.764 550.885 214.928 551.256C215.092 551.626 215.181 552.025 215.19 552.43C215.77 556.01 216.177 559.607 216.41 563.22C216.417 564.018 216.531 564.812 216.75 565.58C217.144 566.551 217.691 567.452 218.37 568.25C227.05 579.63 232.37 593.25 236.57 606.89C240.77 620.53 244.11 634.55 249.39 647.89C251.21 652.49 253.59 657.66 254.07 662.59C255.97 664 255.55 667.19 253.87 668.92Z" fill="#85C941"/>
<path id="Vector_2" opacity="0.1" d="M193.33 684.16C183.53 682.56 173.54 682.24 163.56 681.95C163.833 672.75 164.11 663.55 164.39 654.35C164.58 648.23 164.76 642.1 165.49 636.03C166.49 627.39 168.63 618.92 169.69 610.29C170.291 605.347 170.569 600.369 170.52 595.39C170.47 590.32 170.11 585.22 170.94 580.22C171.62 576.11 173.42 570.29 177.22 568.04C179.76 571.52 175.86 581.24 175.4 585.4C174.46 594.06 176.8 602.69 178.81 611.16C181.23 621.33 183.21 631.6 185.18 641.87C187.9 655.963 190.617 670.06 193.33 684.16Z" fill="black"/>
<path id="Vector_3" opacity="0.1" d="M222.89 684.25C218.931 684.578 214.957 683.828 211.39 682.08C210.549 681.5 209.522 681.254 208.51 681.39C207.917 681.6 207.413 682.006 207.08 682.54C203.7 666.49 203.88 649.79 201.21 633.54C200.21 627.76 198.93 621.86 200.05 616.11C201.25 609.97 205.12 604.64 206.63 598.57C207.63 594.57 207.55 590.44 207.48 586.35C207.41 582.26 206.21 579.51 204.87 575.86C208.43 576.45 211.33 579.94 212.76 583.09C214.51 586.93 214.84 591.24 215.07 595.46C215.63 605.65 215.72 615.85 215.57 626.05C215.376 630.809 215.483 635.575 215.89 640.32C216.41 644.99 217.56 649.58 217.94 654.26C218.38 659.88 217.72 665.63 219.09 671.1C220.19 675.51 222.58 679.91 222.89 684.25Z" fill="black"/>
<path id="Vector_4" opacity="0.1" d="M237.48 678.09C236.476 678.985 235.164 679.455 233.82 679.4C232.648 679.353 231.478 679.526 230.37 679.91C228.37 667.71 226.393 655.517 224.44 643.33C223.618 638.842 223.044 634.312 222.72 629.76C222.46 624.49 222.87 619.21 222.5 613.95C222.05 607.48 220.43 601.18 218.88 594.95C217.96 591.22 213.74 580.1 216.1 576.95C219.78 579.33 222.02 584.42 223.27 588.48C224.56 593.174 225.381 597.984 225.72 602.84L228.54 631.06C230.1 646.67 231.71 662.48 237.16 677.2C237.27 677.5 237.38 677.84 237.48 678.09Z" fill="black"/>
</g>
<path id="bras-g" opacity="0.1" d="M268.44 504.94C271.08 502.71 273.72 500.47 276.14 498.01C279.555 494.391 282.709 490.534 285.58 486.47C288.64 482.3 291.68 478.03 293.58 473.21C295.73 467.69 296.39 461.41 300.13 456.83C300.553 456.235 301.14 455.776 301.82 455.51C303.95 454.84 305.54 457.51 305.95 459.72C307.95 470.54 303.18 481.34 298.54 491.32C297.01 494.61 295.41 497.99 292.76 500.48C291.36 501.79 289.76 502.8 288.21 503.97C285.867 505.874 283.711 507.997 281.77 510.31C278.437 514.097 275.267 518.02 272.26 522.08C268.53 527.08 265.03 532.32 260.61 536.73C256.19 541.14 250.66 544.73 244.47 545.6C246.24 545.36 245.66 534.97 245.47 533.66C245.2 531.76 243.9 529.52 243.86 527.66C243.81 525.38 244.74 525.05 246.62 523.45L268.44 504.94Z" fill="black"/>
<path id="cou" d="M194.22 439.5C194.22 439.5 188.22 469.5 181.22 474.5C174.22 479.5 219.22 485.5 219.22 485.5C219.22 485.5 220.22 461.5 232.22 450.5C244.22 439.5 194.22 439.5 194.22 439.5Z" fill="#EFB7B9"/>
<path id="corps" d="M229.72 518.34L229.65 518.47C227.92 521.68 225.33 524.38 223.55 527.58C221.55 531.2 220.62 535.33 219.82 539.4C219.267 542.133 218.757 544.87 218.29 547.61C217.81 550.39 217.36 553.17 216.95 555.97C207.89 552.9 197.85 558.05 188.47 556.17C185.66 555.61 182.97 554.43 180.11 554.3C178.02 554.2 175.92 554.67 173.83 554.47C170.36 554.14 166.92 551.96 163.61 553.07C162.13 553.57 160.3 554.63 159.24 553.48C159.001 553.182 158.818 552.843 158.7 552.48C157.84 550.11 156.96 547.56 157.58 545.12C158.11 543.04 159.64 541.39 160.7 539.52C162.53 536.27 162.9 532.42 163.14 528.69C163.75 519.05 163.73 509.34 165.31 499.81C166.89 490.28 170.22 480.81 176.66 473.57C179.82 470.03 183.95 467.02 188.66 466.63C205.99 465.23 220.01 474.79 227.58 489.97C231.98 498.77 234.32 509.63 229.72 518.34Z" fill="#ED9A1D"/>
<path id="bras-d" d="M280.44 508.94C283.08 506.71 285.72 504.47 288.14 502.01C291.555 498.391 294.709 494.534 297.58 490.47C300.64 486.3 303.68 482.03 305.58 477.21C307.73 471.69 308.39 465.41 312.13 460.83C312.553 460.235 313.14 459.776 313.82 459.51C315.95 458.84 317.54 461.51 317.95 463.72C319.95 474.54 315.18 485.34 310.54 495.32C309.01 498.61 307.41 501.99 304.76 504.48C303.36 505.79 301.76 506.8 300.21 507.97C297.867 509.874 295.711 511.997 293.77 514.31C290.437 518.097 287.267 522.02 284.26 526.08C280.53 531.08 277.03 536.32 272.61 540.73C268.19 545.14 262.66 548.73 256.47 549.6C258.24 549.36 257.66 538.97 257.47 537.66C257.2 535.76 255.9 533.52 255.86 531.66C255.81 529.38 256.74 529.05 258.62 527.45L280.44 508.94Z" fill="#EFB7B9"/>
<g id="epaule-d">
<path id="brasdouble-g" d="M268.44 504.94C271.08 502.71 273.72 500.47 276.14 498.01C279.555 494.391 282.709 490.534 285.58 486.47C288.64 482.3 291.68 478.03 293.58 473.21C295.73 467.69 296.39 461.41 300.13 456.83C300.553 456.235 301.14 455.776 301.82 455.51C303.95 454.84 305.54 457.51 305.95 459.72C307.95 470.54 303.18 481.34 298.54 491.32C297.01 494.61 295.41 497.99 292.76 500.48C291.36 501.79 289.76 502.8 288.21 503.97C285.867 505.874 283.711 507.997 281.77 510.31C278.437 514.097 275.267 518.02 272.26 522.08C268.53 527.08 265.03 532.32 260.61 536.73C256.19 541.14 250.66 544.73 244.47 545.6C246.24 545.36 245.66 534.97 245.47 533.66C245.2 531.76 243.9 529.52 243.86 527.66C243.81 525.38 244.74 525.05 246.62 523.45L268.44 504.94Z" fill="#EFB7B9"/>
<path id="epauledouble-d2" d="M182.28 471.55C179.313 471.956 176.588 473.41 174.6 475.65C169.88 480.73 168.94 488.46 170.6 495.2C172.26 501.94 176.07 507.91 180.03 513.6C185.19 521.02 190.74 528.33 197.91 533.84C201.789 536.649 205.814 539.249 209.97 541.63C216.875 545.883 223.511 550.559 229.84 555.63C231.227 556.886 232.816 557.9 234.54 558.63C236.024 559.095 237.577 559.298 239.13 559.23C244.38 559.173 249.555 557.968 254.29 555.7C254.734 555.528 255.126 555.246 255.43 554.88C255.607 554.497 255.702 554.082 255.711 553.66C255.72 553.239 255.641 552.82 255.48 552.43C252.66 541.03 258.1 528.1 252.7 517.68C246.83 519.59 240.39 521.68 234.52 523.54C233.62 523.906 232.65 524.069 231.68 524.02C230.517 523.778 229.452 523.197 228.62 522.35C222.26 516.85 218.25 509.19 214.62 501.62C210.99 494.05 207.43 486.24 201.71 480.08C195.99 473.92 190.64 470.66 182.28 471.55Z" fill="#ED9A1D"/>
<path id="epauledouble-d" opacity="0.1" d="M182.28 471.55C179.313 471.956 176.588 473.41 174.6 475.65C169.88 480.73 168.94 488.46 170.6 495.2C172.26 501.94 176.07 507.91 180.03 513.6C185.19 521.02 190.74 528.33 197.91 533.84C201.789 536.649 205.814 539.249 209.97 541.63C216.875 545.883 223.511 550.559 229.84 555.63C231.227 556.886 232.816 557.9 234.54 558.63C236.024 559.095 237.577 559.298 239.13 559.23C244.38 559.173 249.555 557.968 254.29 555.7C254.734 555.528 255.126 555.246 255.43 554.88C255.607 554.497 255.702 554.082 255.711 553.66C255.72 553.239 255.641 552.82 255.48 552.43C252.66 541.03 258.1 528.1 252.7 517.68C246.83 519.59 240.39 521.68 234.52 523.54C233.62 523.906 232.65 524.069 231.68 524.02C230.517 523.778 229.452 523.197 228.62 522.35C222.26 516.85 218.25 509.19 214.62 501.62C210.99 494.05 207.43 486.24 201.71 480.08C195.99 473.92 190.64 470.66 182.28 471.55Z" fill="black"/>
<path id="bicep-d" opacity="0.1" d="M226.72 519.34L226.65 519.47C224.92 522.68 222.33 525.38 220.55 528.58C218.55 532.2 217.62 536.33 216.82 540.4C216.267 543.133 215.757 545.87 215.29 548.61C211.699 546.55 208.227 544.29 204.89 541.84C197.72 536.33 192.17 529.02 187.01 521.59C183.01 515.9 179.21 509.93 177.58 503.2C175.95 496.47 176.9 488.73 181.58 483.65C183.568 481.408 186.292 479.95 189.26 479.54C197.62 478.65 202.9 481.88 208.62 488.03C214.34 494.18 217.88 502.03 221.53 509.57C223.15 512.84 224.81 516.19 226.72 519.34Z" fill="black"/>
<path id="epaule-d_2" d="M194.28 475.55C191.313 475.956 188.588 477.41 186.6 479.65C181.88 484.73 180.94 492.46 182.6 499.2C184.26 505.94 188.07 511.91 192.03 517.6C197.19 525.02 202.74 532.33 209.91 537.84C213.789 540.649 217.814 543.249 221.97 545.63C228.875 549.883 235.511 554.559 241.84 559.63C243.227 560.886 244.816 561.9 246.54 562.63C248.024 563.095 249.577 563.298 251.13 563.23C256.38 563.173 261.555 561.968 266.29 559.7C266.734 559.528 267.126 559.246 267.43 558.88C267.607 558.497 267.702 558.082 267.711 557.66C267.72 557.239 267.641 556.82 267.48 556.43C264.66 545.03 270.1 532.1 264.7 521.68C258.83 523.59 252.39 525.68 246.52 527.54C245.62 527.906 244.65 528.069 243.68 528.02C242.517 527.778 241.452 527.197 240.62 526.35C234.26 520.85 230.25 513.19 226.62 505.62C222.99 498.05 219.43 490.24 213.71 484.08C207.99 477.92 202.64 474.66 194.28 475.55Z" fill="#ED9A1D"/>
</g>
<g id="tete">
<path id="Vector_5" d="M217.72 462C234.289 462 247.72 448.569 247.72 432C247.72 415.431 234.289 402 217.72 402C201.151 402 187.72 415.431 187.72 432C187.72 448.569 201.151 462 217.72 462Z" fill="#EFB7B9"/>
<path id="Vector_6" d="M237.12 411.05C240.03 407.74 239.41 402.4 236.87 398.8C234.33 395.2 230.33 392.94 226.44 390.88C220.25 387.59 213.13 384.41 206.44 386.58C203.83 387.43 201.55 389.04 199.15 390.38C194.73 392.84 189.86 394.38 185.36 396.68C180.86 398.98 176.56 402.26 174.62 406.93C172.68 411.6 173.32 416.63 173.82 421.54C174.58 429.14 175.02 436.85 173.96 444.42C172.9 451.99 170.27 459.48 165.44 465.42C162.06 469.58 157.58 473.04 155.55 478C154.551 480.856 153.991 483.846 153.89 486.87L152.8 499.76C152.37 504.9 151.72 510.52 148.01 514.1C152.77 513 157.66 511.84 161.68 509.1C164.069 507.314 166.247 505.261 168.17 502.98C171.97 498.79 175.92 494.32 177.06 488.78C177.91 484.64 177.2 479.94 179.72 476.55C182.72 472.55 188.99 472.55 193.2 475.16C197.41 477.77 199.98 482.35 202.2 486.77C204.42 491.19 206.72 495.84 210.6 498.94C213.785 501.355 217.527 502.93 221.48 503.52C224.14 504.01 227.16 504.15 229.26 502.45C232.13 500.13 231.84 495.71 230.91 492.14C229.68 487.41 227.77 482.48 229.1 477.77C229.54 476.2 230.33 474.77 230.82 473.19C231.405 470.931 231.678 468.603 231.63 466.27C231.91 454.54 232.44 441.91 228.63 430.63C227.41 427.02 224.14 423.58 225.82 419.63C227.91 414.84 233.94 414.67 237.12 411.05Z" fill="black"/>
</g>
<g id="Group" opacity="0.1">
<path id="Vector_7" opacity="0.1" d="M174.53 431.11C174.69 425.577 174.459 420.04 173.84 414.54C173.73 413.46 173.61 412.37 173.52 411.27C173.243 414.695 173.35 418.139 173.84 421.54C174.16 424.72 174.41 427.92 174.53 431.11Z" fill="black"/>
<path id="Vector_8" opacity="0.1" d="M229.26 495.45C227.16 497.15 224.14 497.01 221.48 496.52C217.527 495.93 213.785 494.355 210.6 491.94C206.75 488.8 204.52 484.16 202.26 479.73C200 475.3 197.43 470.73 193.26 468.12C189.09 465.51 182.72 465.52 179.72 469.51C177.2 472.9 177.91 477.6 177.06 481.74C175.92 487.28 171.97 491.74 168.17 495.94C166.247 498.221 164.069 500.274 161.68 502.06C158.7 503.969 155.411 505.346 151.96 506.13C151.482 509.135 150.105 511.924 148.01 514.13C152.77 513.03 157.66 511.87 161.68 509.13C164.069 507.344 166.247 505.291 168.17 503.01C171.97 498.82 175.92 494.35 177.06 488.81C177.91 484.67 177.2 479.97 179.72 476.58C182.72 472.58 188.99 472.58 193.2 475.19C197.41 477.8 199.98 482.38 202.2 486.8C204.42 491.22 206.72 495.84 210.6 498.94C213.785 501.355 217.527 502.93 221.48 503.52C224.14 504.01 227.16 504.15 229.26 502.45C231.95 500.28 231.86 496.25 231.07 492.82C230.732 493.852 230.103 494.765 229.26 495.45V495.45Z" fill="black"/>
<path id="Vector_9" opacity="0.1" d="M237.12 404.05C233.94 407.67 227.91 407.85 225.84 412.67C224.93 414.78 225.47 416.76 226.35 418.67C228.77 414.78 234.17 414.38 237.12 411.02C239.27 408.57 239.49 405.02 238.43 401.87C238.123 402.667 237.68 403.405 237.12 404.05V404.05Z" fill="black"/>
<path id="Vector_10" opacity="0.1" d="M231.63 459.27C231.678 461.603 231.405 463.931 230.82 466.19C230.33 467.75 229.54 469.19 229.1 470.77C228.53 473.14 228.53 475.61 229.1 477.98C229.1 477.91 229.1 477.84 229.1 477.77C229.54 476.2 230.33 474.77 230.82 473.19C231.405 470.931 231.678 468.603 231.63 466.27C231.74 461.6 231.89 456.8 231.79 451.99C231.72 454.44 231.72 456.84 231.63 459.27Z" fill="black"/>
</g>
<g id="enveloppe">
<path id="Vector_11" d="M986.63 268H320.37C311.329 268 304 274.767 304 283.115V830.885C304 839.233 311.329 846 320.37 846H986.63C995.671 846 1003 839.233 1003 830.885V283.115C1003 274.767 995.671 268 986.63 268Z" fill="#B6A467"/>
<path id="Vector 2" d="M787 551.2L997 845L312 845L491.5 551.2L787 551.2Z" stroke="black" stroke-opacity="0.12" stroke-width="4"/>
<path id="Vector 1" d="M492 546L312 268H989L786.5 546H492Z" stroke="black" stroke-opacity="0.12" stroke-width="4"/>
</g>
<path id="fleche" d="M945.63 547.044L928.05 555.504L786.05 623.964L773.52 629.964C772.661 630.37 771.728 630.598 770.779 630.632C769.829 630.666 768.883 630.507 767.996 630.163C767.11 629.82 766.304 629.3 765.625 628.635C764.947 627.969 764.411 627.173 764.05 626.294C763.718 625.471 763.548 624.591 763.55 623.704V583.264C763.55 581.416 762.819 579.643 761.517 578.332C760.215 577.02 758.448 576.277 756.6 576.264H410C408.152 576.264 406.379 575.533 405.068 574.231C403.757 572.929 403.013 571.162 403 569.314V512.214C403 510.357 403.737 508.577 405.05 507.264C406.363 505.951 408.143 505.214 410 505.214H756.6C758.439 505.201 760.199 504.464 761.5 503.164C762.8 501.863 763.537 500.103 763.55 498.264V456.924C763.548 456.036 763.718 455.157 764.05 454.334C764.412 453.454 764.951 452.657 765.631 451.992C766.312 451.327 767.121 450.808 768.009 450.467C768.898 450.125 769.846 449.968 770.797 450.005C771.748 450.043 772.681 450.274 773.54 450.684L786.05 456.774L928.05 525.954L945.66 534.504C946.826 535.086 947.806 535.983 948.491 537.092C949.175 538.201 949.536 539.48 949.533 540.783C949.529 542.087 949.163 543.363 948.473 544.469C947.784 545.575 946.799 546.467 945.63 547.044V547.044Z" fill="black" fill-opacity="0.7"/>
</g>
<defs>
<clipPath id="clip0_0_1">
<rect width="1153.45" height="845.67" fill="white"/>
</clipPath>
</defs>
</svg>
