<svg width="128" height="128" viewBox="0 0 128 128" fill="none" xmlns="http://www.w3.org/2000/svg">
<g id="Plugin icon - 1">
<rect width="128" height="128" fill="white"/>
<g id="Group 2">
<rect id="Rectangle 1" x="13" y="13" width="101" height="95" rx="12" fill="black"/>
<g id="Group 1">
<path id="Vector 4" d="M85.5475 40.7926C85.5475 40.7926 71.7426 37.7848 67.495 50.3171C63.2473 62.8493 66.1607 58.9048 66.1607 58.9048C66.1607 58.9048 69.274 53.3248 73.8665 50.3171C78.4589 47.3093 82.3618 50.3171 82.3618 50.3171C82.3618 50.3171 85.5475 51.8209 85.5475 60.3429V65.3557L98.8214 64.3532V56.3325C98.8214 42.8996 85.5475 40.7926 85.5475 40.7926Z" fill="#ED9A1D" stroke="#ED9A1D"/>
<path id="Vector 3" d="M85.5357 93.7143V56.8571H98.8214V93.7143H85.5357Z" fill="#ED9A1D" stroke="#ED9A1D"/>
<path id="Vector 2" d="M53.4286 93.7143V40.4762H66.7143V93.7143H53.4286Z" fill="#ED9A1D" stroke="#ED9A1D"/>
<path id="Vector 1" d="M30.1786 93.7143V40.4762H43.4643V93.7143H30.1786Z" fill="#ED9A1D" stroke="#ED9A1D"/>
<ellipse id="Ellipse 1" cx="36.8214" cy="30.2381" rx="6.64286" ry="6.14286" fill="#ED9A1D"/>
</g>
</g>
</g>
</svg>
