<svg width="327" height="284" viewBox="0 0 327 284" fill="none" xmlns="http://www.w3.org/2000/svg">
<style>
  #orange2, #orange4{
    animation: oran 3s infinite linear;
    transform-origin:left
  }
  @keyframes oran {
      0% {
          transform: rotate(0deg);
      }
      50% {
          transform: rotate(10deg);
      }
      100% {
          transform: rotate(0deg);
      }
  }
  #orange1{
    animation: oracle 2s infinite linear;
    transform-origin:left;
  }
  @keyframes oracle {
      0% {
          transform: translate(0px);
      }
      50% {
          transform: translate(-50px);
      }
      100% {
          transform: translate(0px);
      }
  }
  #banane{
    animation: banana 4s infinite linear;
    transform-origin:center;
  }

  @keyframes banana {
      0% {
          transform: translate(0px);
         }
      50% {
          transform: translate(10px);
         }

      100% {
          transform: translate(0px);
         }

  } 

  #grappe{
    animation: woo 2s infinite linear;
    transform-origin:top;
  }
  @keyframes woo {
      0% {
          transform: rotate(0deg);
      }
      50% {
          transform: rotate(10deg);
      }
      100% {
          transform: rotate(0deg);
      }
  }  
  
</style>

<g id="orange1">
<circle id="Ellipse 6" cx="76" cy="145.92" r="22" fill="#F78822"/>
<path id="Vector 2" d="M77.3798 125.523C65.6522 114.8 62.4895 108.103 66.8528 94.1453C66.8528 94.1453 72.167 95.8643 78.2358 104.494C84.3046 113.124 77.3798 125.523 77.3798 125.523Z" fill="#3B9950" stroke="black" stroke-opacity="0.14"/>
<path id="Vector 3" d="M66.8528 94.1453C72.3494 105.27 74.6677 112.129 77.3798 125.523" stroke="black" stroke-opacity="0.14"/>
<path id="Vector 4" d="M64.9696 101.96C67.3394 103.601 68.7866 104.104 71.5146 104.482C70.883 101.002 71.0743 99.5412 72.1863 97.6273" stroke="black" stroke-opacity="0.14"/>
<path id="Vector 5" d="M65.3042 107.721C67.6407 110.398 69.2755 111.477 73.6955 111.449C76.5159 108.723 77.5435 107.2 78.2358 104.494" stroke="black" stroke-opacity="0.14"/>
<path id="Vector 6" d="M69.4125 117.113C71.9979 115.862 73.3576 115.99 75.5376 118.486C78.9396 116.695 79.809 115.373 80.703 112.814" stroke="black" stroke-opacity="0.14"/>
<path id="Vector 2_2" d="M77.7757 125.364C87.9106 94.5532 97.7447 83.0559 127.456 79.4856C127.456 79.4856 128.722 90.817 117.729 109.342C106.737 127.866 77.7757 125.364 77.7757 125.364Z" fill="#3B9950" stroke="black" stroke-opacity="0.14"/>
<path id="Vector 3_2" d="M127.456 79.4856C111.328 99.035 100.482 109.096 77.7757 125.364" stroke="black" stroke-opacity="0.14"/>
<path id="Vector 4_2" d="M111.293 82.5262C110.226 88.3118 110.505 91.427 112.095 96.8215C118.056 92.7305 120.942 91.8632 125.449 92.3297" stroke="black" stroke-opacity="0.14"/>
<path id="Vector 5_2" d="M100.826 87.9752C97.7973 94.5667 97.1598 98.5136 100.933 106.717C108.392 109.683 112.099 110.32 117.729 109.342" stroke="black" stroke-opacity="0.14"/>
<path id="Vector 6_2" d="M86.7614 103.489C91.2705 107.254 92.1755 109.892 89.3543 116.04C95.5586 120.872 98.7562 121.383 104.282 120.904" stroke="black" stroke-opacity="0.14"/>
</g>
<g id="orange4">
<circle id="Ellipse 6_2" cx="118.29" cy="151.525" r="22" transform="rotate(-1.80854 118.29 151.525)" fill="#F78822"/>
<path id="Vector 2_3" d="M119.026 131.095C106.966 120.747 103.593 114.153 107.514 100.065C107.514 100.065 112.88 101.615 119.218 110.049C125.556 118.483 119.026 131.095 119.026 131.095Z" fill="#3B9950" stroke="black" stroke-opacity="0.14"/>
<path id="Vector 3_3" d="M107.514 100.065C113.359 111.01 115.892 117.793 119.026 131.095" stroke="black" stroke-opacity="0.14"/>
<path id="Vector 4_3" d="M105.878 107.934C108.299 109.5 109.761 109.957 112.499 110.249C111.758 106.79 111.903 105.325 112.955 103.376" stroke="black" stroke-opacity="0.14"/>
<path id="Vector 5_3" d="M106.394 113.682C108.814 116.284 110.482 117.311 114.899 117.143C117.632 114.33 118.611 112.775 119.218 110.049" stroke="black" stroke-opacity="0.14"/>
<path id="Vector 6_3" d="M110.797 122.94C113.342 121.608 114.705 121.693 116.962 124.119C120.306 122.222 121.133 120.873 121.946 118.287" stroke="black" stroke-opacity="0.14"/>
<path id="Vector 2_4" d="M119.416 130.923C128.574 99.8077 138.04 88.0057 167.624 83.4996C167.624 83.4996 169.247 94.7853 158.844 113.648C148.442 132.51 119.416 130.923 119.416 130.923Z" fill="#3B9950" stroke="black" stroke-opacity="0.14"/>
<path id="Vector 3_4" d="M167.624 83.4996C152.121 103.548 141.598 113.947 119.416 130.923" stroke="black" stroke-opacity="0.14"/>
<path id="Vector 4_4" d="M151.565 87.0487C150.681 92.8651 151.058 95.97 152.818 101.312C158.647 97.0345 161.504 96.0766 166.023 96.4006" stroke="black" stroke-opacity="0.14"/>
<path id="Vector 5_4" d="M141.275 92.8254C138.456 99.5092 137.944 103.474 141.974 111.554C149.523 114.283 153.247 114.803 158.844 113.648" stroke="black" stroke-opacity="0.14"/>
<path id="Vector 6_4" d="M127.707 108.776C132.333 112.396 133.321 115.004 130.695 121.239C137.049 125.872 140.261 126.282 145.769 125.629" stroke="black" stroke-opacity="0.14"/>
</g>
<g id="panier">
<path id="Ellipse 1" d="M315.262 114.777C315.262 122.244 311.425 129.622 303.918 136.604C296.407 143.589 285.403 149.995 271.595 155.427C243.994 166.284 205.694 173.055 163.262 173.055C120.83 173.055 82.5298 166.284 54.9292 155.427C41.1214 149.995 30.1167 143.589 22.606 136.604C15.0987 129.622 11.262 122.244 11.262 114.777C11.262 107.311 15.0987 99.9328 22.606 92.9506C30.1167 85.9652 41.1214 79.5594 54.9292 74.1277C82.5298 63.2702 120.83 56.5 163.262 56.5C205.694 56.5 243.994 63.2702 271.595 74.1277C285.403 79.5594 296.407 85.9652 303.918 92.9506C311.425 99.9328 315.262 107.311 315.262 114.777Z" stroke="black" stroke-width="5"/>
<path id="Vector 1" d="M5.77185 237.39C-7.75027 183.75 11.762 118.033 11.762 118.033C105.075 221.625 304.175 156.479 316.47 123.181C314.254 110.609 313.305 106.843 316.762 118.033C317.256 119.632 317.142 121.358 316.47 123.181C320.354 145.225 328.131 194.347 322.867 237.39C314.601 304.979 19.294 291.029 5.77185 237.39Z" fill="black" stroke="black"/>
</g>
<g id="orange2">
<circle id="Ellipse 2" cx="47" cy="115" r="22" fill="#F78822"/>
<path id="Vector 2_5" d="M41 93.7262C45.6586 76.6829 49.6917 70.1628 61.0515 67.4322C61.0515 67.4322 61.2312 73.568 56.5728 83.9448C51.9144 94.3216 41 93.7262 41 93.7262Z" fill="#3B9950" stroke="black" stroke-opacity="0.14"/>
<path id="Vector 3_5" d="M61.0515 67.4322C54.4188 78.5029 50.0401 84.2678 41 93.7262" stroke="black" stroke-opacity="0.14"/>
<path id="Vector 4_5" d="M54.8426 69.5156C54.2848 72.6939 54.308 74.3825 54.7681 77.2774C57.1368 74.8923 58.2539 74.3436 59.9502 74.4783" stroke="black" stroke-opacity="0.14"/>
<path id="Vector 5_5" d="M50.7297 72.7595C49.4068 76.4284 49.0606 78.5942 50.274 82.9603C53.0237 84.3778 54.4121 84.6264 56.5728 83.9448" stroke="black" stroke-opacity="0.14"/>
<path id="Vector 6_5" d="M44.9862 81.5786C46.5962 83.5087 46.8694 84.9212 45.637 88.3433C47.8614 90.8097 49.0603 91.0032 51.1682 90.5959" stroke="black" stroke-opacity="0.14"/>
<path id="Vector 2_6" d="M41.3412 94.1452C31.8895 82.2758 29.8874 75.5223 35.9823 63.1871C35.9823 63.1871 40.7163 65.6348 45.1647 74.6526C49.613 83.6704 41.3412 94.1452 41.3412 94.1452Z" fill="#3B9950" stroke="black" stroke-opacity="0.14"/>
<path id="Vector 3_6" d="M35.9823 63.1871C39.536 74.4425 40.7235 81.2128 41.3412 94.1452" stroke="black" stroke-opacity="0.14"/>
<path id="Vector 4_6" d="M33.0946 70.1819C35.08 72.0896 36.3641 72.7891 38.8667 73.5749C38.7747 70.2263 39.1639 68.8934 40.4811 67.2834" stroke="black" stroke-opacity="0.14"/>
<path id="Vector 5_6" d="M32.5805 75.6126C34.3858 78.4823 35.763 79.749 39.9099 80.4236C42.9451 78.3267 44.1271 77.0682 45.1646 74.6526" stroke="black" stroke-opacity="0.14"/>
<path id="Vector 6_6" d="M35.0818 85.0308C37.6847 84.2736 38.9407 84.6091 40.6255 87.2844C44.0714 86.1526 45.0762 85.0568 46.2818 82.8104" stroke="black" stroke-opacity="0.14"/>
<path id="Vector 2_7" d="M40.443 95.9283C29.2696 90.6175 25.4038 86.22 25.5408 74.2138C25.5408 74.2138 29.9005 74.1741 36.3725 79.3226C42.8446 84.4711 40.443 95.9283 40.443 95.9283Z" fill="#3B9950" stroke="black" stroke-opacity="0.14"/>
<path id="Vector 3_7" d="M25.5408 74.2138C32.1437 81.4543 35.4142 86.1967 40.443 95.9283" stroke="black" stroke-opacity="0.14"/>
<path id="Vector 4_7" d="M25.8827 80.7904C28.0228 81.454 29.2178 81.4706 31.3429 81.0573C30.0909 78.5098 29.9069 77.3223 30.3098 75.5426" stroke="black" stroke-opacity="0.14"/>
<path id="Vector 5_7" d="M27.4235 85.1922C29.7707 86.6717 31.2352 87.0883 34.5346 85.919C36.0334 83.0634 36.4609 81.6102 36.3725 79.3226" stroke="black" stroke-opacity="0.14"/>
<path id="Vector 6_7" d="M32.6001 91.4433C34.2536 89.798 35.2992 89.5451 37.4888 90.9237C39.632 88.6457 39.9862 87.3903 40.0817 85.1648" stroke="black" stroke-opacity="0.14"/>
</g>
<g id="orange2_2">
<circle id="Ellipse 2_2" cx="278" cy="61" r="22" fill="#F78822"/>
<path id="Vector 2_8" d="M272 39.7262C276.659 22.6829 280.692 16.1628 292.051 13.4322C292.051 13.4322 292.231 19.568 287.573 29.9448C282.914 40.3216 272 39.7262 272 39.7262Z" fill="#3B9950" stroke="black" stroke-opacity="0.14"/>
<path id="Vector 3_8" d="M292.051 13.4322C285.419 24.5029 281.04 30.2678 272 39.7262" stroke="black" stroke-opacity="0.14"/>
<path id="Vector 4_8" d="M285.843 15.5156C285.285 18.6939 285.308 20.3825 285.768 23.2774C288.137 20.8923 289.254 20.3436 290.95 20.4783" stroke="black" stroke-opacity="0.14"/>
<path id="Vector 5_8" d="M281.73 18.7595C280.407 22.4284 280.061 24.5942 281.274 28.9603C284.024 30.3777 285.412 30.6264 287.573 29.9448" stroke="black" stroke-opacity="0.14"/>
<path id="Vector 6_8" d="M275.986 27.5786C277.596 29.5087 277.869 30.9212 276.637 34.3433C278.861 36.8097 280.06 37.0032 282.168 36.5959" stroke="black" stroke-opacity="0.14"/>
<path id="Vector 2_9" d="M272.341 40.1452C262.889 28.2758 260.887 21.5223 266.982 9.18705C266.982 9.18705 271.716 11.6348 276.165 20.6526C280.613 29.6704 272.341 40.1452 272.341 40.1452Z" fill="#3B9950" stroke="black" stroke-opacity="0.14"/>
<path id="Vector 3_9" d="M266.982 9.18705C270.536 20.4425 271.723 27.2128 272.341 40.1452" stroke="black" stroke-opacity="0.14"/>
<path id="Vector 4_9" d="M264.095 16.1819C266.08 18.0896 267.364 18.7891 269.867 19.5749C269.775 16.2263 270.164 14.8934 271.481 13.2834" stroke="black" stroke-opacity="0.14"/>
<path id="Vector 5_9" d="M263.58 21.6126C265.386 24.4823 266.763 25.7489 270.91 26.4236C273.945 24.3267 275.127 23.0682 276.165 20.6526" stroke="black" stroke-opacity="0.14"/>
<path id="Vector 6_9" d="M266.082 31.0308C268.685 30.2736 269.941 30.6091 271.626 33.2844C275.071 32.1526 276.076 31.0568 277.282 28.8104" stroke="black" stroke-opacity="0.14"/>
<path id="Vector 2_10" d="M271.443 41.9283C260.27 36.6175 256.404 32.22 256.541 20.2138C256.541 20.2138 260.9 20.1741 267.373 25.3226C273.845 30.4711 271.443 41.9283 271.443 41.9283Z" fill="#3B9950" stroke="black" stroke-opacity="0.14"/>
<path id="Vector 3_10" d="M256.541 20.2138C263.144 27.4543 266.414 32.1967 271.443 41.9283" stroke="black" stroke-opacity="0.14"/>
<path id="Vector 4_10" d="M256.883 26.7904C259.023 27.454 260.218 27.4706 262.343 27.0573C261.091 24.5098 260.907 23.3223 261.31 21.5426" stroke="black" stroke-opacity="0.14"/>
<path id="Vector 5_10" d="M258.424 31.1922C260.771 32.6717 262.235 33.0883 265.535 31.919C267.033 29.0634 267.461 27.6102 267.373 25.3226" stroke="black" stroke-opacity="0.14"/>
<path id="Vector 6_10" d="M263.6 37.4433C265.254 35.798 266.299 35.5451 268.489 36.9237C270.632 34.6457 270.986 33.3903 271.082 31.1648" stroke="black" stroke-opacity="0.14"/>
<g id="orange2_3">
<circle id="Ellipse 2_3" cx="141" cy="53" r="22" fill="#F78822"/>
<path id="Vector 2_11" d="M135 31.7262C139.659 14.6829 143.692 8.16281 155.051 5.43222C155.051 5.43222 155.231 11.568 150.573 21.9448C145.914 32.3216 135 31.7262 135 31.7262Z" fill="#3B9950" stroke="black" stroke-opacity="0.14"/>
<path id="Vector 3_11" d="M155.051 5.43222C148.419 16.5029 144.04 22.2678 135 31.7262" stroke="black" stroke-opacity="0.14"/>
<path id="Vector 4_11" d="M148.843 7.51563C148.285 10.6939 148.308 12.3825 148.768 15.2774C151.137 12.8923 152.254 12.3436 153.95 12.4783" stroke="black" stroke-opacity="0.14"/>
<path id="Vector 5_11" d="M144.73 10.7595C143.407 14.4284 143.061 16.5942 144.274 20.9603C147.024 22.3777 148.412 22.6264 150.573 21.9448" stroke="black" stroke-opacity="0.14"/>
<path id="Vector 6_11" d="M138.986 19.5786C140.596 21.5087 140.869 22.9212 139.637 26.3433C141.861 28.8097 143.06 29.0032 145.168 28.5959" stroke="black" stroke-opacity="0.14"/>
<path id="Vector 2_12" d="M135.341 32.1452C125.889 20.2758 123.887 13.5223 129.982 1.18705C129.982 1.18705 134.716 3.63475 139.165 12.6526C143.613 21.6704 135.341 32.1452 135.341 32.1452Z" fill="#3B9950" stroke="black" stroke-opacity="0.14"/>
<path id="Vector 3_12" d="M129.982 1.18705C133.536 12.4425 134.723 19.2128 135.341 32.1452" stroke="black" stroke-opacity="0.14"/>
<path id="Vector 4_12" d="M127.095 8.18193C129.08 10.0896 130.364 10.7891 132.867 11.5749C132.775 8.22628 133.164 6.89341 134.481 5.28338" stroke="black" stroke-opacity="0.14"/>
<path id="Vector 5_12" d="M126.58 13.6126C128.386 16.4823 129.763 17.7489 133.91 18.4236C136.945 16.3267 138.127 15.0682 139.165 12.6526" stroke="black" stroke-opacity="0.14"/>
<path id="Vector 6_12" d="M129.082 23.0308C131.685 22.2736 132.941 22.6091 134.626 25.2844C138.071 24.1526 139.076 23.0568 140.282 20.8104" stroke="black" stroke-opacity="0.14"/>
<path id="Vector 2_13" d="M134.443 33.9283C123.27 28.6175 119.404 24.22 119.541 12.2138C119.541 12.2138 123.9 12.1741 130.373 17.3226C136.845 22.4711 134.443 33.9283 134.443 33.9283Z" fill="#3B9950" stroke="black" stroke-opacity="0.14"/>
<path id="Vector 3_13" d="M119.541 12.2138C126.144 19.4543 129.414 24.1967 134.443 33.9283" stroke="black" stroke-opacity="0.14"/>
<path id="Vector 4_13" d="M119.883 18.7904C122.023 19.454 123.218 19.4706 125.343 19.0573C124.091 16.5098 123.907 15.3223 124.31 13.5426" stroke="black" stroke-opacity="0.14"/>
<path id="Vector 5_13" d="M121.424 23.1922C123.771 24.6717 125.235 25.0883 128.535 23.919C130.033 21.0634 130.461 19.6102 130.373 17.3226" stroke="black" stroke-opacity="0.14"/>
<path id="Vector 6_13" d="M126.6 29.4433C128.254 27.798 129.299 27.5451 131.489 28.9237C133.632 26.6457 133.986 25.3903 134.082 23.1648" stroke="black" stroke-opacity="0.14"/>
</g>
</g>
<g id="orange2_4">
<circle id="Ellipse 2_4" cx="287" cy="114" r="22" fill="#F78822"/>
<path id="Vector 2_14" d="M281 92.7262C285.659 75.6829 289.692 69.1628 301.051 66.4322C301.051 66.4322 301.231 72.568 296.573 82.9448C291.914 93.3216 281 92.7262 281 92.7262Z" fill="#3B9950" stroke="black" stroke-opacity="0.14"/>
<path id="Vector 3_14" d="M301.051 66.4322C294.419 77.5029 290.04 83.2678 281 92.7262" stroke="black" stroke-opacity="0.14"/>
<path id="Vector 4_14" d="M294.843 68.5156C294.285 71.6939 294.308 73.3825 294.768 76.2774C297.137 73.8923 298.254 73.3436 299.95 73.4783" stroke="black" stroke-opacity="0.14"/>
<path id="Vector 5_14" d="M290.73 71.7595C289.407 75.4284 289.061 77.5942 290.274 81.9603C293.024 83.3777 294.412 83.6264 296.573 82.9448" stroke="black" stroke-opacity="0.14"/>
<path id="Vector 6_14" d="M284.986 80.5786C286.596 82.5087 286.869 83.9212 285.637 87.3433C287.861 89.8097 289.06 90.0032 291.168 89.5959" stroke="black" stroke-opacity="0.14"/>
<path id="Vector 2_15" d="M281.341 93.1452C271.889 81.2758 269.887 74.5223 275.982 62.1871C275.982 62.1871 280.716 64.6348 285.165 73.6526C289.613 82.6704 281.341 93.1452 281.341 93.1452Z" fill="#3B9950" stroke="black" stroke-opacity="0.14"/>
<path id="Vector 3_15" d="M275.982 62.1871C279.536 73.4425 280.723 80.2128 281.341 93.1452" stroke="black" stroke-opacity="0.14"/>
<path id="Vector 4_15" d="M273.095 69.1819C275.08 71.0896 276.364 71.7891 278.867 72.5749C278.775 69.2263 279.164 67.8934 280.481 66.2834" stroke="black" stroke-opacity="0.14"/>
<path id="Vector 5_15" d="M272.58 74.6126C274.386 77.4823 275.763 78.7489 279.91 79.4236C282.945 77.3267 284.127 76.0682 285.165 73.6526" stroke="black" stroke-opacity="0.14"/>
<path id="Vector 6_15" d="M275.082 84.0308C277.685 83.2736 278.941 83.6091 280.626 86.2844C284.071 85.1526 285.076 84.0568 286.282 81.8104" stroke="black" stroke-opacity="0.14"/>
<path id="Vector 2_16" d="M280.443 94.9283C269.27 89.6175 265.404 85.22 265.541 73.2138C265.541 73.2138 269.9 73.1741 276.373 78.3226C282.845 83.4711 280.443 94.9283 280.443 94.9283Z" fill="#3B9950" stroke="black" stroke-opacity="0.14"/>
<path id="Vector 3_16" d="M265.541 73.2138C272.144 80.4543 275.414 85.1967 280.443 94.9283" stroke="black" stroke-opacity="0.14"/>
<path id="Vector 4_16" d="M265.883 79.7904C268.023 80.454 269.218 80.4706 271.343 80.0573C270.091 77.5098 269.907 76.3223 270.31 74.5426" stroke="black" stroke-opacity="0.14"/>
<path id="Vector 5_16" d="M267.424 84.1922C269.771 85.6717 271.235 86.0883 274.535 84.919C276.033 82.0634 276.461 80.6102 276.373 78.3226" stroke="black" stroke-opacity="0.14"/>
<path id="Vector 6_16" d="M272.6 90.4433C274.254 88.798 275.299 88.5451 277.489 89.9237C279.632 87.6457 279.986 86.3903 280.082 84.1648" stroke="black" stroke-opacity="0.14"/>
<g id="orange2_5">
<circle id="Ellipse 2_5" cx="260" cy="87" r="22" fill="#F78822"/>
<path id="Vector 2_17" d="M254 65.7262C258.659 48.6829 262.692 42.1628 274.051 39.4322C274.051 39.4322 274.231 45.568 269.573 55.9448C264.914 66.3216 254 65.7262 254 65.7262Z" fill="#3B9950" stroke="black" stroke-opacity="0.14"/>
<path id="Vector 3_17" d="M274.051 39.4322C267.419 50.5029 263.04 56.2678 254 65.7262" stroke="black" stroke-opacity="0.14"/>
<path id="Vector 4_17" d="M267.843 41.5156C267.285 44.6939 267.308 46.3825 267.768 49.2774C270.137 46.8923 271.254 46.3436 272.95 46.4783" stroke="black" stroke-opacity="0.14"/>
<path id="Vector 5_17" d="M263.73 44.7595C262.407 48.4284 262.061 50.5942 263.274 54.9603C266.024 56.3777 267.412 56.6264 269.573 55.9448" stroke="black" stroke-opacity="0.14"/>
<path id="Vector 6_17" d="M257.986 53.5786C259.596 55.5087 259.869 56.9212 258.637 60.3433C260.861 62.8097 262.06 63.0032 264.168 62.5959" stroke="black" stroke-opacity="0.14"/>
<path id="Vector 2_18" d="M254.341 66.1452C244.889 54.2758 242.887 47.5223 248.982 35.1871C248.982 35.1871 253.716 37.6348 258.165 46.6526C262.613 55.6704 254.341 66.1452 254.341 66.1452Z" fill="#3B9950" stroke="black" stroke-opacity="0.14"/>
<path id="Vector 3_18" d="M248.982 35.1871C252.536 46.4425 253.723 53.2128 254.341 66.1452" stroke="black" stroke-opacity="0.14"/>
<path id="Vector 4_18" d="M246.095 42.1819C248.08 44.0896 249.364 44.7891 251.867 45.5749C251.775 42.2263 252.164 40.8934 253.481 39.2834" stroke="black" stroke-opacity="0.14"/>
<path id="Vector 5_18" d="M245.58 47.6126C247.386 50.4823 248.763 51.7489 252.91 52.4236C255.945 50.3267 257.127 49.0682 258.165 46.6526" stroke="black" stroke-opacity="0.14"/>
<path id="Vector 6_18" d="M248.082 57.0308C250.685 56.2736 251.941 56.6091 253.626 59.2844C257.071 58.1526 258.076 57.0568 259.282 54.8104" stroke="black" stroke-opacity="0.14"/>
<path id="Vector 2_19" d="M253.443 67.9283C242.27 62.6175 238.404 58.22 238.541 46.2138C238.541 46.2138 242.9 46.1741 249.373 51.3226C255.845 56.4711 253.443 67.9283 253.443 67.9283Z" fill="#3B9950" stroke="black" stroke-opacity="0.14"/>
<path id="Vector 3_19" d="M238.541 46.2138C245.144 53.4543 248.414 58.1967 253.443 67.9283" stroke="black" stroke-opacity="0.14"/>
<path id="Vector 4_19" d="M238.883 52.7904C241.023 53.454 242.218 53.4706 244.343 53.0573C243.091 50.5098 242.907 49.3223 243.31 47.5426" stroke="black" stroke-opacity="0.14"/>
<path id="Vector 5_19" d="M240.424 57.1922C242.771 58.6717 244.235 59.0883 247.535 57.9191C249.033 55.0634 249.461 53.6102 249.373 51.3226" stroke="black" stroke-opacity="0.14"/>
<path id="Vector 6_19" d="M245.6 63.4433C247.254 61.798 248.299 61.5451 250.489 62.9237C252.632 60.6457 252.986 59.3903 253.082 57.1648" stroke="black" stroke-opacity="0.14"/>
<g id="orange2_6">
<circle id="Ellipse 2_6" cx="225" cy="69" r="22" fill="#F78822"/>
<path id="Vector 2_20" d="M219 47.7262C223.659 30.6829 227.692 24.1628 239.051 21.4322C239.051 21.4322 239.231 27.568 234.573 37.9448C229.914 48.3216 219 47.7262 219 47.7262Z" fill="#3B9950" stroke="black" stroke-opacity="0.14"/>
<path id="Vector 3_20" d="M239.051 21.4322C232.419 32.5029 228.04 38.2678 219 47.7262" stroke="black" stroke-opacity="0.14"/>
<path id="Vector 4_20" d="M232.843 23.5156C232.285 26.6939 232.308 28.3825 232.768 31.2774C235.137 28.8923 236.254 28.3436 237.95 28.4783" stroke="black" stroke-opacity="0.14"/>
<path id="Vector 5_20" d="M228.73 26.7595C227.407 30.4284 227.061 32.5942 228.274 36.9603C231.024 38.3777 232.412 38.6264 234.573 37.9448" stroke="black" stroke-opacity="0.14"/>
<path id="Vector 6_20" d="M222.986 35.5786C224.596 37.5087 224.869 38.9212 223.637 42.3433C225.861 44.8097 227.06 45.0032 229.168 44.5959" stroke="black" stroke-opacity="0.14"/>
<path id="Vector 2_21" d="M219.341 48.1452C209.889 36.2758 207.887 29.5223 213.982 17.1871C213.982 17.1871 218.716 19.6348 223.165 28.6526C227.613 37.6704 219.341 48.1452 219.341 48.1452Z" fill="#3B9950" stroke="black" stroke-opacity="0.14"/>
<path id="Vector 3_21" d="M213.982 17.1871C217.536 28.4425 218.723 35.2128 219.341 48.1452" stroke="black" stroke-opacity="0.14"/>
<path id="Vector 4_21" d="M211.095 24.1819C213.08 26.0896 214.364 26.7891 216.867 27.5749C216.775 24.2263 217.164 22.8934 218.481 21.2834" stroke="black" stroke-opacity="0.14"/>
<path id="Vector 5_21" d="M210.58 29.6126C212.386 32.4823 213.763 33.7489 217.91 34.4236C220.945 32.3267 222.127 31.0682 223.165 28.6526" stroke="black" stroke-opacity="0.14"/>
<path id="Vector 6_21" d="M213.082 39.0308C215.685 38.2736 216.941 38.6091 218.626 41.2844C222.071 40.1526 223.076 39.0568 224.282 36.8104" stroke="black" stroke-opacity="0.14"/>
<path id="Vector 2_22" d="M218.443 49.9283C207.27 44.6175 203.404 40.22 203.541 28.2138C203.541 28.2138 207.9 28.1741 214.373 33.3226C220.845 38.4711 218.443 49.9283 218.443 49.9283Z" fill="#3B9950" stroke="black" stroke-opacity="0.14"/>
<path id="Vector 3_22" d="M203.541 28.2138C210.144 35.4543 213.414 40.1967 218.443 49.9283" stroke="black" stroke-opacity="0.14"/>
<path id="Vector 4_22" d="M203.883 34.7904C206.023 35.454 207.218 35.4706 209.343 35.0573C208.091 32.5098 207.907 31.3223 208.31 29.5426" stroke="black" stroke-opacity="0.14"/>
<path id="Vector 5_22" d="M205.424 39.1922C207.771 40.6717 209.235 41.0883 212.535 39.919C214.033 37.0634 214.461 35.6102 214.373 33.3226" stroke="black" stroke-opacity="0.14"/>
<path id="Vector 6_22" d="M210.6 45.4433C212.254 43.798 213.299 43.5451 215.489 44.9237C217.632 42.6457 217.986 41.3903 218.082 39.1648" stroke="black" stroke-opacity="0.14"/>
<g id="orange2_7">
<circle id="Ellipse 2_7" cx="305" cy="102" r="22" fill="#F78822"/>
<path id="Vector 2_23" d="M299 80.7262C303.659 63.6829 307.692 57.1628 319.051 54.4322C319.051 54.4322 319.231 60.568 314.573 70.9448C309.914 81.3216 299 80.7262 299 80.7262Z" fill="#3B9950" stroke="black" stroke-opacity="0.14"/>
<path id="Vector 3_23" d="M319.051 54.4322C312.419 65.5029 308.04 71.2678 299 80.7262" stroke="black" stroke-opacity="0.14"/>
<path id="Vector 4_23" d="M312.843 56.5156C312.285 59.6939 312.308 61.3825 312.768 64.2774C315.137 61.8923 316.254 61.3436 317.95 61.4783" stroke="black" stroke-opacity="0.14"/>
<path id="Vector 5_23" d="M308.73 59.7595C307.407 63.4284 307.061 65.5942 308.274 69.9603C311.024 71.3777 312.412 71.6264 314.573 70.9448" stroke="black" stroke-opacity="0.14"/>
<path id="Vector 6_23" d="M302.986 68.5786C304.596 70.5087 304.869 71.9212 303.637 75.3433C305.861 77.8097 307.06 78.0032 309.168 77.5959" stroke="black" stroke-opacity="0.14"/>
<path id="Vector 2_24" d="M299.341 81.1452C289.889 69.2758 287.887 62.5223 293.982 50.1871C293.982 50.1871 298.716 52.6348 303.165 61.6526C307.613 70.6704 299.341 81.1452 299.341 81.1452Z" fill="#3B9950" stroke="black" stroke-opacity="0.14"/>
<path id="Vector 3_24" d="M293.982 50.1871C297.536 61.4425 298.723 68.2128 299.341 81.1452" stroke="black" stroke-opacity="0.14"/>
<path id="Vector 4_24" d="M291.095 57.1819C293.08 59.0896 294.364 59.7891 296.867 60.5749C296.775 57.2263 297.164 55.8934 298.481 54.2834" stroke="black" stroke-opacity="0.14"/>
<path id="Vector 5_24" d="M290.58 62.6126C292.386 65.4823 293.763 66.7489 297.91 67.4236C300.945 65.3267 302.127 64.0682 303.165 61.6526" stroke="black" stroke-opacity="0.14"/>
<path id="Vector 6_24" d="M293.082 72.0308C295.685 71.2736 296.941 71.6091 298.626 74.2844C302.071 73.1526 303.076 72.0568 304.282 69.8104" stroke="black" stroke-opacity="0.14"/>
<path id="Vector 2_25" d="M298.443 82.9283C287.27 77.6175 283.404 73.22 283.541 61.2138C283.541 61.2138 287.9 61.1741 294.373 66.3226C300.845 71.4711 298.443 82.9283 298.443 82.9283Z" fill="#3B9950" stroke="black" stroke-opacity="0.14"/>
<path id="Vector 3_25" d="M283.541 61.2138C290.144 68.4543 293.414 73.1967 298.443 82.9283" stroke="black" stroke-opacity="0.14"/>
<path id="Vector 4_25" d="M283.883 67.7904C286.023 68.454 287.218 68.4706 289.343 68.0573C288.091 65.5098 287.907 64.3223 288.31 62.5426" stroke="black" stroke-opacity="0.14"/>
<path id="Vector 5_25" d="M285.424 72.1922C287.771 73.6717 289.235 74.0883 292.535 72.919C294.033 70.0634 294.461 68.6102 294.373 66.3226" stroke="black" stroke-opacity="0.14"/>
<path id="Vector 6_25" d="M290.6 78.4433C292.254 76.798 293.299 76.5451 295.489 77.9237C297.632 75.6457 297.986 74.3903 298.082 72.1648" stroke="black" stroke-opacity="0.14"/>
</g>
</g>
</g>
</g>
<g id="orange3">
<circle id="Ellipse 6_3" cx="101" cy="112.92" r="22" fill="#F78822"/>
<path id="Vector 2_26" d="M102.38 92.5232C90.6522 81.8005 87.4895 75.1027 91.8528 61.1453C91.8528 61.1453 97.167 62.8643 103.236 71.4939C109.305 80.1236 102.38 92.5232 102.38 92.5232Z" fill="#3B9950" stroke="black" stroke-opacity="0.14"/>
<path id="Vector 3_26" d="M91.8528 61.1453C97.3494 72.2696 99.6677 79.1289 102.38 92.5232" stroke="black" stroke-opacity="0.14"/>
<path id="Vector 4_26" d="M89.9696 68.9595C92.3394 70.6005 93.7866 71.1038 96.5146 71.482C95.883 68.0018 96.0743 66.5412 97.1863 64.6273" stroke="black" stroke-opacity="0.14"/>
<path id="Vector 5_26" d="M90.3042 74.7209C92.6407 77.3981 94.2755 78.4773 98.6955 78.4487C101.516 75.7227 102.544 74.1997 103.236 71.4939" stroke="black" stroke-opacity="0.14"/>
<path id="Vector 6_26" d="M94.4125 84.1128C96.9979 82.8621 98.3576 82.9904 100.538 85.4859C103.94 83.695 104.809 82.3732 105.703 79.8145" stroke="black" stroke-opacity="0.14"/>
<path id="Vector 2_27" d="M102.776 92.3643C112.911 61.5532 122.745 50.0559 152.456 46.4856C152.456 46.4856 153.722 57.817 142.729 76.3417C131.737 94.8665 102.776 92.3643 102.776 92.3643Z" fill="#3B9950" stroke="black" stroke-opacity="0.14"/>
<path id="Vector 3_27" d="M152.456 46.4856C136.328 66.035 125.482 76.0961 102.776 92.3643" stroke="black" stroke-opacity="0.14"/>
<path id="Vector 4_27" d="M136.293 49.5262C135.226 55.3118 135.505 58.427 137.095 63.8215C143.056 59.7305 145.942 58.8632 150.449 59.3297" stroke="black" stroke-opacity="0.14"/>
<path id="Vector 5_27" d="M125.826 54.9752C122.797 61.5667 122.16 65.5136 125.933 73.7166C133.392 76.6828 137.099 77.3197 142.729 76.3417" stroke="black" stroke-opacity="0.14"/>
<path id="Vector 6_27" d="M111.761 70.4895C116.271 74.2539 117.175 76.8921 114.354 83.0404C120.559 87.8723 123.756 88.3832 129.282 87.9039" stroke="black" stroke-opacity="0.14"/>
</g>
<g id="orange1_2">
<circle id="Ellipse 6_4" cx="76" cy="97.9199" r="22" fill="#F78822"/>
<path id="Vector 2_28" d="M77.3798 77.5232C65.6522 66.8005 62.4895 60.1027 66.8528 46.1454C66.8528 46.1454 72.167 47.8643 78.2358 56.4939C84.3046 65.1236 77.3798 77.5232 77.3798 77.5232Z" fill="#3B9950" stroke="black" stroke-opacity="0.14"/>
<path id="Vector 3_28" d="M66.8528 46.1454C72.3494 57.2696 74.6677 64.1289 77.3798 77.5232" stroke="black" stroke-opacity="0.14"/>
<path id="Vector 4_28" d="M64.9696 53.9595C67.3394 55.6005 68.7866 56.1038 71.5146 56.482C70.883 53.0018 71.0743 51.5412 72.1863 49.6273" stroke="black" stroke-opacity="0.14"/>
<path id="Vector 5_28" d="M65.3042 59.7209C67.6407 62.3982 69.2755 63.4773 73.6955 63.4487C76.5159 60.7227 77.5435 59.1997 78.2358 56.4939" stroke="black" stroke-opacity="0.14"/>
<path id="Vector 6_28" d="M69.4125 69.1128C71.9979 67.8621 73.3576 67.9904 75.5376 70.4859C78.9396 68.695 79.809 67.3732 80.703 64.8144" stroke="black" stroke-opacity="0.14"/>
<path id="Vector 2_29" d="M77.7757 77.3643C87.9106 46.5532 97.7447 35.0559 127.456 31.4856C127.456 31.4856 128.722 42.817 117.729 61.3417C106.737 79.8665 77.7757 77.3643 77.7757 77.3643Z" fill="#3B9950" stroke="black" stroke-opacity="0.14"/>
<path id="Vector 3_29" d="M127.456 31.4856C111.328 51.035 100.482 61.0961 77.7757 77.3643" stroke="black" stroke-opacity="0.14"/>
<path id="Vector 4_29" d="M111.293 34.5262C110.226 40.3118 110.505 43.427 112.095 48.8215C118.056 44.7305 120.942 43.8632 125.449 44.3297" stroke="black" stroke-opacity="0.14"/>
<path id="Vector 5_29" d="M100.826 39.9752C97.7973 46.5667 97.1598 50.5136 100.933 58.7166C108.392 61.6828 112.099 62.3197 117.729 61.3417" stroke="black" stroke-opacity="0.14"/>
<path id="Vector 6_29" d="M86.7614 55.4895C91.2705 59.2539 92.1755 61.8921 89.3543 68.0404C95.5586 72.8723 98.7562 73.3832 104.282 72.9039" stroke="black" stroke-opacity="0.14"/>
</g>
<g id="fruit1">
<g id="fruit1_2">
<g id="Ellipse 3" style="mix-blend-mode:multiply">
<path d="M182.332 152C194.831 165.5 179.831 179 164.331 179C148.831 179 131.831 168.5 144.332 152C156.832 135.5 152.838 130 163.331 130C173.825 130 169.832 138.5 182.332 152Z" fill="url(#paint0_linear_0_1)"/>
</g>
<path id="Vector 7" d="M163.331 118C163.331 118 160.831 124.5 163.331 131.5" stroke="#200909"/>
</g>
<g id="fruit1_3">
<g id="Ellipse 3_2" style="mix-blend-mode:multiply">
<path d="M182.332 151C194.831 164.5 179.831 178 164.331 178C148.831 178 131.831 167.5 144.332 151C156.832 134.5 152.838 129 163.331 129C173.825 129 169.832 137.5 182.332 151Z" fill="url(#paint1_linear_0_1)"/>
</g>
<path id="Vector 7_2" d="M163.331 117C163.331 117 160.831 123.5 163.331 130.5" stroke="#200909"/>
</g>
</g>
<g id="fruit1_4">
<g id="fruit1_5">
<g id="Ellipse 3_3" style="mix-blend-mode:multiply">
<path d="M270.629 128.853C286.492 138.172 276.025 155.426 261.184 159.898C246.343 164.369 227.036 159.22 234.245 139.816C241.453 120.411 236.043 116.297 246.09 113.27C256.137 110.242 254.766 119.533 270.629 128.853Z" fill="url(#paint2_linear_0_1)"/>
</g>
<path id="Vector 7_3" d="M242.628 101.78C242.628 101.78 242.109 108.725 246.523 114.706" stroke="#200909"/>
</g>
<g id="fruit1_6">
<g id="Ellipse 3_4" style="mix-blend-mode:multiply">
<path d="M270.341 127.895C286.204 137.215 275.736 154.468 260.895 158.94C246.054 163.412 226.748 158.263 233.956 138.858C241.165 119.453 235.754 115.339 245.801 112.312C255.849 109.285 254.477 118.575 270.341 127.895Z" fill="url(#paint3_linear_0_1)"/>
</g>
<path id="Vector 7_4" d="M242.339 100.822C242.339 100.822 241.821 107.767 246.234 113.748" stroke="#200909"/>
</g>
</g>
<g id="fruit1_7">
<g id="fruit1_8">
<g id="Ellipse 3_5" style="mix-blend-mode:multiply">
<path d="M229.332 145C241.831 158.5 226.831 172 211.331 172C195.831 172 178.831 161.5 191.332 145C203.832 128.5 199.838 123 210.331 123C220.825 123 216.832 131.5 229.332 145Z" fill="url(#paint4_linear_0_1)"/>
</g>
<path id="Vector 7_5" d="M210.331 111C210.331 111 207.831 117.5 210.331 124.5" stroke="#200909"/>
</g>
<g id="fruit1_9">
<g id="Ellipse 3_6" style="mix-blend-mode:multiply">
<path d="M229.332 144C241.831 157.5 226.831 171 211.331 171C195.831 171 178.831 160.5 191.332 144C203.832 127.5 199.838 122 210.331 122C220.825 122 216.832 130.5 229.332 144Z" fill="url(#paint5_linear_0_1)"/>
</g>
<path id="Vector 7_6" d="M210.331 110C210.331 110 207.831 116.5 210.331 123.5" stroke="#200909"/>
</g>
</g>
<g id="grappe">
<g id="Group 1">
<g id="Ellipse 5">
<ellipse cx="141.677" cy="246.068" rx="16.7484" ry="10.9322" fill="#92B62E" fill-opacity="0.94"/>
<path d="M157.926 246.068C157.926 248.862 156.19 251.458 153.247 253.379C150.309 255.297 146.219 256.5 141.677 256.5C137.135 256.5 133.046 255.297 130.108 253.379C127.165 251.458 125.429 248.862 125.429 246.068C125.429 243.273 127.165 240.677 130.108 238.756C133.046 236.838 137.135 235.636 141.677 235.636C146.219 235.636 150.309 236.838 153.247 238.756C156.19 240.677 157.926 243.273 157.926 246.068Z" stroke="black" stroke-opacity="0.03"/>
</g>
<g id="Ellipse 4">
<ellipse cx="129.497" cy="210.29" rx="16.7484" ry="10.9322" fill="#92B62E" fill-opacity="0.94"/>
<path d="M145.745 210.29C145.745 213.084 144.009 215.68 141.066 217.601C138.128 219.519 134.039 220.722 129.497 220.722C124.955 220.722 120.866 219.519 117.927 217.601C114.984 215.68 113.248 213.084 113.248 210.29C113.248 207.495 114.984 204.899 117.927 202.978C120.866 201.06 124.955 199.857 129.497 199.857C134.039 199.857 138.128 201.06 141.066 202.978C144.009 204.899 145.745 207.495 145.745 210.29Z" stroke="black" stroke-opacity="0.03"/>
</g>
<g id="Ellipse 16">
<ellipse cx="121.123" cy="177.99" rx="16.7484" ry="10.9322" fill="#92B62E" fill-opacity="0.94"/>
<path d="M137.371 177.99C137.371 180.784 135.635 183.38 132.692 185.301C129.754 187.219 125.665 188.422 121.123 188.422C116.581 188.422 112.491 187.219 109.553 185.301C106.61 183.38 104.874 180.784 104.874 177.99C104.874 175.195 106.61 172.599 109.553 170.678C112.491 168.76 116.581 167.557 121.123 167.557C125.665 167.557 129.754 168.76 132.692 170.678C135.635 172.599 137.371 175.195 137.371 177.99Z" stroke="black" stroke-opacity="0.03"/>
</g>
<g id="Ellipse 15">
<ellipse cx="112.748" cy="194.388" rx="16.7484" ry="10.9322" fill="#92B62E" fill-opacity="0.99"/>
<path d="M128.997 194.388C128.997 197.183 127.261 199.779 124.318 201.7C121.38 203.618 117.29 204.82 112.748 204.82C108.206 204.82 104.117 203.618 101.179 201.7C98.2358 199.779 96.5 197.183 96.5 194.388C96.5 191.593 98.2358 188.998 101.179 187.077C104.117 185.159 108.206 183.956 112.748 183.956C117.29 183.956 121.38 185.159 124.318 187.077C127.261 188.998 128.997 191.593 128.997 194.388Z" stroke="black" stroke-opacity="0.03"/>
</g>
<g id="Ellipse 14">
<ellipse cx="152.335" cy="183.953" rx="16.7484" ry="10.9322" fill="#92B62E" fill-opacity="0.94"/>
<path d="M168.584 183.953C168.584 186.747 166.848 189.343 163.905 191.264C160.967 193.182 156.878 194.385 152.335 194.385C147.793 194.385 143.704 193.182 140.766 191.264C137.823 189.343 136.087 186.747 136.087 183.953C136.087 181.158 137.823 178.562 140.766 176.641C143.704 174.723 147.793 173.521 152.335 173.521C156.878 173.521 160.967 174.723 163.905 176.641C166.848 178.562 168.584 181.158 168.584 183.953Z" stroke="black" stroke-opacity="0.03"/>
</g>
<g id="Ellipse 13">
<ellipse cx="185.071" cy="181.468" rx="16.7484" ry="10.9322" fill="#92B62E" fill-opacity="0.94"/>
<path d="M201.319 181.468C201.319 184.263 199.584 186.859 196.641 188.78C193.702 190.698 189.613 191.9 185.071 191.9C180.529 191.9 176.44 190.698 173.501 188.78C170.558 186.859 168.823 184.263 168.823 181.468C168.823 178.673 170.558 176.078 173.501 174.157C176.44 172.239 180.529 171.036 185.071 171.036C189.613 171.036 193.702 172.239 196.641 174.157C199.584 176.078 201.319 178.673 201.319 181.468Z" stroke="black" stroke-opacity="0.03"/>
</g>
<g id="Ellipse 12">
<ellipse cx="184.31" cy="196.873" rx="16.7484" ry="10.9322" fill="#92B62E" fill-opacity="0.94"/>
<path d="M200.558 196.873C200.558 199.667 198.822 202.263 195.879 204.184C192.941 206.102 188.852 207.305 184.31 207.305C179.768 207.305 175.679 206.102 172.74 204.184C169.797 202.263 168.061 199.667 168.061 196.873C168.061 194.078 169.797 191.482 172.74 189.561C175.679 187.643 179.768 186.44 184.31 186.44C188.852 186.44 192.941 187.643 195.879 189.561C198.822 191.482 200.558 194.078 200.558 196.873Z" stroke="black" stroke-opacity="0.03"/>
</g>
<g id="Ellipse 11">
<ellipse cx="137.871" cy="194.388" rx="16.7484" ry="10.9322" fill="#92B62E" fill-opacity="0.99"/>
<path d="M154.119 194.388C154.119 197.183 152.384 199.779 149.441 201.7C146.502 203.618 142.413 204.82 137.871 204.82C133.329 204.82 129.24 203.618 126.301 201.7C123.358 199.779 121.623 197.183 121.623 194.388C121.623 191.593 123.358 188.998 126.301 187.077C129.24 185.159 133.329 183.956 137.871 183.956C142.413 183.956 146.502 185.159 149.441 187.077C152.384 188.998 154.119 191.593 154.119 194.388Z" stroke="black" stroke-opacity="0.03"/>
</g>
<g id="Ellipse 10">
<ellipse cx="134.826" cy="228.179" rx="16.7484" ry="10.9322" fill="#92B62E" fill-opacity="0.94"/>
<path d="M151.074 228.179C151.074 230.973 149.338 233.569 146.395 235.49C143.457 237.408 139.368 238.611 134.826 238.611C130.284 238.611 126.195 237.408 123.256 235.49C120.313 233.569 118.577 230.973 118.577 228.179C118.577 225.384 120.313 222.788 123.256 220.867C126.195 218.949 130.284 217.746 134.826 217.746C139.368 217.746 143.457 218.949 146.395 220.867C149.338 222.788 151.074 225.384 151.074 228.179Z" stroke="black" stroke-opacity="0.03"/>
</g>
<g id="Ellipse 9">
<ellipse cx="159.948" cy="228.676" rx="16.7484" ry="10.9322" fill="#92B62E" fill-opacity="0.94"/>
<path d="M176.197 228.676C176.197 231.47 174.461 234.066 171.518 235.987C168.58 237.905 164.49 239.108 159.948 239.108C155.406 239.108 151.317 237.905 148.379 235.987C145.436 234.066 143.7 231.47 143.7 228.676C143.7 225.881 145.436 223.285 148.379 221.364C151.317 219.446 155.406 218.243 159.948 218.243C164.49 218.243 168.58 219.446 171.518 221.364C174.461 223.285 176.197 225.881 176.197 228.676Z" stroke="black" stroke-opacity="0.03"/>
</g>
<g id="Ellipse 8">
<ellipse cx="154.619" cy="211.283" rx="16.7484" ry="10.9322" fill="#92B62E" fill-opacity="0.94"/>
<path d="M170.868 211.283C170.868 214.078 169.132 216.674 166.189 218.595C163.251 220.513 159.161 221.716 154.619 221.716C150.077 221.716 145.988 220.513 143.05 218.595C140.107 216.674 138.371 214.078 138.371 211.283C138.371 208.489 140.107 205.893 143.05 203.972C145.988 202.054 150.077 200.851 154.619 200.851C159.161 200.851 163.251 202.054 166.189 203.972C169.132 205.893 170.868 208.489 170.868 211.283Z" stroke="black" stroke-opacity="0.03"/>
</g>
<g id="Ellipse 7">
<ellipse cx="180.503" cy="214.265" rx="16.7484" ry="10.9322" fill="#92B62E" fill-opacity="0.94"/>
<path d="M196.752 214.265C196.752 217.06 195.016 219.655 192.073 221.576C189.134 223.494 185.045 224.697 180.503 224.697C175.961 224.697 171.872 223.494 168.934 221.576C165.991 219.655 164.255 217.06 164.255 214.265C164.255 211.47 165.991 208.874 168.934 206.953C171.872 205.035 175.961 203.833 180.503 203.833C185.045 203.833 189.134 205.035 192.073 206.953C195.016 208.874 196.752 211.47 196.752 214.265Z" stroke="black" stroke-opacity="0.03"/>
</g>
<g id="Ellipse 6_5">
<ellipse cx="163.755" cy="195.382" rx="16.7484" ry="10.9322" fill="#92B62E" fill-opacity="0.94"/>
<path d="M180.003 195.382C180.003 198.177 178.267 200.773 175.324 202.693C172.386 204.612 168.297 205.814 163.755 205.814C159.213 205.814 155.124 204.612 152.185 202.693C149.242 200.773 147.506 198.177 147.506 195.382C147.506 192.587 149.242 189.991 152.185 188.07C155.124 186.152 159.213 184.95 163.755 184.95C168.297 184.95 172.386 186.152 175.324 188.07C178.267 189.991 180.003 192.587 180.003 195.382Z" stroke="black" stroke-opacity="0.03"/>
</g>
</g>
<g id="Group 4">
<g id="Ellipse 5_2">
<ellipse cx="153.858" cy="132.273" rx="16.7484" ry="10.9322" fill="#92B62E" fill-opacity="0.94"/>
<path d="M170.106 132.273C170.106 135.068 168.371 137.664 165.428 139.585C162.489 141.503 158.4 142.705 153.858 142.705C149.316 142.705 145.227 141.503 142.288 139.585C139.345 137.664 137.61 135.068 137.61 132.273C137.61 129.478 139.345 126.883 142.288 124.962C145.227 123.044 149.316 121.841 153.858 121.841C158.4 121.841 162.489 123.044 165.428 124.962C168.371 126.883 170.106 129.478 170.106 132.273Z" stroke="black" stroke-opacity="0.03"/>
</g>
<g id="Ellipse 4_2">
<ellipse cx="141.677" cy="96.4949" rx="16.7484" ry="10.9322" fill="#92B62E" fill-opacity="0.94"/>
<path d="M157.926 96.4949C157.926 99.2896 156.19 101.885 153.247 103.806C150.309 105.724 146.219 106.927 141.677 106.927C137.135 106.927 133.046 105.724 130.108 103.806C127.165 101.885 125.429 99.2896 125.429 96.4949C125.429 93.7002 127.165 91.1043 130.108 89.1833C133.046 87.2653 137.135 86.0626 141.677 86.0626C146.219 86.0626 150.309 87.2653 153.247 89.1833C156.19 91.1043 157.926 93.7002 157.926 96.4949Z" stroke="black" stroke-opacity="0.03"/>
</g>
<g id="Ellipse 16_2">
<ellipse cx="133.303" cy="64.1951" rx="16.7484" ry="10.9322" fill="#92B62E" fill-opacity="0.94"/>
<path d="M149.552 64.1951C149.552 66.9898 147.816 69.5857 144.873 71.5066C141.934 73.4247 137.845 74.6273 133.303 74.6273C128.761 74.6273 124.672 73.4247 121.734 71.5066C118.791 69.5857 117.055 66.9898 117.055 64.1951C117.055 61.4004 118.791 58.8045 121.734 56.8835C124.672 54.9655 128.761 53.7628 133.303 53.7628C137.845 53.7628 141.934 54.9655 144.873 56.8835C147.816 58.8045 149.552 61.4004 149.552 64.1951Z" stroke="black" stroke-opacity="0.03"/>
</g>
<g id="Ellipse 15_2">
<ellipse cx="124.929" cy="80.5934" rx="16.7484" ry="10.9322" fill="#92B62E" fill-opacity="0.99"/>
<path d="M141.177 80.5934C141.177 83.3881 139.442 85.984 136.499 87.905C133.56 89.823 129.471 91.0257 124.929 91.0257C120.387 91.0257 116.298 89.823 113.359 87.905C110.416 85.984 108.681 83.3881 108.681 80.5934C108.681 77.7987 110.416 75.2028 113.359 73.2819C116.298 71.3638 120.387 70.1612 124.929 70.1612C129.471 70.1612 133.56 71.3638 136.499 73.2819C139.442 75.2028 141.177 77.7987 141.177 80.5934Z" stroke="black" stroke-opacity="0.03"/>
</g>
<g id="Ellipse 14_2">
<ellipse cx="164.516" cy="70.1581" rx="16.7484" ry="10.9322" fill="#92B62E" fill-opacity="0.94"/>
<path d="M180.765 70.1581C180.765 72.9528 179.029 75.5487 176.086 77.4697C173.147 79.3877 169.058 80.5904 164.516 80.5904C159.974 80.5904 155.885 79.3877 152.947 77.4697C150.004 75.5487 148.268 72.9528 148.268 70.1581C148.268 67.3634 150.004 64.7675 152.947 62.8466C155.885 60.9285 159.974 59.7259 164.516 59.7259C169.058 59.7259 173.147 60.9285 176.086 62.8466C179.029 64.7675 180.765 67.3634 180.765 70.1581Z" stroke="black" stroke-opacity="0.03"/>
</g>
<g id="Ellipse 13_2">
<ellipse cx="197.252" cy="67.6735" rx="16.7484" ry="10.9322" fill="#92B62E" fill-opacity="0.94"/>
<path d="M213.5 67.6735C213.5 70.4682 211.764 73.0641 208.821 74.9851C205.883 76.9031 201.794 78.1057 197.252 78.1057C192.71 78.1057 188.62 76.9031 185.682 74.9851C182.739 73.0641 181.003 70.4682 181.003 67.6735C181.003 64.8788 182.739 62.2829 185.682 60.3619C188.62 58.4439 192.71 57.2413 197.252 57.2413C201.794 57.2413 205.883 58.4439 208.821 60.3619C211.764 62.2829 213.5 64.8788 213.5 67.6735Z" stroke="black" stroke-opacity="0.03"/>
</g>
<g id="Ellipse 12_2">
<ellipse cx="196.49" cy="83.078" rx="16.7484" ry="10.9322" fill="#92B62E" fill-opacity="0.94"/>
<path d="M212.739 83.078C212.739 85.8727 211.003 88.4686 208.06 90.3896C205.121 92.3076 201.032 93.5103 196.49 93.5103C191.948 93.5103 187.859 92.3076 184.921 90.3896C181.978 88.4686 180.242 85.8727 180.242 83.078C180.242 80.2834 181.978 77.6875 184.921 75.7665C187.859 73.8484 191.948 72.6458 196.49 72.6458C201.032 72.6458 205.121 73.8484 208.06 75.7665C211.003 77.6875 212.739 80.2834 212.739 83.078Z" stroke="black" stroke-opacity="0.03"/>
</g>
<g id="Ellipse 11_2">
<ellipse cx="150.052" cy="80.5934" rx="16.7484" ry="10.9322" fill="#92B62E" fill-opacity="0.99"/>
<path d="M166.3 80.5934C166.3 83.3881 164.564 85.984 161.621 87.905C158.683 89.823 154.594 91.0257 150.052 91.0257C145.51 91.0257 141.42 89.823 138.482 87.905C135.539 85.984 133.803 83.3881 133.803 80.5934C133.803 77.7987 135.539 75.2028 138.482 73.2819C141.42 71.3638 145.51 70.1612 150.052 70.1612C154.594 70.1612 158.683 71.3638 161.621 73.2819C164.564 75.2028 166.3 77.7987 166.3 80.5934Z" stroke="black" stroke-opacity="0.03"/>
</g>
<g id="Ellipse 10_2">
<ellipse cx="147.006" cy="114.384" rx="16.7484" ry="10.9322" fill="#92B62E" fill-opacity="0.94"/>
<path d="M163.255 114.384C163.255 117.179 161.519 119.775 158.576 121.696C155.638 123.614 151.549 124.816 147.006 124.816C142.464 124.816 138.375 123.614 135.437 121.696C132.494 119.775 130.758 117.179 130.758 114.384C130.758 111.589 132.494 108.993 135.437 107.072C138.375 105.154 142.464 103.952 147.006 103.952C151.549 103.952 155.638 105.154 158.576 107.072C161.519 108.993 163.255 111.589 163.255 114.384Z" stroke="black" stroke-opacity="0.03"/>
</g>
<g id="Ellipse 9_2">
<ellipse cx="172.129" cy="114.881" rx="16.7484" ry="10.9322" fill="#92B62E" fill-opacity="0.94"/>
<path d="M188.377 114.881C188.377 117.676 186.642 120.271 183.699 122.192C180.76 124.11 176.671 125.313 172.129 125.313C167.587 125.313 163.498 124.11 160.559 122.192C157.616 120.271 155.881 117.676 155.881 114.881C155.881 112.086 157.616 109.49 160.559 107.569C163.498 105.651 167.587 104.449 172.129 104.449C176.671 104.449 180.76 105.651 183.699 107.569C186.642 109.49 188.377 112.086 188.377 114.881Z" stroke="black" stroke-opacity="0.03"/>
</g>
<g id="Ellipse 8_2">
<ellipse cx="166.8" cy="97.4887" rx="16.7484" ry="10.9322" fill="#92B62E" fill-opacity="0.94"/>
<path d="M183.048 97.4887C183.048 100.283 181.313 102.879 178.37 104.8C175.431 106.718 171.342 107.921 166.8 107.921C162.258 107.921 158.169 106.718 155.23 104.8C152.287 102.879 150.552 100.283 150.552 97.4887C150.552 94.694 152.287 92.0981 155.23 90.1771C158.169 88.2591 162.258 87.0565 166.8 87.0565C171.342 87.0565 175.431 88.2591 178.37 90.1771C181.313 92.0981 183.048 94.694 183.048 97.4887Z" stroke="black" stroke-opacity="0.03"/>
</g>
<g id="Ellipse 7_2">
<ellipse cx="192.684" cy="100.47" rx="16.7484" ry="10.9322" fill="#92B62E" fill-opacity="0.94"/>
<path d="M208.932 100.47C208.932 103.265 207.196 105.861 204.253 107.782C201.315 109.7 197.226 110.902 192.684 110.902C188.142 110.902 184.053 109.7 181.114 107.782C178.171 105.861 176.435 103.265 176.435 100.47C176.435 97.6755 178.171 95.0796 181.114 93.1587C184.053 91.2406 188.142 90.038 192.684 90.038C197.226 90.038 201.315 91.2406 204.253 93.1587C207.196 95.0796 208.932 97.6755 208.932 100.47Z" stroke="black" stroke-opacity="0.03"/>
</g>
<g id="Ellipse 6_6">
<ellipse cx="175.935" cy="81.5873" rx="16.7484" ry="10.9322" fill="#92B62E" fill-opacity="0.94"/>
<path d="M192.184 81.5873C192.184 84.382 190.448 86.9779 187.505 88.8988C184.567 90.8169 180.478 92.0195 175.935 92.0195C171.393 92.0195 167.304 90.8169 164.366 88.8988C161.423 86.9779 159.687 84.382 159.687 81.5873C159.687 78.7926 161.423 76.1967 164.366 74.2757C167.304 72.3577 171.393 71.155 175.935 71.155C180.478 71.155 184.567 72.3577 187.505 74.2757C190.448 76.1967 192.184 78.7926 192.184 81.5873Z" stroke="black" stroke-opacity="0.03"/>
</g>
</g>
<g id="Group 3">
<g id="Ellipse 5_3">
<ellipse cx="153.858" cy="175.008" rx="16.7484" ry="10.9322" fill="#92B62E" fill-opacity="0.94"/>
<path d="M170.106 175.008C170.106 177.803 168.371 180.399 165.428 182.32C162.489 184.238 158.4 185.44 153.858 185.44C149.316 185.44 145.227 184.238 142.288 182.32C139.345 180.399 137.61 177.803 137.61 175.008C137.61 172.214 139.345 169.618 142.288 167.697C145.227 165.779 149.316 164.576 153.858 164.576C158.4 164.576 162.489 165.779 165.428 167.697C168.371 169.618 170.106 172.214 170.106 175.008Z" stroke="black" stroke-opacity="0.03"/>
</g>
<g id="Ellipse 4_3">
<ellipse cx="141.677" cy="139.23" rx="16.7484" ry="10.9322" fill="#92B62E" fill-opacity="0.94"/>
<path d="M157.926 139.23C157.926 142.025 156.19 144.621 153.247 146.542C150.309 148.46 146.219 149.662 141.677 149.662C137.135 149.662 133.046 148.46 130.108 146.542C127.165 144.621 125.429 142.025 125.429 139.23C125.429 136.435 127.165 133.839 130.108 131.918C133.046 130 137.135 128.798 141.677 128.798C146.219 128.798 150.309 130 153.247 131.918C156.19 133.839 157.926 136.435 157.926 139.23Z" stroke="black" stroke-opacity="0.03"/>
</g>
<g id="Ellipse 16_3">
<ellipse cx="133.303" cy="106.93" rx="16.7484" ry="10.9322" fill="#92B62E" fill-opacity="0.94"/>
<path d="M149.552 106.93C149.552 109.725 147.816 112.321 144.873 114.242C141.934 116.16 137.845 117.362 133.303 117.362C128.761 117.362 124.672 116.16 121.734 114.242C118.791 112.321 117.055 109.725 117.055 106.93C117.055 104.136 118.791 101.54 121.734 99.6186C124.672 97.7006 128.761 96.4979 133.303 96.4979C137.845 96.4979 141.934 97.7006 144.873 99.6186C147.816 101.54 149.552 104.136 149.552 106.93Z" stroke="black" stroke-opacity="0.03"/>
</g>
<g id="Ellipse 15_3">
<ellipse cx="124.929" cy="123.329" rx="16.7484" ry="10.9322" fill="#92B62E" fill-opacity="0.99"/>
<path d="M141.177 123.329C141.177 126.123 139.442 128.719 136.499 130.64C133.56 132.558 129.471 133.761 124.929 133.761C120.387 133.761 116.298 132.558 113.359 130.64C110.416 128.719 108.681 126.123 108.681 123.329C108.681 120.534 110.416 117.938 113.359 116.017C116.298 114.099 120.387 112.896 124.929 112.896C129.471 112.896 133.56 114.099 136.499 116.017C139.442 117.938 141.177 120.534 141.177 123.329Z" stroke="black" stroke-opacity="0.03"/>
</g>
<g id="Ellipse 14_3">
<ellipse cx="164.516" cy="112.893" rx="16.7484" ry="10.9322" fill="#92B62E" fill-opacity="0.94"/>
<path d="M180.765 112.893C180.765 115.688 179.029 118.284 176.086 120.205C173.147 122.123 169.058 123.325 164.516 123.325C159.974 123.325 155.885 122.123 152.947 120.205C150.004 118.284 148.268 115.688 148.268 112.893C148.268 110.099 150.004 107.503 152.947 105.582C155.885 103.664 159.974 102.461 164.516 102.461C169.058 102.461 173.147 103.664 176.086 105.582C179.029 107.503 180.765 110.099 180.765 112.893Z" stroke="black" stroke-opacity="0.03"/>
</g>
<g id="Ellipse 13_3">
<ellipse cx="197.252" cy="110.409" rx="16.7484" ry="10.9322" fill="#92B62E" fill-opacity="0.94"/>
<path d="M213.5 110.409C213.5 113.203 211.764 115.799 208.821 117.72C205.883 119.638 201.794 120.841 197.252 120.841C192.71 120.841 188.62 119.638 185.682 117.72C182.739 115.799 181.003 113.203 181.003 110.409C181.003 107.614 182.739 105.018 185.682 103.097C188.62 101.179 192.71 99.9764 197.252 99.9764C201.794 99.9764 205.883 101.179 208.821 103.097C211.764 105.018 213.5 107.614 213.5 110.409Z" stroke="black" stroke-opacity="0.03"/>
</g>
<g id="Ellipse 12_3">
<ellipse cx="196.49" cy="125.813" rx="16.7484" ry="10.9322" fill="#92B62E" fill-opacity="0.94"/>
<path d="M212.739 125.813C212.739 128.608 211.003 131.204 208.06 133.125C205.121 135.043 201.032 136.245 196.49 136.245C191.948 136.245 187.859 135.043 184.921 133.125C181.978 131.204 180.242 128.608 180.242 125.813C180.242 123.018 181.978 120.423 184.921 118.502C187.859 116.584 191.948 115.381 196.49 115.381C201.032 115.381 205.121 116.584 208.06 118.502C211.003 120.423 212.739 123.018 212.739 125.813Z" stroke="black" stroke-opacity="0.03"/>
</g>
<g id="Ellipse 11_3">
<ellipse cx="150.052" cy="123.329" rx="16.7484" ry="10.9322" fill="#92B62E" fill-opacity="0.99"/>
<path d="M166.3 123.329C166.3 126.123 164.564 128.719 161.621 130.64C158.683 132.558 154.594 133.761 150.052 133.761C145.51 133.761 141.42 132.558 138.482 130.64C135.539 128.719 133.803 126.123 133.803 123.329C133.803 120.534 135.539 117.938 138.482 116.017C141.42 114.099 145.51 112.896 150.052 112.896C154.594 112.896 158.683 114.099 161.621 116.017C164.564 117.938 166.3 120.534 166.3 123.329Z" stroke="black" stroke-opacity="0.03"/>
</g>
<g id="Ellipse 10_3">
<ellipse cx="147.006" cy="157.119" rx="16.7484" ry="10.9322" fill="#92B62E" fill-opacity="0.94"/>
<path d="M163.255 157.119C163.255 159.914 161.519 162.51 158.576 164.431C155.638 166.349 151.549 167.551 147.006 167.551C142.464 167.551 138.375 166.349 135.437 164.431C132.494 162.51 130.758 159.914 130.758 157.119C130.758 154.324 132.494 151.729 135.437 149.808C138.375 147.89 142.464 146.687 147.006 146.687C151.549 146.687 155.638 147.89 158.576 149.808C161.519 151.729 163.255 154.324 163.255 157.119Z" stroke="black" stroke-opacity="0.03"/>
</g>
<g id="Ellipse 9_3">
<ellipse cx="172.129" cy="157.616" rx="16.7484" ry="10.9322" fill="#92B62E" fill-opacity="0.94"/>
<path d="M188.377 157.616C188.377 160.411 186.642 163.007 183.699 164.928C180.76 166.846 176.671 168.048 172.129 168.048C167.587 168.048 163.498 166.846 160.559 164.928C157.616 163.007 155.881 160.411 155.881 157.616C155.881 154.821 157.616 152.225 160.559 150.304C163.498 148.386 167.587 147.184 172.129 147.184C176.671 147.184 180.76 148.386 183.699 150.304C186.642 152.225 188.377 154.821 188.377 157.616Z" stroke="black" stroke-opacity="0.03"/>
</g>
<g id="Ellipse 8_3">
<ellipse cx="166.8" cy="140.224" rx="16.7484" ry="10.9322" fill="#92B62E" fill-opacity="0.94"/>
<path d="M183.048 140.224C183.048 143.019 181.313 145.614 178.37 147.535C175.431 149.453 171.342 150.656 166.8 150.656C162.258 150.656 158.169 149.453 155.23 147.535C152.287 145.614 150.552 143.019 150.552 140.224C150.552 137.429 152.287 134.833 155.23 132.912C158.169 130.994 162.258 129.792 166.8 129.792C171.342 129.792 175.431 130.994 178.37 132.912C181.313 134.833 183.048 137.429 183.048 140.224Z" stroke="black" stroke-opacity="0.03"/>
</g>
<g id="Ellipse 7_3">
<ellipse cx="192.684" cy="143.205" rx="16.7484" ry="10.9322" fill="#92B62E" fill-opacity="0.94"/>
<path d="M208.932 143.205C208.932 146 207.196 148.596 204.253 150.517C201.315 152.435 197.226 153.638 192.684 153.638C188.142 153.638 184.053 152.435 181.114 150.517C178.171 148.596 176.435 146 176.435 143.205C176.435 140.411 178.171 137.815 181.114 135.894C184.053 133.976 188.142 132.773 192.684 132.773C197.226 132.773 201.315 133.976 204.253 135.894C207.196 137.815 208.932 140.411 208.932 143.205Z" stroke="black" stroke-opacity="0.03"/>
</g>
<g id="Ellipse 6_7">
<ellipse cx="175.935" cy="124.322" rx="16.7484" ry="10.9322" fill="#92B62E" fill-opacity="0.94"/>
<path d="M192.184 124.322C192.184 127.117 190.448 129.713 187.505 131.634C184.567 133.552 180.478 134.755 175.935 134.755C171.393 134.755 167.304 133.552 164.366 131.634C161.423 129.713 159.687 127.117 159.687 124.322C159.687 121.528 161.423 118.932 164.366 117.011C167.304 115.093 171.393 113.89 175.935 113.89C180.478 113.89 184.567 115.093 187.505 117.011C190.448 118.932 192.184 121.528 192.184 124.322Z" stroke="black" stroke-opacity="0.03"/>
</g>
</g>
<g id="Group 2">
<g id="Ellipse 5_4">
<ellipse cx="150.052" cy="214.265" rx="16.7484" ry="10.9322" fill="#92B62E" fill-opacity="0.94"/>
<path d="M166.3 214.265C166.3 217.06 164.564 219.655 161.621 221.576C158.683 223.494 154.594 224.697 150.052 224.697C145.51 224.697 141.42 223.494 138.482 221.576C135.539 219.655 133.803 217.06 133.803 214.265C133.803 211.47 135.539 208.874 138.482 206.953C141.42 205.035 145.51 203.833 150.052 203.833C154.594 203.833 158.683 205.035 161.621 206.953C164.564 208.874 166.3 211.47 166.3 214.265Z" stroke="black" stroke-opacity="0.03"/>
</g>
<g id="Ellipse 4_4">
<ellipse cx="137.871" cy="178.487" rx="16.7484" ry="10.9322" fill="#92B62E" fill-opacity="0.94"/>
<path d="M154.119 178.487C154.119 181.281 152.384 183.877 149.441 185.798C146.502 187.716 142.413 188.919 137.871 188.919C133.329 188.919 129.24 187.716 126.301 185.798C123.358 183.877 121.623 181.281 121.623 178.487C121.623 175.692 123.358 173.096 126.301 171.175C129.24 169.257 133.329 168.054 137.871 168.054C142.413 168.054 146.502 169.257 149.441 171.175C152.384 173.096 154.119 175.692 154.119 178.487Z" stroke="black" stroke-opacity="0.03"/>
</g>
<g id="Ellipse 16_4">
<ellipse cx="129.497" cy="146.187" rx="16.7484" ry="10.9322" fill="#92B62E" fill-opacity="0.94"/>
<path d="M145.745 146.187C145.745 148.982 144.009 151.577 141.066 153.498C138.128 155.416 134.039 156.619 129.497 156.619C124.955 156.619 120.866 155.416 117.927 153.498C114.984 151.577 113.248 148.982 113.248 146.187C113.248 143.392 114.984 140.796 117.927 138.875C120.866 136.957 124.955 135.755 129.497 135.755C134.039 135.755 138.128 136.957 141.066 138.875C144.009 140.796 145.745 143.392 145.745 146.187Z" stroke="black" stroke-opacity="0.03"/>
</g>
<g id="Ellipse 15_4">
<ellipse cx="121.123" cy="162.585" rx="16.7484" ry="10.9322" fill="#92B62E" fill-opacity="0.99"/>
<path d="M137.371 162.585C137.371 165.38 135.635 167.976 132.692 169.897C129.754 171.815 125.665 173.017 121.123 173.017C116.581 173.017 112.491 171.815 109.553 169.897C106.61 167.976 104.874 165.38 104.874 162.585C104.874 159.791 106.61 157.195 109.553 155.274C112.491 153.356 116.581 152.153 121.123 152.153C125.665 152.153 129.754 153.356 132.692 155.274C135.635 157.195 137.371 159.791 137.371 162.585Z" stroke="black" stroke-opacity="0.03"/>
</g>
<g id="Ellipse 14_4">
<ellipse cx="160.71" cy="152.15" rx="16.7484" ry="10.9322" fill="#92B62E" fill-opacity="0.94"/>
<path d="M176.958 152.15C176.958 154.945 175.222 157.54 172.279 159.461C169.341 161.379 165.252 162.582 160.71 162.582C156.168 162.582 152.079 161.379 149.14 159.461C146.197 157.54 144.461 154.945 144.461 152.15C144.461 149.355 146.197 146.759 149.14 144.838C152.079 142.92 156.168 141.718 160.71 141.718C165.252 141.718 169.341 142.92 172.279 144.838C175.222 146.759 176.958 149.355 176.958 152.15Z" stroke="black" stroke-opacity="0.03"/>
</g>
<g id="Ellipse 13_4">
<ellipse cx="193.445" cy="149.665" rx="16.7484" ry="10.9322" fill="#92B62E" fill-opacity="0.94"/>
<path d="M209.694 149.665C209.694 152.46 207.958 155.056 205.015 156.977C202.076 158.895 197.987 160.098 193.445 160.098C188.903 160.098 184.814 158.895 181.876 156.977C178.933 155.056 177.197 152.46 177.197 149.665C177.197 146.871 178.933 144.275 181.876 142.354C184.814 140.436 188.903 139.233 193.445 139.233C197.987 139.233 202.076 140.436 205.015 142.354C207.958 144.275 209.694 146.871 209.694 149.665Z" stroke="black" stroke-opacity="0.03"/>
</g>
<g id="Ellipse 12_4">
<ellipse cx="192.684" cy="165.07" rx="16.7484" ry="10.9322" fill="#92B62E" fill-opacity="0.94"/>
<path d="M208.932 165.07C208.932 167.864 207.196 170.46 204.253 172.381C201.315 174.299 197.226 175.502 192.684 175.502C188.142 175.502 184.053 174.299 181.114 172.381C178.171 170.46 176.435 167.864 176.435 165.07C176.435 162.275 178.171 159.679 181.114 157.758C184.053 155.84 188.142 154.638 192.684 154.638C197.226 154.638 201.315 155.84 204.253 157.758C207.196 159.679 208.932 162.275 208.932 165.07Z" stroke="black" stroke-opacity="0.03"/>
</g>
<g id="Ellipse 11_4">
<ellipse cx="146.245" cy="162.585" rx="16.7484" ry="10.9322" fill="#92B62E" fill-opacity="0.99"/>
<path d="M162.494 162.585C162.494 165.38 160.758 167.976 157.815 169.897C154.876 171.815 150.787 173.017 146.245 173.017C141.703 173.017 137.614 171.815 134.676 169.897C131.733 167.976 129.997 165.38 129.997 162.585C129.997 159.791 131.733 157.195 134.676 155.274C137.614 153.356 141.703 152.153 146.245 152.153C150.787 152.153 154.876 153.356 157.815 155.274C160.758 157.195 162.494 159.791 162.494 162.585Z" stroke="black" stroke-opacity="0.03"/>
</g>
<g id="Ellipse 10_4">
<ellipse cx="143.2" cy="196.376" rx="16.7484" ry="10.9322" fill="#92B62E" fill-opacity="0.94"/>
<path d="M159.448 196.376C159.448 199.17 157.713 201.766 154.77 203.687C151.831 205.605 147.742 206.808 143.2 206.808C138.658 206.808 134.569 205.605 131.63 203.687C128.687 201.766 126.952 199.17 126.952 196.376C126.952 193.581 128.687 190.985 131.63 189.064C134.569 187.146 138.658 185.944 143.2 185.944C147.742 185.944 151.831 187.146 154.77 189.064C157.713 190.985 159.448 193.581 159.448 196.376Z" stroke="black" stroke-opacity="0.03"/>
</g>
<g id="Ellipse 9_4">
<ellipse cx="168.323" cy="196.873" rx="16.7484" ry="10.9322" fill="#92B62E" fill-opacity="0.94"/>
<path d="M184.571 196.873C184.571 199.667 182.835 202.263 179.892 204.184C176.954 206.102 172.865 207.305 168.323 207.305C163.781 207.305 159.691 206.102 156.753 204.184C153.81 202.263 152.074 199.667 152.074 196.873C152.074 194.078 153.81 191.482 156.753 189.561C159.691 187.643 163.781 186.44 168.323 186.44C172.865 186.44 176.954 187.643 179.892 189.561C182.835 191.482 184.571 194.078 184.571 196.873Z" stroke="black" stroke-opacity="0.03"/>
</g>
<g id="Ellipse 8_4">
<ellipse cx="162.994" cy="179.48" rx="16.7484" ry="10.9322" fill="#92B62E" fill-opacity="0.94"/>
<path d="M179.242 179.48C179.242 182.275 177.506 184.871 174.563 186.792C171.625 188.71 167.536 189.913 162.994 189.913C158.451 189.913 154.362 188.71 151.424 186.792C148.481 184.871 146.745 182.275 146.745 179.48C146.745 176.686 148.481 174.09 151.424 172.169C154.362 170.251 158.451 169.048 162.994 169.048C167.536 169.048 171.625 170.251 174.563 172.169C177.506 174.09 179.242 176.686 179.242 179.48Z" stroke="black" stroke-opacity="0.03"/>
</g>
<g id="Ellipse 7_4">
<ellipse cx="188.877" cy="182.462" rx="16.7484" ry="10.9322" fill="#92B62E" fill-opacity="0.94"/>
<path d="M205.126 182.462C205.126 185.257 203.39 187.853 200.447 189.774C197.509 191.692 193.42 192.894 188.877 192.894C184.335 192.894 180.246 191.692 177.308 189.774C174.365 187.853 172.629 185.257 172.629 182.462C172.629 179.667 174.365 177.071 177.308 175.15C180.246 173.232 184.335 172.03 188.877 172.03C193.42 172.03 197.509 173.232 200.447 175.15C203.39 177.071 205.126 179.667 205.126 182.462Z" stroke="black" stroke-opacity="0.03"/>
</g>
<g id="Ellipse 6_8">
<ellipse cx="172.129" cy="163.579" rx="16.7484" ry="10.9322" fill="#92B62E" fill-opacity="0.94"/>
<path d="M188.377 163.579C188.377 166.374 186.642 168.97 183.699 170.891C180.76 172.809 176.671 174.011 172.129 174.011C167.587 174.011 163.498 172.809 160.559 170.891C157.616 168.97 155.881 166.374 155.881 163.579C155.881 160.784 157.616 158.188 160.559 156.267C163.498 154.349 167.587 153.147 172.129 153.147C176.671 153.147 180.76 154.349 183.699 156.267C186.642 158.188 188.377 160.784 188.377 163.579Z" stroke="black" stroke-opacity="0.03"/>
</g>
</g>
<path id="Vector 8" d="M167.561 15C162.092 16.0103 158.876 16.1149 152.716 15C170.434 32.9713 169.236 42.6918 165.277 59.9713C169.918 44.5795 175.005 37.3892 167.561 15Z" fill="#241616" stroke="#241616"/>
</g>
<g id="banane">
<g id="Group 5">
<path id="Vector 9" d="M202.33 65.558C205.238 45.6422 195.847 46.0832 188.56 58.2634C157.425 103.918 151.86 115.968 80.6516 129.28C70.2428 136.648 72.2735 139.769 90.2418 143.489C147.968 146.916 173.085 131.248 202.33 65.558Z" fill="#EEC239" stroke="black" stroke-opacity="0.17"/>
<path id="Vector 11" d="M189.78 64.5593C201.781 44.6851 203.221 46.8348 192.974 54.7494C164.58 92.828 143.699 116.365 84.0891 127.728C74.1324 133.21 73.9478 134.787 83.4654 134.868C118.02 130.177 156.24 120.103 189.78 64.5593Z" fill="#EEC239" stroke="black" stroke-opacity="0.05"/>
<path id="Vector 10" d="M202.476 52.7237C201.526 41.6978 201.074 37.0806 200.271 28.907L196.151 30.0266C197.346 38.3664 197.304 43.1425 192.998 52.2559L202.476 52.7237Z" fill="url(#paint6_linear_0_1)"/>
<path id="Vector 12" d="M78.5792 137.682L79.0491 132.026L76.6561 132.754C76.6561 132.754 74.6368 134.892 74.4209 136.014C74.2049 137.135 76.1861 138.41 76.1861 138.41L78.5792 137.682Z" fill="#442929" fill-opacity="0.8" stroke="black" stroke-opacity="0.16"/>
</g>
<g id="Group 6">
<g id="Group 9">
<path id="Vector 9_2" d="M229.782 51.213C219.837 35.9878 211.696 42.2004 212.839 54.9826C213.7 105.3 216.305 116.911 160.854 170.724C156.165 182.236 159.953 183.056 178.407 174.238C232.321 140.175 244.965 113.815 229.782 51.213Z" fill="#EEC239" stroke="black" stroke-opacity="0.17"/>
<path id="Vector 11_2" d="M217.901 58.4482C216.134 37.522 218.78 38.0605 214.582 49.8388C213.125 93.3351 209.238 122.319 162.958 167.515C157.486 177.474 158.314 178.651 166.898 172.709C194.922 147.786 222.838 116.932 217.901 58.4482Z" fill="#EEC239" stroke="black" stroke-opacity="0.05"/>
<path id="Vector 10_2" d="M221.824 42.4903C214.023 35.6736 210.708 32.8533 204.836 27.8624L201.848 31.2112C208.176 36.0664 211.148 39.3052 213.032 48.1467L221.824 42.4903Z" fill="url(#paint7_linear_0_1)"/>
<path id="Vector 12_2" d="M164.291 177.68L161.148 173.58L159.461 175.577C159.461 175.577 158.998 178.288 159.512 179.178C160.025 180.068 162.604 179.677 162.604 179.677L164.291 177.68Z" fill="#442929" fill-opacity="0.8" stroke="black" stroke-opacity="0.16"/>
</g>
<g id="Group 5_2">
<g id="Group 8">
<path id="Vector 9_3" d="M194.869 69.2403C202.25 49.7139 193.401 47.9588 183.757 58.6087C144.048 97.6309 136.037 108.553 66.5992 105.359C55.1768 110.393 56.3355 114.037 72.1961 122.026C125.151 139.042 152.219 129.036 194.869 69.2403Z" fill="#EEC239" stroke="black" stroke-opacity="0.17"/>
<path id="Vector 11_3" d="M183.415 65.2832C199.255 47.9319 200.092 50.4509 188.691 56.0783C153.313 88.0564 128.344 107.041 70.1646 104.59C59.6058 107.817 59.0637 109.374 67.9084 111.688C101.189 115.034 139.146 113.776 183.415 65.2832Z" fill="#EEC239" stroke="black" stroke-opacity="0.05"/>
<path id="Vector 10_3" d="M198.016 56.2516C199.719 44.8409 200.381 40.0499 201.551 31.5679L197.451 31.7374C196.608 40.4802 195.448 45.3165 189.299 53.5538L198.016 56.2516Z" fill="url(#paint8_linear_0_1)"/>
<path id="Vector 12_3" d="M62.6976 113.398L64.4625 107.769L62.0632 107.946C62.0632 107.946 59.6808 109.642 59.2166 110.73C58.7523 111.817 60.2983 113.575 60.2983 113.575L62.6976 113.398Z" fill="#442929" fill-opacity="0.8" stroke="black" stroke-opacity="0.16"/>
</g>
<g id="Group 7">
<g id="Group 5_3">
<g id="Group 10">
<path id="Vector 9_4" d="M223.729 55.9795C217.69 38.3659 208.704 42.9134 207.01 56.1415C196.926 107.427 196.858 119.782 133.163 162.432C126.271 173.109 129.649 174.761 148.878 169.799C206.854 146.872 224.428 122.839 223.729 55.9795Z" fill="#EEC239" stroke="black" stroke-opacity="0.17"/>
<path id="Vector 11_4" d="M212.093 64.0484C215.472 42.3976 217.801 43.5783 211.074 54.5191C199.285 98.2917 188.721 126.76 134.878 161.508C127.405 170.298 127.892 171.691 137.293 167.722C169.309 149.16 202.649 124.557 212.093 64.0484Z" fill="#EEC239" stroke="black" stroke-opacity="0.05"/>
<path id="Vector 12_4" d="M135.486 169.798L134.156 164.598L131.98 166.009C131.98 166.009 130.63 168.563 130.77 169.633C130.91 170.703 133.31 171.21 133.31 171.21L135.486 169.798Z" fill="#442929" fill-opacity="0.8" stroke="black" stroke-opacity="0.16"/>
</g>
<path id="Vector 10_4" d="M219.08 46.2679C211.941 38.7697 208.901 35.6606 203.517 30.1582L200.318 33.3109C206.162 38.7117 208.832 42.2171 209.995 51.3016L219.08 46.2679Z" fill="url(#paint9_linear_0_1)"/>
<g id="Group 5_4">
<path id="Vector 9_5" d="M215.911 61.6107C212.489 42.9013 203.181 46.2867 199.73 59.4841C182.953 110.169 181.193 122.702 113.786 157.274C105.661 167.169 108.699 169.309 127.964 166.906C187.141 151.575 207.421 129.584 215.911 61.6107Z" fill="#EEC239" stroke="black" stroke-opacity="0.17"/>
<path id="Vector 11_5" d="M202.964 64.7173C208.706 43.148 210.84 44.6087 203.051 54.9403C186.617 97.9872 173.108 125.656 116.75 154.793C108.479 162.86 108.796 164.327 118.398 161.367C151.672 146.17 186.919 124.998 202.964 64.7173Z" fill="#EEC239" stroke="black" stroke-opacity="0.05"/>
<path id="Vector 10_5" d="M211.967 50.1045C207.497 40.5618 205.571 36.583 202.158 29.5405L198.368 31.8529C202.23 38.9187 203.709 43.1969 202.281 52.7062L211.967 50.1045Z" fill="url(#paint10_linear_0_1)"/>
<path id="Vector 12_5" d="M114.378 165.437L113.049 160.236L110.872 161.648C110.872 161.648 109.522 164.201 109.663 165.271C109.803 166.342 112.202 166.849 112.202 166.849L114.378 165.437Z" fill="#442929" fill-opacity="0.8" stroke="black" stroke-opacity="0.16"/>
</g>
</g>
</g>
</g>
</g>
</g>
<defs>
<linearGradient id="paint0_linear_0_1" x1="162.331" y1="157" x2="163.331" y2="122.5" gradientUnits="userSpaceOnUse">
<stop stop-color="#85D733" stop-opacity="0.63"/>
<stop offset="1" stop-color="#C55252" stop-opacity="0"/>
</linearGradient>
<linearGradient id="paint1_linear_0_1" x1="162.331" y1="156" x2="163.331" y2="121.5" gradientUnits="userSpaceOnUse">
<stop stop-color="#85D733" stop-opacity="0.63"/>
<stop offset="1" stop-color="#C55252" stop-opacity="0"/>
</linearGradient>
<linearGradient id="paint2_linear_0_1" x1="252.922" y1="139.41" x2="243.926" y2="106.088" gradientUnits="userSpaceOnUse">
<stop stop-color="#85D733" stop-opacity="0.63"/>
<stop offset="1" stop-color="#C55252" stop-opacity="0"/>
</linearGradient>
<linearGradient id="paint3_linear_0_1" x1="252.633" y1="138.453" x2="243.638" y2="105.131" gradientUnits="userSpaceOnUse">
<stop stop-color="#85D733" stop-opacity="0.63"/>
<stop offset="1" stop-color="#C55252" stop-opacity="0"/>
</linearGradient>
<linearGradient id="paint4_linear_0_1" x1="209.331" y1="150" x2="210.331" y2="115.5" gradientUnits="userSpaceOnUse">
<stop stop-color="#85D733" stop-opacity="0.63"/>
<stop offset="1" stop-color="#C55252" stop-opacity="0"/>
</linearGradient>
<linearGradient id="paint5_linear_0_1" x1="209.331" y1="149" x2="210.331" y2="114.5" gradientUnits="userSpaceOnUse">
<stop stop-color="#85D733" stop-opacity="0.63"/>
<stop offset="1" stop-color="#C55252" stop-opacity="0"/>
</linearGradient>
<linearGradient id="paint6_linear_0_1" x1="206.027" y1="34.6696" x2="190.711" y2="49.9667" gradientUnits="userSpaceOnUse">
<stop stop-color="#81CEA2"/>
<stop offset="1" stop-color="#F2C94C"/>
</linearGradient>
<linearGradient id="paint7_linear_0_1" x1="213.629" y1="28.1116" x2="213.06" y2="48.1476" gradientUnits="userSpaceOnUse">
<stop stop-color="#81CEA2"/>
<stop offset="1" stop-color="#F2C94C"/>
</linearGradient>
<linearGradient id="paint8_linear_0_1" x1="205.559" y1="38.7651" x2="186.862" y2="49.1772" gradientUnits="userSpaceOnUse">
<stop stop-color="#81CEA2"/>
<stop offset="1" stop-color="#F2C94C"/>
</linearGradient>
<linearGradient id="paint9_linear_0_1" x1="212.142" y1="31.0946" x2="209.949" y2="51.2966" gradientUnits="userSpaceOnUse">
<stop stop-color="#81CEA2"/>
<stop offset="1" stop-color="#F2C94C"/>
</linearGradient>
<linearGradient id="paint10_linear_0_1" x1="209.786" y1="32.8523" x2="201.343" y2="52.2988" gradientUnits="userSpaceOnUse">
<stop stop-color="#81CEA2"/>
<stop offset="1" stop-color="#F2C94C"/>
</linearGradient>
</defs>
</svg>
