<svg width="128" height="128" viewBox="0 0 128 128" fill="none" xmlns="http://www.w3.org/2000/svg">
<style>
   <!-- #pomme, #tige, #feuille1, #feuille2{
       animation: apple 2s infinite linear;
   }
   @keyframes apple {
       0% {
           transform: scale(0,0);
       }
       50% {
           transform: scale(1,1);
       }
       100% {
           transform: scale(0,0);
       }
   } -->
 #tige, #feuille1, #feuille2, #pomme_2 {
    animation:logo 3s infinite linear;
    transform-origin: center;
    transform-box: fill-box;
}

@keyframes logo {
    0% {
        transform: matrix(0);
    }
    50% {
        transform: matrix(0.87,-0.5,0,0.87,0,1);
    }
    100% {
        transform: matrix(0);
    }
}

</style>
<g id="Plugin icon - 1">
<g id="pomme">
<g id="Vector 1" filter="url(#filter0_dd_0_1)">
<path d="M38.5 91C24.5 82.5 25.0947 61.792 38.5 39.5C45.5195 29.3788 58.5 39.5 64 38C69.5 36.5 74.5 33.5 84 39.5C93.5 45.5 101 77.5 84 91C67 104.5 52.5 99.5 38.5 91Z" fill="#8AA63B" fill-opacity="0.94" shape-rendering="crispEdges"/>
</g>
<path id="ombre" d="M39.6107 48.6711C41.2761 45.3294 45.6711 43.7326 47.2872 42.8347C48.9033 41.9368 48.0953 42.1613 49.7114 41.2634C51.3275 40.3655 59 39.5 54.9637 44.406C52 46 48.4987 44.1635 45 47C41.5013 49.8365 38.149 51.2425 39.6107 48.6711Z" fill="#E5E5E5" stroke="#E5E5E5"/>
</g>
<g id="pomme_2">
<g id="Vector 1_2" filter="url(#filter1_dd_0_1)">
<path d="M68.2782 110.056C54.2782 101.556 54.8729 80.848 68.2782 58.556C75.2977 48.4349 88.2782 58.556 93.7782 57.056C99.2782 55.556 104.278 52.556 113.778 58.556C123.278 64.556 130.778 96.556 113.778 110.056C96.7782 123.556 82.2782 118.556 68.2782 110.056Z" fill="#E05638" fill-opacity="0.94" shape-rendering="crispEdges"/>
</g>
<path id="ombre_2" d="M67.3513 68.103C69.0167 64.7613 73.4117 63.1645 75.0278 62.2666C76.644 61.3687 75.8359 61.5932 77.452 60.6953C79.0681 59.7974 86.7406 58.9319 82.7044 63.838C79.7406 65.4319 76.2394 63.5955 72.7406 66.4319C69.2419 69.2684 65.8897 70.6744 67.3513 68.103Z" fill="#E5E5E5" stroke="#E5E5E5"/>
</g>
<g id="Group 1">
<path id="tige" d="M62 39C62 39 62.8618 34.4402 65.1809 28.2201C67.5 22 74.5 22 68.3618 28.2201C62.2236 34.4402 65.1809 39 65.1809 39H62Z" fill="#AF7837"/>
<path id="feuille2" d="M47 28.2894C51.0831 32.8859 57.5 35.2894 61 34.7894C64.5 34.2894 62 33.2894 62 31.2894C62 29.2894 54.9247 27.2261 47 28.2894Z" fill="#8AA63B" fill-opacity="0.96" stroke="#8AA63B" stroke-opacity="0.96"/>
<path id="feuille1" d="M82.108 28.8317C76.3699 26.6239 69.5659 27.4361 66.6866 29.4878C63.8072 31.5394 66.4872 31.2795 67.4058 33.0561C68.3244 34.8326 75.5569 33.4158 82.108 28.8317Z" fill="#8AA63B" fill-opacity="0.96" stroke="#8AA63B" stroke-opacity="0.96"/>
</g>
<g id="Group 2">
<path id="tige_2" d="M92 59C92 59 92.8618 54.4402 95.1809 48.2201C97.5 42 104.5 42 98.3618 48.2201C92.2236 54.4402 95.1809 59 95.1809 59H92Z" fill="#AF7837"/>
<path id="feuille2_2" d="M77 48.2894C81.0831 52.8859 87.5 55.2894 91 54.7894C94.5 54.2894 92 53.2894 92 51.2894C92 49.2894 84.9247 47.2261 77 48.2894Z" fill="#8AA63B" fill-opacity="0.96" stroke="#8AA63B" stroke-opacity="0.96"/>
<path id="feuille1_2" d="M112.108 48.8317C106.37 46.6239 99.5659 47.4361 96.6866 49.4878C93.8072 51.5394 96.4872 51.2795 97.4058 53.0561C98.3244 54.8326 105.557 53.4158 112.108 48.8317Z" fill="#8AA63B" fill-opacity="0.96" stroke="#8AA63B" stroke-opacity="0.96"/>
</g>
</g>
<defs>
<filter id="filter0_dd_0_1" x="24.2218" y="34.944" width="73.9073" height="72.41" filterUnits="userSpaceOnUse" color-interpolation-filters="sRGB">
<feFlood flood-opacity="0" result="BackgroundImageFix"/>
<feColorMatrix in="SourceAlpha" type="matrix" values="0 0 0 0 0 0 0 0 0 0 0 0 0 0 0 0 0 0 127 0" result="hardAlpha"/>
<feOffset dy="4"/>
<feGaussianBlur stdDeviation="2"/>
<feComposite in2="hardAlpha" operator="out"/>
<feColorMatrix type="matrix" values="0 0 0 0 0 0 0 0 0 0 0 0 0 0 0 0 0 0 0.25 0"/>
<feBlend mode="normal" in2="BackgroundImageFix" result="effect1_dropShadow_0_1"/>
<feColorMatrix in="SourceAlpha" type="matrix" values="0 0 0 0 0 0 0 0 0 0 0 0 0 0 0 0 0 0 127 0" result="hardAlpha"/>
<feOffset dy="4"/>
<feGaussianBlur stdDeviation="2"/>
<feComposite in2="hardAlpha" operator="out"/>
<feColorMatrix type="matrix" values="0 0 0 0 0 0 0 0 0 0 0 0 0 0 0 0 0 0 0.25 0"/>
<feBlend mode="normal" in2="effect1_dropShadow_0_1" result="effect2_dropShadow_0_1"/>
<feBlend mode="normal" in="SourceGraphic" in2="effect2_dropShadow_0_1" result="shape"/>
</filter>
<filter id="filter1_dd_0_1" x="54" y="54" width="73.9073" height="72.41" filterUnits="userSpaceOnUse" color-interpolation-filters="sRGB">
<feFlood flood-opacity="0" result="BackgroundImageFix"/>
<feColorMatrix in="SourceAlpha" type="matrix" values="0 0 0 0 0 0 0 0 0 0 0 0 0 0 0 0 0 0 127 0" result="hardAlpha"/>
<feOffset dy="4"/>
<feGaussianBlur stdDeviation="2"/>
<feComposite in2="hardAlpha" operator="out"/>
<feColorMatrix type="matrix" values="0 0 0 0 0 0 0 0 0 0 0 0 0 0 0 0 0 0 0.25 0"/>
<feBlend mode="normal" in2="BackgroundImageFix" result="effect1_dropShadow_0_1"/>
<feColorMatrix in="SourceAlpha" type="matrix" values="0 0 0 0 0 0 0 0 0 0 0 0 0 0 0 0 0 0 127 0" result="hardAlpha"/>
<feOffset dy="4"/>
<feGaussianBlur stdDeviation="2"/>
<feComposite in2="hardAlpha" operator="out"/>
<feColorMatrix type="matrix" values="0 0 0 0 0 0 0 0 0 0 0 0 0 0 0 0 0 0 0.25 0"/>
<feBlend mode="normal" in2="effect1_dropShadow_0_1" result="effect2_dropShadow_0_1"/>
<feBlend mode="normal" in="SourceGraphic" in2="effect2_dropShadow_0_1" result="shape"/>
</filter>
</defs>
</svg>
