<svg width="212" height="216" viewBox="0 0 212 216" fill="none" xmlns="http://www.w3.org/2000/svg">

<path id="maison-2" d="M90.8946 128.35L63.3038 152.641V215.287H129.747V152.641L121.864 148.166V136.247L107.224 128.35V141.135L90.8946 128.35Z" fill="#F8F384" stroke="#F8F384"/>
<path id="doublur-d" d="M5.21644 143.556C13.9791 183.103 54.4046 194.534 97.675 199.826L95.7136 159.344C69.4109 156.898 51.3484 158.227 45.0296 133.108C40.4906 115.065 44.8592 102.52 56.2403 87.2504L54.3927 49.1157C16.8523 72.1431 -5.22147 96.4485 5.21644 143.556Z" fill="#85C941" stroke="#85C941" stroke-width="4"/>
<g id="bras-d">
<path id="Vector 9" d="M106.263 195.902V156.545H111.991V195.902H106.263Z" fill="black" stroke="black"/>
<g id="bras-d_2">
<g id="Group 2">
<path id="Vector 3" d="M108.5 180.602C93.933 180.059 87.3249 177.764 76.7182 172.165" stroke="black" stroke-width="4"/>
<path id="Vector 2" d="M106.24 192.134C95.9057 190.608 89.5156 188.934 75.761 182.709" stroke="black" stroke-width="4"/>
<path id="Vector 4" d="M109.204 171.8C95.4953 169.31 88.601 166.891 77.1097 161.534" stroke="black" stroke-width="4"/>
</g>
<g id="bras-d_3">
<path id="Vector 7" d="M7.15972 142.556C16.0621 182.393 59.9523 190.816 113.045 197.653L112.572 157.125C80.2621 153.739 57.9296 154.42 51.3467 129.09C46.618 110.895 52.6069 98.5131 67.3722 83.6596L66.9273 45.4805C19.5381 67.1514 -3.44462 95.1019 7.15972 142.556Z" stroke="black" stroke-width="4"/>
<path id="Vector 10" d="M56.4304 95.4545L52.9937 53.1608L63.8766 49.049V85.4685L56.4304 95.4545Z" fill="black" stroke="black"/>
</g>
</g>
</g>
<g id="maison">
<g id="maison_2">
<path id="Vector 16" d="M63.3038 145.769L103.365 115.427L141.604 141.604L144.639 208.238H66.3387V198.719" stroke="black" stroke-width="6"/>
<path id="Vector 17" d="M126.883 130.112V119.538H136.047V136.573" stroke="black" stroke-width="6"/>
</g>
<path id="Vector 19" d="M106.835 174.755H118.291V207.65" stroke="black" stroke-width="5"/>
<path id="Vector 20" d="M95.3797 199.427V208.825" stroke="black" stroke-width="5"/>
</g>
<g id="orange-2">
<path id="orange-2_2" d="M162.114 55.5105C162.114 81.0104 141.466 101.678 116 101.678C90.5341 101.678 69.8861 81.0104 69.8861 55.5105C69.8861 30.0106 90.5341 9.34266 116 9.34266C141.466 9.34266 162.114 30.0106 162.114 55.5105Z" fill="#ED9A1D" stroke="#ED9A1D" stroke-width="4"/>
<path id="Vector 12" d="M85.0696 19.1334C67.9239 -6.26867 59.2054 -3.2852 65.1847 34.809L67.6703 37.8881L82.584 23.3322L85.0696 19.1334Z" fill="#85C941" stroke="#85C941" stroke-width="4"/>
</g>
<path id="Vector 15" d="M74.4343 21.0848C70.3601 17.5132 68.5745 18.6866 71.9512 25.0356C75.3279 31.3846 74.7102 27.2687 73.4687 26.0663C72.2271 24.8638 75.6759 22.9743 75.6759 22.9743C76.9175 24.005 78.5085 24.6564 74.4343 21.0848Z" fill="black" stroke="black"/>
<ellipse id="point1" cx="85.6424" cy="52.5734" rx="2.86392" ry="2.93706" fill="black"/>
<ellipse id="point2" cx="77.6234" cy="42" rx="2.86392" ry="2.93706" fill="black"/>
<ellipse id="point3" cx="73.0411" cy="58.4476" rx="2.86392" ry="2.93706" fill="black"/>
<ellipse id="point4" cx="121.155" cy="85.4685" rx="2.86392" ry="2.93706" fill="black"/>
<ellipse id="point5" cx="132.611" cy="87.8182" rx="2.86392" ry="2.93706" fill="black"/>
<ellipse id="point6" cx="117.718" cy="97.2168" rx="2.86392" ry="2.93706" fill="black"/>
<ellipse id="point7" cx="87.9335" cy="32.6014" rx="2.86392" ry="2.93706" fill="black"/>
<g id="orange1">
<path id="Vector 14" d="M59.5419 31.6582C55.4677 28.0866 53.6821 29.26 57.0588 35.609C60.4355 41.958 59.8178 37.8421 58.5762 36.6397C57.3347 35.4373 60.7835 33.5477 60.7835 33.5477C62.025 34.5784 63.6161 35.2298 59.5419 31.6582Z" fill="#E5E5E5" stroke="black"/>
<g id="orange1_2">
<path id="Vector 11" d="M67.8861 37.3007C63.0878 -1.6097 67.1215 -2.98504 83.3513 22.028" stroke="black" stroke-width="4"/>
<g id="orange-1">
<path id="Vector 13" d="M65.6024 30.199C51.3428 20.8236 45.0931 23.9037 56.9114 40.5699C68.7298 57.236 66.5681 46.4317 62.2226 43.2753C57.8771 40.119 65.6024 37.3007 65.6024 37.3007C65.6024 34.3636 79.862 39.5745 65.6024 30.199Z" fill="black" stroke="black"/>
<path id="orange-1_2" d="M149.658 62.5594C149.658 87.5081 129.457 107.727 104.544 107.727C79.6317 107.727 59.4304 87.5081 59.4304 62.5594C59.4304 37.6108 79.6317 17.3916 104.544 17.3916C129.457 17.3916 149.658 37.6108 149.658 62.5594Z" stroke="black" stroke-width="6"/>
</g>
</g>
</g>
<path id="doublur-g" d="M208.169 90.9764C201.694 50.8757 164.702 41.8803 124.019 34.3636V72.1055C148.784 75.902 165.929 75.493 170.754 101.002C174.22 119.325 169.514 131.681 158.049 146.41L161.434 184.741C197.995 163.57 215.883 138.743 208.169 90.9764Z" fill="#85C941" stroke="#85C941" stroke-width="4"/>
<g id="bras-g">
<g id="bras-g_2">
<path id="Vector 1" d="M207.646 92.5175C199.471 52.5734 157.047 43.6131 105.69 36.1259V76.6573C136.953 80.4391 158.595 80.0317 164.687 105.441C169.062 123.692 163.121 136 148.649 150.671V188.853C194.802 167.765 217.383 140.098 207.646 92.5175Z" stroke="black" stroke-width="4"/>
<g id="Group 1">
<path id="Vector 3_2" d="M106.835 57.8601C121.32 56.1881 128.187 57.4555 139.484 61.3846" stroke="black" stroke-width="4"/>
<path id="Vector 2_2" d="M107.408 46.1119C117.849 46.0541 124.411 46.741 138.911 50.8112" stroke="black" stroke-width="4"/>
<path id="Vector 4_2" d="M107.408 66.6713C121.325 67.0553 128.492 68.4027 140.63 71.958" stroke="black" stroke-width="4"/>
</g>
</g>
<path id="Vector 6" d="M146.358 188.853V151.259L152.658 145.972L155.522 184.741L146.358 188.853Z" fill="black" stroke="black"/>
</g>
</svg>
